<svg width="16" height="16" viewBox="0 0 16 16" fill="none" xmlns="http://www.w3.org/2000/svg">
<path fill-rule="evenodd" clip-rule="evenodd" d="M8.58726 9.37027L8.19575 8.97876L8.97876 8.19575L9.37027 8.58726C10.2352 9.45215 11.6374 9.45215 12.5023 8.58726L14.8513 6.23823C15.7162 5.37334 15.7162 3.97108 14.8513 3.10619L12.8938 1.14867C12.0289 0.283778 10.6267 0.283778 9.76177 1.14867L7.41274 3.49769C6.54785 4.36258 6.54785 5.76484 7.41274 6.62973L7.80425 7.02124L7.02124 7.80425L6.62973 7.41274C5.76484 6.54785 4.36258 6.54785 3.4977 7.41274L1.14867 9.76177C0.283778 10.6267 0.283778 12.0289 1.14867 12.8938L3.10619 14.8513C3.97108 15.7162 5.37334 15.7162 6.23823 14.8513L8.58726 12.5023C9.45215 11.6374 9.45215 10.2352 8.58726 9.37027ZM4.67221 8.58726L2.32318 10.9363C2.10696 11.1525 2.10696 11.5031 2.32318 11.7193L4.2807 13.6768C4.49693 13.893 4.84749 13.893 5.06371 13.6768L7.41274 11.3278C7.62896 11.1116 7.62896 10.761 7.41274 10.5448L7.02124 10.1533L5.65097 11.5235C5.32664 11.8479 4.80079 11.8479 4.47646 11.5235C4.15212 11.1992 4.15212 10.6734 4.47646 10.349L5.84672 8.97876L5.45522 8.58726C5.239 8.37103 4.88843 8.37104 4.67221 8.58726ZM10.1533 7.02124L11.5235 5.65097C11.8479 5.32664 11.8479 4.80079 11.5235 4.47646C11.1992 4.15212 10.6734 4.15212 10.349 4.47646L8.97876 5.84672L8.58726 5.45522C8.37104 5.239 8.37104 4.88843 8.58726 4.67221L10.9363 2.32318C11.1525 2.10696 11.5031 2.10696 11.7193 2.32318L13.6768 4.2807C13.893 4.49693 13.893 4.84749 13.6768 5.06371L11.3278 7.41274C11.1116 7.62896 10.761 7.62896 10.5448 7.41274L10.1533 7.02124Z" fill="white"/>
</svg>
