<svg width="24" height="24" viewBox="0 0 24 24" fill="none" xmlns="http://www.w3.org/2000/svg">
<path fill-rule="evenodd" clip-rule="evenodd" d="M18.0014 16.5829C21.276 12.5959 21.0511 6.69719 17.3267 2.9728C13.363 -0.990932 6.93653 -0.990933 2.9728 2.9728C-0.990932 6.93653 -0.990932 13.363 2.9728 17.3267C6.69716 21.0511 12.5958 21.276 16.5828 18.0015L22.2876 23.7063C22.6793 24.098 23.3144 24.098 23.7062 23.7063C24.0979 23.3145 24.0979 22.6794 23.7062 22.2876L18.0014 16.5829ZM15.9125 4.38701C19.0952 7.56969 19.0952 12.7298 15.9125 15.9125C12.7298 19.0952 7.56969 19.0952 4.38701 15.9125C1.20433 12.7298 1.20433 7.56969 4.38701 4.38701C7.56969 1.20433 12.7298 1.20433 15.9125 4.38701Z" fill="#F3A83F"/>
</svg>
