<svg width="26" height="26" viewBox="0 0 26 26" fill="none" xmlns="http://www.w3.org/2000/svg">
<path d="M14.0341 1C14.0341 1 17.8036 1.34534 21.2305 4.79879C24.6573 8.25223 25 12.051 25 12.051M14.6887 5.86574C14.6887 5.86574 16.4022 6.21108 18.1156 7.93781C19.829 9.66453 20.1717 11.3912 20.1717 11.3912M8.72243 4.62611C11.0211 6.94261 10.1323 9.19999 9.4113 10.3268C9.12671 10.7716 9.11336 11.3761 9.4666 11.7686C10.1728 12.5533 11.3119 13.8065 12 14.5C12.7187 15.2243 13.6688 16.0915 14.3073 16.6637C14.7001 17.0157 15.3029 16.9969 15.7451 16.7095C16.8634 15.9829 19.1032 15.0875 21.4018 17.4039C24.6573 20.6846 23.2525 22.1004 21.5195 23.8468C19.7865 25.5932 17.9656 25.1924 15.1191 23.7353C12.2725 22.2783 9.55816 19.2703 8.03706 17.7492C6.51596 16.2281 3.67846 13.1745 2.08994 10.6051C0.501426 8.03578 0.707642 6.14154 2.32907 4.50753C4.06205 2.76111 5.46692 1.34534 8.72243 4.62611Z" stroke="#F3A83F" stroke-width="2" stroke-linecap="round"/>
</svg>
