<svg width="20" height="20" viewBox="0 0 20 20" fill="none" xmlns="http://www.w3.org/2000/svg">
<path d="M10.7755 1C10.7755 1 13.6027 1.25901 16.1728 3.84909C18.743 6.43917 19 9.28826 19 9.28826M11.2666 4.64931C11.2666 4.64931 12.5516 4.90831 13.8367 6.20335C15.1218 7.4984 15.3788 8.79344 15.3788 8.79344M6.79182 3.71959C8.38784 5.32798 7.93504 6.89838 7.42996 7.79322C7.17041 8.25306 7.15342 8.85906 7.50727 9.25098C8.03714 9.83785 8.7824 10.6538 9.25 11.125C9.72677 11.6055 10.3393 12.1699 10.8059 12.5908C11.1974 12.9441 11.802 12.9217 12.2596 12.6595C13.1476 12.1506 14.7056 11.6948 16.3014 13.3029C18.743 15.7635 17.6893 16.8253 16.3896 18.1351C15.0899 19.4449 13.7242 19.1443 11.5893 18.0515C9.4544 16.9587 7.41862 14.7027 6.27779 13.5619C5.13697 12.4211 3.00884 10.1309 1.81746 8.20386C0.626069 6.27684 0.780731 4.85616 1.9968 3.63065C3.29654 2.32083 4.35019 1.25901 6.79182 3.71959Z" stroke="#404D5B" stroke-width="2" stroke-linecap="round"/>
</svg>
