<svg width="70" height="70" viewBox="0 0 70 70" fill="none" xmlns="http://www.w3.org/2000/svg">
<g clip-path="url(#clip0_0_1205)">
<rect width="70" height="70" rx="35" fill="#404D5B"/>
<path fill-rule="evenodd" clip-rule="evenodd" d="M28.9802 18.9792C22.3412 25.6181 22.3412 36.3819 28.9802 43.0208C35.6191 49.6597 46.3829 49.6597 53.0218 43.0208C59.6607 36.3819 59.6607 25.6181 53.0218 18.9792C46.3829 12.3403 35.6191 12.3403 28.9802 18.9792ZM26.8588 16.8579C19.0484 24.6683 19.0484 37.3316 26.8588 45.1421C34.6693 52.9526 47.3326 52.9526 55.1431 45.1421C62.9536 37.3317 62.9536 24.6684 55.1431 16.8579C47.3326 9.04738 34.6693 9.04738 26.8588 16.8579ZM33.2218 23.2218C28.926 27.5176 28.926 34.4824 33.2218 38.7782C37.5175 43.0739 44.4823 43.0739 48.7781 38.7782C53.0739 34.4824 53.0739 27.5176 48.7781 23.2218C44.4823 18.9261 37.5175 18.9261 33.2218 23.2218ZM31.1004 21.1005C25.6331 26.5678 25.6331 35.4322 31.1004 40.8995C36.5678 46.3668 45.4321 46.3668 50.8994 40.8995C56.3668 35.4322 56.3668 26.5678 50.8994 21.1005C45.4321 15.6332 36.5678 15.6332 31.1004 21.1005ZM37.4673 34.5355C35.5146 32.5829 35.5146 29.4171 37.4673 27.4645C39.4199 25.5118 42.5857 25.5118 44.5383 27.4645C46.4909 29.4171 46.4909 32.5829 44.5383 34.5355C42.5857 36.4882 39.4199 36.4882 37.4673 34.5355ZM35.3459 36.6569C32.2217 33.5327 32.2217 28.4673 35.3459 25.3431C38.4701 22.219 43.5354 22.219 46.6596 25.3431C49.7838 28.4673 49.7838 33.5327 46.6596 36.6569C43.5354 39.781 38.4701 39.781 35.3459 36.6569Z" fill="white"/>
<path d="M25.5807 -8.40757C21.0009 17.9999 9.06901 29.1554 20.0009 45.9999C30.9327 62.8444 50 55.9998 82.0001 49.4999" stroke="white" stroke-width="3"/>
<path d="M2.20478 60.9332L4.10478 63.2516L42.6405 34.224C44.2189 33.035 44.4903 30.7713 43.2377 29.2429C41.9851 27.7144 39.7122 27.5359 38.2363 28.8501L2.20478 60.9332Z" fill="white" stroke="#404D5B" stroke-width="3"/>
</g>
<defs>
<clipPath id="clip0_0_1205">
<rect width="70" height="70" rx="35" fill="white"/>
</clipPath>
</defs>
</svg>
