<svg width="70" height="70" viewBox="0 0 70 70" fill="none" xmlns="http://www.w3.org/2000/svg">
<g clip-path="url(#clip0_0_1279)">
<rect width="70" height="70" rx="35" fill="#404D5B"/>
<path d="M-4 53.0004L74.9996 53" stroke="white" stroke-width="3"/>
<path d="M9 0.337448C9 0.337448 11.0696 14.2469 12.2522 26.5514C12.8554 32.8267 8.11303 37.5185 10.4783 42.8683C12.8435 48.2181 18.461 45.8107 31.1742 45.8107C41.2215 45.8162 43.2961 46.8806 47.1397 46.8806C50.9832 46.8806 50.6875 45.9253 53.3485 46.6131C57.3405 47.645 61.869 46.6328 60.8561 43.3339C60.3725 41.7588 57.7799 42.0658 56.0094 42.0658C54.2388 42.0658 47.5595 40.1208 44.7744 38.321C40.6352 35.6461 38.8613 33.7736 35.3134 31.6337C31.7655 29.4938 30.2873 28.1564 28.2177 24.9465C26.1481 21.7366 27.6264 -1 27.6264 -1" stroke="white" stroke-width="3"/>
</g>
<defs>
<clipPath id="clip0_0_1279">
<rect width="70" height="70" rx="35" fill="white"/>
</clipPath>
</defs>
</svg>
