<svg width="70" height="70" viewBox="0 0 70 70" fill="none" xmlns="http://www.w3.org/2000/svg">
<g clip-path="url(#clip0_0_1230)">
<rect width="70" height="70" rx="35" fill="#404D5B"/>
<path d="M6 -19.1053C6 -19.1053 8.90539 0.599779 10.5656 18.0312C11.4123 26.9211 4.75483 33.5679 8.07528 41.1467C11.3957 48.7256 22.5 45.9901 33 43.5C43.5 41.0099 45 46.4519 59.5 46.4519C64.8957 46.4519 64.5229 45.4775 68.2584 46.4519C73.8626 47.9138 80.2199 46.4797 78.798 41.8064C78.1191 39.575 74.4795 40.0099 71.9939 40.0099C69.5083 40.0099 60.1317 37.2545 56.2218 34.7047C50.411 30.9153 47.9207 28.2626 42.94 25.2311C37.9593 22.1996 35.884 20.3048 32.9786 15.7575C30.0733 11.2102 32.1485 -21 32.1485 -21" stroke="white" stroke-width="3"/>
<mask id="path-3-outside-1_0_1230" maskUnits="userSpaceOnUse" x="20.0007" y="27" width="32" height="32" fill="black">
<rect fill="white" x="20.0007" y="27" width="32" height="32"/>
<path fill-rule="evenodd" clip-rule="evenodd" d="M28.8985 49.8896C25.0348 46.0258 25.0348 39.7615 28.8985 35.8978C32.7622 32.0341 39.0266 32.0341 42.8903 35.8978C46.754 39.7615 46.754 46.0258 42.8903 49.8896C39.0266 53.7533 32.7622 53.7533 28.8985 49.8896ZM26.7772 52.0109C21.7419 46.9756 21.7419 38.8118 26.7772 33.7765C31.8125 28.7412 39.9763 28.7412 45.0116 33.7765C50.0469 38.8118 50.0469 46.9756 45.0116 52.0109C39.9763 57.0462 31.8125 57.0462 26.7772 52.0109ZM32.8099 45.9777C31.1067 44.2744 31.1067 41.5129 32.8099 39.8097C34.5132 38.1064 37.2747 38.1064 38.978 39.8097C40.6812 41.5129 40.6812 44.2744 38.978 45.9777C37.2747 47.6809 34.5132 47.6809 32.8099 45.9777ZM30.6886 48.099C27.8138 45.2242 27.8138 40.5632 30.6886 37.6883C33.5634 34.8135 38.2244 34.8135 41.0993 37.6883C43.9741 40.5632 43.9741 45.2242 41.0993 48.099C38.2244 50.9738 33.5634 50.9738 30.6886 48.099Z"/>
</mask>
<path fill-rule="evenodd" clip-rule="evenodd" d="M28.8985 49.8896C25.0348 46.0258 25.0348 39.7615 28.8985 35.8978C32.7622 32.0341 39.0266 32.0341 42.8903 35.8978C46.754 39.7615 46.754 46.0258 42.8903 49.8896C39.0266 53.7533 32.7622 53.7533 28.8985 49.8896ZM26.7772 52.0109C21.7419 46.9756 21.7419 38.8118 26.7772 33.7765C31.8125 28.7412 39.9763 28.7412 45.0116 33.7765C50.0469 38.8118 50.0469 46.9756 45.0116 52.0109C39.9763 57.0462 31.8125 57.0462 26.7772 52.0109ZM32.8099 45.9777C31.1067 44.2744 31.1067 41.5129 32.8099 39.8097C34.5132 38.1064 37.2747 38.1064 38.978 39.8097C40.6812 41.5129 40.6812 44.2744 38.978 45.9777C37.2747 47.6809 34.5132 47.6809 32.8099 45.9777ZM30.6886 48.099C27.8138 45.2242 27.8138 40.5632 30.6886 37.6883C33.5634 34.8135 38.2244 34.8135 41.0993 37.6883C43.9741 40.5632 43.9741 45.2242 41.0993 48.099C38.2244 50.9738 33.5634 50.9738 30.6886 48.099Z" fill="white"/>
<path d="M28.8985 35.8978L31.0198 38.0191V38.0191L28.8985 35.8978ZM42.8903 49.8896L40.769 47.7682L42.8903 49.8896ZM26.7772 33.7765L24.6559 31.6551H24.6559L26.7772 33.7765ZM26.7772 52.0109L24.6559 54.1322H24.6559L26.7772 52.0109ZM45.0116 33.7765L47.1329 31.6552L47.1329 31.6552L45.0116 33.7765ZM32.8099 45.9777L34.9312 43.8564L32.8099 45.9777ZM38.978 39.8097L36.8566 41.931L36.8566 41.931L38.978 39.8097ZM38.978 45.9777L41.0993 48.099H41.0993L38.978 45.9777ZM30.6886 37.6883L32.8099 39.8097L30.6886 37.6883ZM41.0993 37.6883L38.978 39.8097L41.0993 37.6883ZM41.0993 48.099L38.978 45.9777L41.0993 48.099ZM26.7772 33.7765C21.7419 38.8118 21.7419 46.9756 26.7772 52.0109L31.0198 47.7682C28.3277 45.0761 28.3277 40.7113 31.0198 38.0191L26.7772 33.7765ZM45.0116 33.7765C39.9763 28.7412 31.8125 28.7412 26.7772 33.7765L31.0198 38.0191C33.712 35.327 38.0768 35.327 40.769 38.0191L45.0116 33.7765ZM45.0116 52.0109C50.0469 46.9756 50.0469 38.8118 45.0116 33.7765L40.769 38.0191C43.4611 40.7113 43.4611 45.0761 40.769 47.7682L45.0116 52.0109ZM26.7772 52.0109C31.8125 57.0462 39.9763 57.0462 45.0116 52.0109L40.769 47.7682C38.0768 50.4604 33.712 50.4604 31.0198 47.7682L26.7772 52.0109ZM24.6559 31.6551C18.449 37.862 18.449 47.9253 24.6559 54.1322L28.8985 49.8896C25.0348 46.0258 25.0348 39.7615 28.8985 35.8978L24.6559 31.6551ZM47.1329 31.6552C40.9261 25.4483 30.8628 25.4483 24.6559 31.6551L28.8985 35.8978C32.7622 32.0341 39.0266 32.0341 42.8903 35.8978L47.1329 31.6552ZM47.1329 54.1322C53.3398 47.9253 53.3398 37.862 47.1329 31.6552L42.8903 35.8978C46.754 39.7615 46.754 46.0258 42.8903 49.8896L47.1329 54.1322ZM24.6559 54.1322C30.8627 60.3391 40.9261 60.3391 47.1329 54.1322L42.8903 49.8896C39.0266 53.7533 32.7622 53.7533 28.8985 49.8896L24.6559 54.1322ZM30.6886 37.6883C27.8138 40.5632 27.8138 45.2242 30.6886 48.099L34.9312 43.8564C34.3996 43.3247 34.3996 42.4627 34.9312 41.931L30.6886 37.6883ZM41.0993 37.6883C38.2244 34.8135 33.5634 34.8135 30.6886 37.6883L34.9312 41.931C35.4629 41.3993 36.325 41.3993 36.8566 41.931L41.0993 37.6883ZM41.0993 48.099C43.9741 45.2242 43.9741 40.5632 41.0993 37.6883L36.8566 41.931C37.3883 42.4627 37.3883 43.3247 36.8566 43.8564L41.0993 48.099ZM30.6886 48.099C33.5634 50.9738 38.2244 50.9738 41.0993 48.099L36.8566 43.8564C36.325 44.3881 35.4629 44.3881 34.9312 43.8564L30.6886 48.099ZM28.5673 35.567C24.5209 39.6134 24.5209 46.1739 28.5673 50.2203L32.8099 45.9777C31.1067 44.2744 31.1067 41.5129 32.8099 39.8097L28.5673 35.567ZM43.2206 35.567C39.1742 31.5206 32.6137 31.5206 28.5673 35.567L32.8099 39.8097C34.5132 38.1064 37.2747 38.1064 38.978 39.8097L43.2206 35.567ZM43.2206 50.2203C47.267 46.1739 47.267 39.6134 43.2206 35.567L38.978 39.8097C40.6812 41.5129 40.6812 44.2744 38.978 45.9777L43.2206 50.2203ZM28.5673 50.2203C32.6137 54.2667 39.1742 54.2667 43.2206 50.2203L38.978 45.9777C37.2747 47.6809 34.5132 47.6809 32.8099 45.9777L28.5673 50.2203Z" fill="#404D5B" mask="url(#path-3-outside-1_0_1230)"/>
</g>
<defs>
<clipPath id="clip0_0_1230">
<rect width="70" height="70" rx="35" fill="white"/>
</clipPath>
</defs>
</svg>
