<svg width="70" height="70" viewBox="0 0 70 70" fill="none" xmlns="http://www.w3.org/2000/svg">
<g clip-path="url(#clip0_0_1300)">
<rect width="70" height="70" rx="35" fill="#404D5B"/>
<path d="M63.9152 -9.05857C49.6332 -1.60824 37.8056 19.0694 33.1282 20.9316C25.1759 24.0977 22.1471 34.036 26.6322 41.1165C31.1172 48.1969 34.8225 64.03 37.046 73.1985L58.5891 67.4261C58.5891 67.4261 60.3914 57.1789 57.8205 50.1958C55.2497 43.2127 53.1817 37.8167 53.1817 37.8167M53.1817 37.8167C59.7301 32.2261 75.1971 19.7341 78.0679 14.7802M53.1817 37.8167C53.1817 37.8167 49.624 41.9793 52.2597 47.8989M35.5 42.5C37.2665 39.6091 42.5 38.5 39 28" stroke="white" stroke-width="3" stroke-linecap="round"/>
<mask id="path-3-outside-1_0_1300" maskUnits="userSpaceOnUse" x="3" y="10.3047" width="20" height="42" fill="black">
<rect fill="white" x="3" y="10.3047" width="20" height="42"/>
<path fill-rule="evenodd" clip-rule="evenodd" d="M19.7734 15.4774C19.7734 16.1548 19.3272 16.7452 18.6957 16.9902C16.7468 17.7465 14.9561 18.904 13.4494 20.4108C10.6005 23.2597 9 27.1236 9 31.1525C9 35.1814 10.6005 39.0453 13.4494 41.8942C14.9561 43.401 16.7468 44.5585 18.6957 45.3147C19.3272 45.5598 19.7734 46.1501 19.7734 46.8276C19.7734 47.8289 18.8299 48.5644 17.8906 48.2176C15.4483 47.3159 13.2043 45.8918 11.328 44.0155C7.91655 40.604 6 35.9771 6 31.1525C6 26.3279 7.91655 21.7009 11.328 18.2895C13.2043 16.4132 15.4483 14.9891 17.8906 14.0873C18.8299 13.7405 19.7734 14.4761 19.7734 15.4774ZM19.7734 24.3928C19.7734 23.1646 18.4965 22.3807 17.5519 23.1657C17.3075 23.3689 17.0722 23.5835 16.8467 23.809C15.8822 24.7734 15.1172 25.9184 14.5953 27.1784C14.0733 28.4385 13.8047 29.7891 13.8047 31.1529C13.8047 32.5168 14.0733 33.8674 14.5953 35.1275C15.1172 36.3875 15.8822 37.5325 16.8467 38.4969C17.0722 38.7224 17.3075 38.937 17.5519 39.1402C18.4965 39.9252 19.7734 39.1413 19.7734 37.9131C19.7734 37.3841 19.5151 36.895 19.1297 36.5325C19.0751 36.481 19.0211 36.4287 18.968 36.3756C18.2821 35.6897 17.7381 34.8755 17.3669 33.9794C16.9957 33.0833 16.8047 32.1229 16.8047 31.1529C16.8047 30.183 16.9957 29.2226 17.3669 28.3265C17.7381 27.4304 18.2821 26.6162 18.968 25.9303C19.0211 25.8772 19.0751 25.8249 19.1297 25.7734C19.5151 25.4109 19.7734 24.9218 19.7734 24.3928Z"/>
</mask>
<path fill-rule="evenodd" clip-rule="evenodd" d="M19.7734 15.4774C19.7734 16.1548 19.3272 16.7452 18.6957 16.9902C16.7468 17.7465 14.9561 18.904 13.4494 20.4108C10.6005 23.2597 9 27.1236 9 31.1525C9 35.1814 10.6005 39.0453 13.4494 41.8942C14.9561 43.401 16.7468 44.5585 18.6957 45.3147C19.3272 45.5598 19.7734 46.1501 19.7734 46.8276C19.7734 47.8289 18.8299 48.5644 17.8906 48.2176C15.4483 47.3159 13.2043 45.8918 11.328 44.0155C7.91655 40.604 6 35.9771 6 31.1525C6 26.3279 7.91655 21.7009 11.328 18.2895C13.2043 16.4132 15.4483 14.9891 17.8906 14.0873C18.8299 13.7405 19.7734 14.4761 19.7734 15.4774ZM19.7734 24.3928C19.7734 23.1646 18.4965 22.3807 17.5519 23.1657C17.3075 23.3689 17.0722 23.5835 16.8467 23.809C15.8822 24.7734 15.1172 25.9184 14.5953 27.1784C14.0733 28.4385 13.8047 29.7891 13.8047 31.1529C13.8047 32.5168 14.0733 33.8674 14.5953 35.1275C15.1172 36.3875 15.8822 37.5325 16.8467 38.4969C17.0722 38.7224 17.3075 38.937 17.5519 39.1402C18.4965 39.9252 19.7734 39.1413 19.7734 37.9131C19.7734 37.3841 19.5151 36.895 19.1297 36.5325C19.0751 36.481 19.0211 36.4287 18.968 36.3756C18.2821 35.6897 17.7381 34.8755 17.3669 33.9794C16.9957 33.0833 16.8047 32.1229 16.8047 31.1529C16.8047 30.183 16.9957 29.2226 17.3669 28.3265C17.7381 27.4304 18.2821 26.6162 18.968 25.9303C19.0211 25.8772 19.0751 25.8249 19.1297 25.7734C19.5151 25.4109 19.7734 24.9218 19.7734 24.3928Z" fill="white"/>
<path d="M13.4494 20.4108L11.328 18.2895L13.4494 20.4108ZM9 31.1525L12 31.1525L12 31.1525L9 31.1525ZM13.4494 41.8942L15.5707 39.7729L15.5707 39.7729L13.4494 41.8942ZM11.328 44.0155L9.20672 46.1368L11.328 44.0155ZM11.328 18.2895L9.20672 16.1681L9.20672 16.1681L11.328 18.2895ZM16.8467 23.809L14.7253 21.6877L14.7253 21.6877L16.8467 23.809ZM14.5953 27.1784L17.3669 28.3265L17.3669 28.3265L14.5953 27.1784ZM17.3669 33.9794L14.5953 35.1275L14.5953 35.1275L17.3669 33.9794ZM17.3669 28.3265L14.5953 27.1784L14.5953 27.1784L17.3669 28.3265ZM19.1297 36.5325L17.0741 38.7175L19.1297 36.5325ZM17.5519 39.1402L15.6343 41.4473L17.5519 39.1402ZM17.8906 48.2176L16.8515 51.0319L17.8906 48.2176ZM17.8906 14.0873L16.8515 11.273L17.8906 14.0873ZM19.1297 25.7734L17.0741 23.5884L19.1297 25.7734ZM18.6957 16.9902L17.6104 14.1934L18.6957 16.9902ZM15.5707 22.5321C16.7799 21.3229 18.2168 20.394 19.7809 19.7871L17.6104 14.1934C15.2768 15.0989 13.1324 16.4851 11.328 18.2895L15.5707 22.5321ZM12 31.1525C12 27.9192 13.2844 24.8184 15.5707 22.5321L11.328 18.2895C7.91655 21.7009 6 26.3279 6 31.1525L12 31.1525ZM15.5707 39.7729C13.2844 37.4866 12 34.3858 12 31.1525L6 31.1525C6 35.9771 7.91655 40.604 11.328 44.0155L15.5707 39.7729ZM19.781 42.5179C18.2168 41.911 16.7799 40.9821 15.5707 39.7729L11.328 44.0155C13.1324 45.8198 15.2768 47.206 17.6104 48.1115L19.781 42.5179ZM18.9297 45.4033C16.89 44.6502 15.0162 43.461 13.4494 41.8942L9.20672 46.1368C11.3925 48.3226 14.0067 49.9816 16.8515 51.0319L18.9297 45.4033ZM13.4494 41.8942C10.6005 39.0453 9 35.1814 9 31.1525L3 31.1525C3 36.7727 5.23262 42.1627 9.20672 46.1368L13.4494 41.8942ZM9 31.1525C9 27.1236 10.6005 23.2597 13.4494 20.4108L9.20672 16.1681C5.23262 20.1422 3 25.5323 3 31.1525L9 31.1525ZM13.4494 20.4108C15.0162 18.8439 16.89 17.6547 18.9297 16.9016L16.8515 11.273C14.0066 12.3234 11.3925 13.9824 9.20672 16.1681L13.4494 20.4108ZM15.6343 20.8586C15.3193 21.1204 15.016 21.397 14.7253 21.6877L18.968 25.9303C19.1283 25.7699 19.2957 25.6173 19.4695 25.4729L15.6343 20.8586ZM14.7253 21.6877C13.4823 22.9307 12.4963 24.4063 11.8236 26.0304L17.3669 28.3265C17.7381 27.4304 18.2821 26.6162 18.968 25.9303L14.7253 21.6877ZM11.8236 26.0304C11.1509 27.6544 10.8047 29.3951 10.8047 31.153L16.8047 31.1529C16.8047 30.183 16.9957 29.2226 17.3669 28.3265L11.8236 26.0304ZM10.8047 31.153C10.8047 32.9108 11.1509 34.6515 11.8236 36.2755L17.3669 33.9794C16.9957 33.0833 16.8047 32.1229 16.8047 31.1529L10.8047 31.153ZM11.8236 36.2755C12.4963 37.8996 13.4823 39.3752 14.7253 40.6182L18.968 36.3756C18.2821 35.6897 17.7381 34.8755 17.3669 33.9794L11.8236 36.2755ZM14.7253 40.6182C15.016 40.9089 15.3193 41.1855 15.6343 41.4473L19.4695 36.833C19.2957 36.6886 19.1283 36.536 18.968 36.3756L14.7253 40.6182ZM16.8467 38.4969C16.9214 38.5717 16.9972 38.6452 17.0741 38.7175L21.1854 34.3474C21.1529 34.3169 21.1209 34.2858 21.0893 34.2543L16.8467 38.4969ZM14.5953 35.1275C15.1172 36.3875 15.8822 37.5325 16.8467 38.4969L21.0893 34.2543C20.682 33.847 20.359 33.3635 20.1385 32.8314L14.5953 35.1275ZM13.8047 31.1529C13.8047 32.5169 14.0733 33.8674 14.5953 35.1275L20.1385 32.8314C19.9181 32.2992 19.8047 31.7289 19.8047 31.1529L13.8047 31.1529ZM14.5953 27.1784C14.0733 28.4385 13.8047 29.7891 13.8047 31.1529L19.8047 31.1529C19.8047 30.577 19.9181 30.0067 20.1385 29.4745L14.5953 27.1784ZM16.8467 23.809C15.8822 24.7734 15.1172 25.9184 14.5953 27.1784L20.1385 29.4745C20.359 28.9424 20.682 28.4589 21.0893 28.0516L16.8467 23.809ZM17.0741 23.5884C16.9972 23.6607 16.9214 23.7342 16.8467 23.809L21.0893 28.0516C21.1209 28.0201 21.1529 27.989 21.1854 27.9585L17.0741 23.5884ZM22.7734 37.9131C22.7734 36.3842 22.035 35.1468 21.1854 34.3474L17.0741 38.7175C16.9951 38.6432 16.7734 38.3839 16.7734 37.9131L22.7734 37.9131ZM19.4695 25.4729C19.2446 25.6598 18.9102 25.8179 18.5075 25.8462C18.1204 25.8734 17.7794 25.7733 17.5218 25.6252C17.0167 25.3348 16.7734 24.8392 16.7734 24.3928L22.7734 24.3928C22.7734 22.7182 21.8917 21.2165 20.512 20.4234C19.0551 19.5859 17.1296 19.6158 15.6343 20.8586L19.4695 25.4729ZM15.6343 41.4473C17.1296 42.6901 19.0551 42.72 20.512 41.8825C21.8917 41.0894 22.7734 39.5877 22.7734 37.9131L16.7734 37.9131C16.7734 37.4667 17.0167 36.9711 17.5218 36.6807C17.7794 36.5326 18.1204 36.4326 18.5075 36.4597C18.9102 36.488 19.2446 36.6461 19.4695 36.833L15.6343 41.4473ZM16.7734 46.8276C16.7734 46.3657 16.9966 45.9197 17.3811 45.6305C17.7855 45.3264 18.3773 45.1994 18.9297 45.4033L16.8515 51.0319C19.9848 52.1888 22.7734 49.66 22.7734 46.8276L16.7734 46.8276ZM18.9297 16.9016C18.3773 17.1056 17.7855 16.9786 17.3811 16.6744C16.9966 16.3853 16.7734 15.9392 16.7734 15.4774L22.7734 15.4774C22.7734 12.645 19.9848 10.1162 16.8515 11.273L18.9297 16.9016ZM17.6104 48.1115C17.2109 47.9565 16.7734 47.5152 16.7734 46.8276L22.7734 46.8276C22.7734 44.7851 21.4436 43.1631 19.781 42.5179L17.6104 48.1115ZM21.1854 27.9585C22.035 27.1591 22.7734 25.9217 22.7734 24.3928L16.7734 24.3928C16.7734 23.922 16.9951 23.6627 17.0741 23.5884L21.1854 27.9585ZM19.7809 19.7871C21.4436 19.1419 22.7734 17.5199 22.7734 15.4774L16.7734 15.4774C16.7734 14.7898 17.2109 14.3485 17.6104 14.1934L19.7809 19.7871Z" fill="#404D5B" mask="url(#path-3-outside-1_0_1300)"/>
</g>
<defs>
<clipPath id="clip0_0_1300">
<rect width="70" height="70" rx="35" fill="white"/>
</clipPath>
</defs>
</svg>
