<svg width="70" height="70" viewBox="0 0 70 70" fill="none" xmlns="http://www.w3.org/2000/svg">
<g clip-path="url(#clip0_0_1253)">
<rect width="70" height="70" rx="35" fill="#404D5B"/>
<path d="M8.16134 70C6.95178 63.4792 3.53085 47.3925 5.70995 42.0895C4.62018 32.3208 5.68575 29.53 8.16108 29.53M8.16108 29.53C7.88856 27.018 8.32404 21.9383 12.2461 21.715M8.16108 29.53C8.12822 30.6319 8.5875 33.2836 10.6875 35.0746M12.2461 21.715C12.3369 20.0404 13.3356 16.9144 16.604 17.8075M12.2461 21.715C12.3099 22.8477 11.5625 25.6716 14.1875 30.597M16.604 17.8075C16.3316 15.4815 16.8219 11.1086 20.9619 12.2251M16.604 17.8075C16.6735 18.8443 17.25 22.0896 18.5625 27.0149M20.9619 12.2251C22.8685 10.2714 27.7711 7.81536 32.129 13.6207C37.5763 20.8775 33.2184 21.1566 41.3894 27.8551C55.0078 39.0193 39.4829 38.7402 40.0276 70M20.9619 12.2251C17 16.5 27 20 29.5 28.5" stroke="white" stroke-width="3"/>
<mask id="path-3-outside-1_0_1253" maskUnits="userSpaceOnUse" x="41.9805" y="8.83787" width="30.1889" height="45.7453" fill="black">
<rect fill="white" x="41.9805" y="8.83787" width="30.1889" height="45.7453"/>
<path fill-rule="evenodd" clip-rule="evenodd" d="M54.6258 48.7553C54.4504 48.1009 54.7288 47.415 55.2756 47.0149C56.9636 45.7797 58.3948 44.1974 59.4608 42.3509C61.4753 38.8617 62.0212 34.7152 60.9784 30.8236C59.9357 26.932 57.3897 23.614 53.9005 21.5995C52.054 20.5334 50.0234 19.8786 47.944 19.653C47.2703 19.5798 46.6864 19.1251 46.511 18.4706C46.2519 17.5036 46.9726 16.549 47.9695 16.6406C50.5635 16.879 53.1012 17.6739 55.4005 19.0014C59.5787 21.4137 62.6275 25.387 63.8762 30.0472C65.1249 34.7073 64.4712 39.6727 62.0589 43.8509C60.7314 46.1502 58.9312 48.1074 56.8039 49.6109C55.9864 50.1887 54.8849 49.7224 54.6258 48.7553ZM52.3185 40.1446C52.6363 41.3307 54.0721 41.7575 54.7815 40.7553C54.966 40.4947 55.1387 40.2251 55.299 39.9476C55.9809 38.7664 56.4236 37.4625 56.6016 36.1103C56.7796 34.758 56.6896 33.384 56.3366 32.0665C55.9835 30.7491 55.3745 29.5141 54.5442 28.4321C53.7139 27.35 52.6787 26.4421 51.4975 25.7602C51.2199 25.5999 50.9356 25.4529 50.6454 25.3194C49.53 24.8062 48.5 25.8937 48.8178 27.0797C48.9548 27.591 49.3313 27.9966 49.7976 28.2469C49.8647 28.283 49.9314 28.3201 49.9975 28.3582C50.8375 28.8432 51.5737 29.4889 52.1642 30.2584C52.7546 31.0279 53.1877 31.9061 53.4388 32.843C53.6898 33.7799 53.7539 34.757 53.6273 35.7187C53.5007 36.6803 53.1859 37.6076 52.7009 38.4476C52.6628 38.5137 52.6236 38.5791 52.5835 38.6439C52.3048 39.0939 52.1816 39.6334 52.3185 40.1446Z"/>
</mask>
<path fill-rule="evenodd" clip-rule="evenodd" d="M54.6258 48.7553C54.4504 48.1009 54.7288 47.415 55.2756 47.0149C56.9636 45.7797 58.3948 44.1974 59.4608 42.3509C61.4753 38.8617 62.0212 34.7152 60.9784 30.8236C59.9357 26.932 57.3897 23.614 53.9005 21.5995C52.054 20.5334 50.0234 19.8786 47.944 19.653C47.2703 19.5798 46.6864 19.1251 46.511 18.4706C46.2519 17.5036 46.9726 16.549 47.9695 16.6406C50.5635 16.879 53.1012 17.6739 55.4005 19.0014C59.5787 21.4137 62.6275 25.387 63.8762 30.0472C65.1249 34.7073 64.4712 39.6727 62.0589 43.8509C60.7314 46.1502 58.9312 48.1074 56.8039 49.6109C55.9864 50.1887 54.8849 49.7224 54.6258 48.7553ZM52.3185 40.1446C52.6363 41.3307 54.0721 41.7575 54.7815 40.7553C54.966 40.4947 55.1387 40.2251 55.299 39.9476C55.9809 38.7664 56.4236 37.4625 56.6016 36.1103C56.7796 34.758 56.6896 33.384 56.3366 32.0665C55.9835 30.7491 55.3745 29.5141 54.5442 28.4321C53.7139 27.35 52.6787 26.4421 51.4975 25.7602C51.2199 25.5999 50.9356 25.4529 50.6454 25.3194C49.53 24.8062 48.5 25.8937 48.8178 27.0797C48.9548 27.591 49.3313 27.9966 49.7976 28.2469C49.8647 28.283 49.9314 28.3201 49.9975 28.3582C50.8375 28.8432 51.5737 29.4889 52.1642 30.2584C52.7546 31.0279 53.1877 31.9061 53.4388 32.843C53.6898 33.7799 53.7539 34.757 53.6273 35.7187C53.5007 36.6803 53.1859 37.6076 52.7009 38.4476C52.6628 38.5137 52.6236 38.5791 52.5835 38.6439C52.3048 39.0939 52.1816 39.6334 52.3185 40.1446Z" fill="white"/>
<path d="M59.4608 42.3509L62.0589 43.8509L59.4608 42.3509ZM60.9784 30.8236L58.0807 31.6001L60.9784 30.8236ZM53.9005 21.5995L52.4005 24.1976L52.4005 24.1976L53.9005 21.5995ZM55.4005 19.0014L53.9005 21.5995L55.4005 19.0014ZM62.0589 43.8509L64.657 45.3509L64.657 45.3509L62.0589 43.8509ZM55.299 39.9476L52.7009 38.4476L55.299 39.9476ZM56.6016 36.1103L53.6273 35.7187L56.6016 36.1103ZM52.1642 30.2584L54.5442 28.4321L54.5442 28.4321L52.1642 30.2584ZM53.6273 35.7187L56.6016 36.1103L56.6016 36.1103L53.6273 35.7187ZM54.7815 40.7553L57.2301 42.4887L54.7815 40.7553ZM50.6454 25.3194L51.8993 22.594L50.6454 25.3194ZM56.8039 49.6109L58.5354 52.0608L56.8039 49.6109ZM47.944 19.653L48.2677 16.6705L47.944 19.653ZM52.5835 38.6439L50.0331 37.0642L52.5835 38.6439ZM55.2756 47.0149L57.0472 49.436L55.2756 47.0149ZM56.8628 40.8509C56.0072 42.3327 54.8588 43.6025 53.504 44.5939L57.0472 49.436C59.0684 47.9569 60.7823 46.062 62.0589 43.8509L56.8628 40.8509ZM58.0807 31.6001C58.9175 34.7232 58.4794 38.0508 56.8628 40.8509L62.0589 43.8509C64.4712 39.6727 65.1249 34.7073 63.8762 30.0472L58.0807 31.6001ZM52.4005 24.1976C55.2006 25.8142 57.2438 28.477 58.0807 31.6001L63.8762 30.0472C62.6275 25.387 59.5787 21.4137 55.4005 19.0014L52.4005 24.1976ZM47.6203 22.6354C49.2893 22.8166 50.9187 23.342 52.4005 24.1976L55.4005 19.0014C53.1894 17.7248 50.7576 16.9407 48.2677 16.6705L47.6203 22.6354ZM47.695 19.628C49.8614 19.8271 51.9804 20.4909 53.9005 21.5995L56.9005 16.4033C54.222 14.8569 51.2657 13.9309 48.2441 13.6532L47.695 19.628ZM53.9005 21.5995C57.3897 23.614 59.9357 26.932 60.9784 30.8236L66.774 29.2707C65.3194 23.842 61.7678 19.2135 56.9005 16.4033L53.9005 21.5995ZM60.9784 30.8236C62.0212 34.7152 61.4753 38.8617 59.4608 42.3509L64.657 45.3509C67.4671 40.4836 68.2286 34.6994 66.774 29.2707L60.9784 30.8236ZM59.4608 42.3509C58.3523 44.271 56.8491 45.9054 55.0724 47.161L58.5354 52.0608C61.0133 50.3095 63.1106 48.0294 64.657 45.3509L59.4608 42.3509ZM57.2301 42.4887C57.4679 42.1527 57.6905 41.8053 57.8971 41.4476L52.7009 38.4476C52.587 38.645 52.4641 38.8366 52.3329 39.022L57.2301 42.4887ZM57.8971 41.4476C58.776 39.9252 59.3465 38.2447 59.5759 36.5018L53.6273 35.7187C53.5007 36.6803 53.1859 37.6076 52.7009 38.4476L57.8971 41.4476ZM59.5759 36.5018C59.8054 34.759 59.6893 32.9881 59.2343 31.2901L53.4388 32.843C53.6898 33.7799 53.7539 34.757 53.6273 35.7187L59.5759 36.5018ZM59.2343 31.2901C58.7794 29.5921 57.9944 28.0004 56.9243 26.6058L52.1642 30.2584C52.7546 31.0279 53.1877 31.9061 53.4388 32.843L59.2343 31.2901ZM56.9243 26.6058C55.8542 25.2112 54.5198 24.041 52.9975 23.1621L49.9975 28.3582C50.8375 28.8432 51.5737 29.4889 52.1642 30.2584L56.9243 26.6058ZM52.9975 23.1621C52.6398 22.9555 52.2733 22.766 51.8993 22.594L49.3915 28.0448C49.5979 28.1397 49.8001 28.2443 49.9975 28.3582L52.9975 23.1621ZM48.3788 30.8902C48.4187 30.9116 48.4582 30.9336 48.4975 30.9563L51.4975 25.7602C51.4045 25.7065 51.3108 25.6543 51.2164 25.6036L48.3788 30.8902ZM48.4975 30.9563C48.9963 31.2443 49.4335 31.6277 49.7841 32.0846L54.5442 28.4321C53.7139 27.35 52.6787 26.4421 51.4975 25.7602L48.4975 30.9563ZM49.7841 32.0846C50.1347 32.5416 50.3919 33.0631 50.541 33.6195L56.3366 32.0665C55.9835 30.7491 55.3745 29.5141 54.5442 28.4321L49.7841 32.0846ZM50.541 33.6195C50.6901 34.1758 50.7281 34.7561 50.6529 35.3271L56.6016 36.1103C56.7796 34.758 56.6896 33.384 56.3366 32.0665L50.541 33.6195ZM50.6529 35.3271C50.5777 35.8981 50.3908 36.4488 50.1028 36.9476L55.299 39.9476C55.9809 38.7664 56.4236 37.4625 56.6016 36.1103L50.6529 35.3271ZM50.1028 36.9476C50.0802 36.9868 50.0569 37.0257 50.0331 37.0642L55.1338 40.2237C55.1903 40.1326 55.2453 40.0405 55.299 39.9476L50.1028 36.9476ZM45.92 27.8562C46.3159 29.3338 47.3504 30.3382 48.3788 30.8902L51.2164 25.6036C51.3121 25.655 51.5936 25.8482 51.7156 26.3033L45.92 27.8562ZM52.3329 39.022C52.5019 38.7833 52.784 38.5442 53.1656 38.4128C53.5325 38.2866 53.8876 38.2951 54.1747 38.3715C54.7376 38.5213 55.1008 38.937 55.2163 39.3682L49.4208 40.9211C49.8541 42.5383 51.094 43.7604 52.6316 44.1696C54.2551 44.6017 56.107 44.0752 57.2301 42.4887L52.3329 39.022ZM51.8993 22.594C50.1334 21.7815 48.2664 22.2515 47.0764 23.4374C45.9494 24.5606 45.4867 26.2389 45.92 27.8562L51.7156 26.3033C51.8311 26.7345 51.7245 27.2761 51.3119 27.6873C51.1014 27.897 50.7981 28.0819 50.4173 28.156C50.0212 28.233 49.6573 28.167 49.3915 28.0448L51.8993 22.594ZM49.4088 17.6941C49.5283 18.1402 49.4282 18.6288 49.1318 19.0075C48.8199 19.406 48.2813 19.6819 47.695 19.628L48.2441 13.6532C44.9186 13.3476 42.8802 16.5115 43.6132 19.247L49.4088 17.6941ZM55.0724 47.161C55.5532 46.8212 56.1577 46.7908 56.627 46.98C57.073 47.1598 57.404 47.5328 57.5235 47.9789L51.728 49.5318C52.461 52.2673 55.8083 53.9882 58.5354 52.0608L55.0724 47.161ZM48.2677 16.6705C48.6938 16.7167 49.2308 17.0298 49.4088 17.6941L43.6132 19.247C44.142 21.2204 45.8469 22.443 47.6203 22.6354L48.2677 16.6705ZM50.0331 37.0642C49.4185 38.0565 49.0248 39.4435 49.4208 40.9211L55.2163 39.3682C55.3383 39.8233 55.1911 40.1313 55.1338 40.2237L50.0331 37.0642ZM53.504 44.5939C52.0645 45.6472 51.1992 47.5585 51.728 49.5318L57.5235 47.9789C57.7016 48.6433 57.3931 49.1829 57.0472 49.436L53.504 44.5939Z" fill="#404D5B" mask="url(#path-3-outside-1_0_1253)"/>
</g>
<defs>
<clipPath id="clip0_0_1253">
<rect width="70" height="70" rx="35" fill="white"/>
</clipPath>
</defs>
</svg>
