<svg width="70" height="70" viewBox="0 0 70 70" fill="none" xmlns="http://www.w3.org/2000/svg">
<g clip-path="url(#clip0_0_1325)">
<rect width="70" height="70" rx="35" fill="#404D5B"/>
<path d="M13 4C16.1369 12.6486 21.4696 32.4595 17.7053 42.5135C14.0083 50.6216 13 55.8919 13 64" stroke="white" stroke-width="3" stroke-linecap="round"/>
<path d="M57 4C53.8631 12.6486 48.5304 32.4595 52.2947 42.5135C55.9917 50.6216 57 55.8919 57 64" stroke="white" stroke-width="3" stroke-linecap="round"/>
<path d="M35 5V44" stroke="white" stroke-width="3" stroke-linecap="round"/>
<path d="M14.8 52.6417C14.8 52.6417 26.7203 51.0375 34.4 51.0007C42.5468 50.9616 55.2 52.6417 55.2 52.6417M14 56.7436C16.6667 57.5641 29.3659 65.359 30.9024 71M56 56.7436C52.5333 57.8376 40.6341 65.8718 39.0976 71" stroke="white" stroke-width="3" stroke-linecap="round"/>
<mask id="path-6-outside-1_0_1325" maskUnits="userSpaceOnUse" x="21.0908" y="10" width="28" height="28" fill="black">
<rect fill="white" x="21.0908" y="10" width="28" height="28"/>
<path fill-rule="evenodd" clip-rule="evenodd" d="M29.4313 29.1015C26.3564 26.0964 26.3564 21.2242 29.4313 18.2191C32.5063 15.2141 37.4918 15.2141 40.5668 18.2191C43.6417 21.2242 43.6417 26.0964 40.5668 29.1015C37.4918 32.1066 32.5063 32.1066 29.4313 29.1015ZM27.2858 31.1983C23.0258 27.0352 23.0258 20.2854 27.2858 16.1223C31.5457 11.9592 38.4524 11.9592 42.7123 16.1223C46.9722 20.2854 46.9722 27.0352 42.7123 31.1983C38.4524 35.3614 31.5457 35.3614 27.2858 31.1983ZM32.7387 25.8672C31.4915 24.6484 31.4915 22.6722 32.7387 21.4534C33.9859 20.2346 36.008 20.2346 37.2552 21.4534C38.5023 22.6722 38.5023 24.6484 37.2552 25.8672C36.008 27.086 33.9859 27.086 32.7387 25.8672ZM30.5932 27.964C28.161 25.5871 28.161 21.7335 30.5932 19.3566C33.0253 16.9797 36.9686 16.9797 39.4007 19.3566C41.8329 21.7335 41.8329 25.5871 39.4007 27.964C36.9686 30.3409 33.0253 30.3409 30.5932 27.964Z"/>
</mask>
<path fill-rule="evenodd" clip-rule="evenodd" d="M29.4313 29.1015C26.3564 26.0964 26.3564 21.2242 29.4313 18.2191C32.5063 15.2141 37.4918 15.2141 40.5668 18.2191C43.6417 21.2242 43.6417 26.0964 40.5668 29.1015C37.4918 32.1066 32.5063 32.1066 29.4313 29.1015ZM27.2858 31.1983C23.0258 27.0352 23.0258 20.2854 27.2858 16.1223C31.5457 11.9592 38.4524 11.9592 42.7123 16.1223C46.9722 20.2854 46.9722 27.0352 42.7123 31.1983C38.4524 35.3614 31.5457 35.3614 27.2858 31.1983ZM32.7387 25.8672C31.4915 24.6484 31.4915 22.6722 32.7387 21.4534C33.9859 20.2346 36.008 20.2346 37.2552 21.4534C38.5023 22.6722 38.5023 24.6484 37.2552 25.8672C36.008 27.086 33.9859 27.086 32.7387 25.8672ZM30.5932 27.964C28.161 25.5871 28.161 21.7335 30.5932 19.3566C33.0253 16.9797 36.9686 16.9797 39.4007 19.3566C41.8329 21.7335 41.8329 25.5871 39.4007 27.964C36.9686 30.3409 33.0253 30.3409 30.5932 27.964Z" fill="white"/>
<path d="M29.4313 18.2191L27.3345 16.0736H27.3345L29.4313 18.2191ZM29.4313 29.1015L31.5281 26.9559L31.5281 26.9559L29.4313 29.1015ZM40.5668 18.2191L42.6636 16.0736V16.0736L40.5668 18.2191ZM40.5668 29.1015L42.6636 31.247V31.247L40.5668 29.1015ZM27.2858 16.1223L25.189 13.9768V13.9768L27.2858 16.1223ZM27.2858 31.1983L25.189 33.3438H25.189L27.2858 31.1983ZM42.7123 16.1223L44.8091 13.9768L42.7123 16.1223ZM42.7123 31.1983L44.8091 33.3438L42.7123 31.1983ZM32.7387 21.4534L30.6419 19.3078L30.6419 19.3078L32.7387 21.4534ZM32.7387 25.8672L30.6419 28.0128H30.6419L32.7387 25.8672ZM37.2552 21.4534L35.1584 23.599L35.1584 23.599L37.2552 21.4534ZM30.5932 19.3566L32.69 21.5022L32.69 21.5022L30.5932 19.3566ZM39.4007 27.964L37.3039 25.8184H37.3039L39.4007 27.964ZM27.3345 16.0736C23.0553 20.2555 23.0553 27.0651 27.3345 31.247L31.5281 26.9559C29.6574 25.1277 29.6574 22.1929 31.5281 20.3647L27.3345 16.0736ZM42.6636 16.0736C38.4228 11.9292 31.5752 11.9292 27.3345 16.0736L31.5281 20.3647C33.4373 18.4989 36.5607 18.4989 38.47 20.3647L42.6636 16.0736ZM42.6636 31.247C46.9428 27.0651 46.9428 20.2555 42.6636 16.0736L38.47 20.3647C40.3407 22.1929 40.3407 25.1277 38.47 26.9559L42.6636 31.247ZM27.3345 31.247C31.5752 35.3914 38.4228 35.3914 42.6636 31.247L38.47 26.9559C36.5607 28.8217 33.4373 28.8217 31.5281 26.9559L27.3345 31.247ZM25.189 13.9768C19.7248 19.3168 19.7248 28.0038 25.189 33.3438L29.3826 29.0527C26.3269 26.0665 26.3269 21.2541 29.3826 18.2679L25.189 13.9768ZM44.8091 13.9768C39.3834 8.67441 30.6146 8.67441 25.189 13.9768L29.3826 18.2679C32.4767 15.244 37.5213 15.244 40.6155 18.2679L44.8091 13.9768ZM44.8091 33.3438C50.2733 28.0038 50.2733 19.3168 44.8091 13.9768L40.6155 18.2679C43.6712 21.2541 43.6712 26.0665 40.6155 29.0527L44.8091 33.3438ZM25.189 33.3438C30.6146 38.6462 39.3834 38.6462 44.8091 33.3438L40.6155 29.0527C37.5213 32.0766 32.4767 32.0766 29.3826 29.0527L25.189 33.3438ZM30.6419 19.3078C28.1905 21.7036 28.1905 25.617 30.6419 28.0128L34.8355 23.7216C34.8161 23.7026 34.8103 23.6902 34.8081 23.685C34.8051 23.6778 34.8033 23.6695 34.8033 23.6603C34.8033 23.6511 34.8051 23.6428 34.8081 23.6356C34.8103 23.6304 34.8161 23.618 34.8355 23.599L30.6419 19.3078ZM39.352 19.3079C36.939 16.9498 33.0548 16.9498 30.6419 19.3078L34.8355 23.599C34.8692 23.5661 34.9212 23.5393 34.9969 23.5393C35.0727 23.5393 35.1247 23.5661 35.1584 23.599L39.352 19.3079ZM39.352 28.0128C41.8034 25.617 41.8034 21.7036 39.352 19.3078L35.1584 23.599C35.1778 23.618 35.1836 23.6304 35.1858 23.6356C35.1888 23.6428 35.1905 23.6511 35.1905 23.6603C35.1905 23.6695 35.1888 23.6778 35.1858 23.685C35.1836 23.6902 35.1778 23.7026 35.1584 23.7216L39.352 28.0128ZM30.6419 28.0128C33.0548 30.3708 36.939 30.3708 39.352 28.0128L35.1584 23.7216C35.1247 23.7545 35.0727 23.7813 34.9969 23.7813C34.9212 23.7813 34.8692 23.7545 34.8355 23.7216L30.6419 28.0128ZM28.4964 17.211C24.8599 20.7648 24.8599 26.5558 28.4964 30.1096L32.69 25.8184C31.4621 24.6185 31.4621 22.7021 32.69 21.5022L28.4964 17.211ZM41.4975 17.2111C37.8996 13.6949 32.0942 13.6949 28.4964 17.211L32.69 21.5022C33.9564 20.2646 36.0375 20.2646 37.3039 21.5022L41.4975 17.2111ZM41.4975 30.1096C45.1339 26.5558 45.1339 20.7648 41.4975 17.2111L37.3039 21.5022C38.5318 22.7021 38.5318 24.6185 37.3039 25.8184L41.4975 30.1096ZM28.4964 30.1096C32.0942 33.6257 37.8996 33.6257 41.4975 30.1096L37.3039 25.8184C36.0375 27.0561 33.9564 27.0561 32.69 25.8184L28.4964 30.1096Z" fill="#404D5B" mask="url(#path-6-outside-1_0_1325)"/>
</g>
<defs>
<clipPath id="clip0_0_1325">
<rect width="70" height="70" rx="35" fill="white"/>
</clipPath>
</defs>
</svg>
