<svg width="27" height="38" viewBox="0 0 27 38" fill="none" xmlns="http://www.w3.org/2000/svg">
<path d="M1.10742 35.255V38H27V34.5552H6.67271L19.248 21.9603C20.9004 20.3097 22.1484 18.8385 22.9922 17.5467C23.8711 16.2191 24.4688 14.9632 24.7852 13.779C25.1367 12.5949 25.3125 11.3928 25.3125 10.1728C25.3125 8.09159 24.8027 6.27951 23.7832 4.73654C22.7988 3.19358 21.3926 2.02739 19.5645 1.23796C17.7363 0.412654 15.5742 0 13.0781 0C10.3008 0 7.78711 0.466478 5.53711 1.39944C3.28711 2.33239 1.44141 3.66006 0 5.38244L2.68945 7.75071C3.88477 6.31539 5.30859 5.25684 6.96094 4.57507C8.64844 3.8933 10.582 3.55241 12.7617 3.55241C15.6094 3.55241 17.7539 4.18036 19.1953 5.43626C20.6719 6.69216 21.4102 8.41454 21.4102 10.6034C21.4102 11.4287 21.2871 12.3078 21.041 13.2408C20.7949 14.1737 20.3203 15.1785 19.6172 16.255C18.9141 17.2956 17.8594 18.5156 16.4531 19.915L1.10742 35.255Z" fill="white"/>
</svg>
