<svg width="27" height="35" viewBox="0 0 27 35" fill="none" xmlns="http://www.w3.org/2000/svg">
<path d="M5.76285 33.8102C8.18182 34.6034 10.7431 35 13.4466 35C16.4704 35 18.9783 34.5538 20.9704 33.6615C22.998 32.7691 24.5099 31.5463 25.5059 29.9929C26.502 28.4396 27 26.6879 27 24.738C27 21.8296 25.8794 19.45 23.6383 17.5992C21.6651 15.9433 18.7808 15.0282 14.9854 14.8538L25.5593 2.52833V0H1.54743V3.17281H20.6333L10.2984 15.2195V17.847H12.9664C16.4526 17.847 18.996 18.475 20.5968 19.7309C22.2332 20.9868 23.0514 22.6723 23.0514 24.7875C23.0514 26.9027 22.2154 28.5883 20.5435 29.8442C18.9071 31.1001 16.5415 31.728 13.4466 31.728C11.0277 31.728 8.78656 31.348 6.72332 30.5878C4.69565 29.8277 3.07707 28.8692 1.86759 27.7125L0 30.5382C1.4585 31.8933 3.37945 32.9839 5.76285 33.8102Z" fill="white"/>
</svg>
