<svg width="124" height="19" viewBox="0 0 124 19" fill="none" xmlns="http://www.w3.org/2000/svg">
<path d="M9.43875 0.406074C9.61541 -0.135358 10.3846 -0.135358 10.5612 0.406074L12.5174 6.40132C12.5964 6.64345 12.823 6.80739 13.0786 6.80739H19.4087C19.9804 6.80739 20.2181 7.53588 19.7556 7.87051L14.6344 11.5758C14.4276 11.7254 14.3411 11.9907 14.4201 12.2328L16.3762 18.2281C16.5528 18.7695 15.9305 19.2197 15.468 18.8851L10.3469 15.1798C10.14 15.0302 9.85996 15.0302 9.65313 15.1798L4.53195 18.8851C4.06946 19.2197 3.44717 18.7695 3.62383 18.2281L5.57995 12.2328C5.65895 11.9907 5.5724 11.7254 5.36557 11.5758L0.244392 7.87051C-0.218102 7.53588 0.0195886 6.80739 0.591263 6.80739H6.92139C7.17705 6.80739 7.40363 6.64345 7.48264 6.40132L9.43875 0.406074Z" fill="#F3A83F"/>
<path d="M35.4388 0.406074C35.6154 -0.135358 36.3846 -0.135358 36.5612 0.406074L38.5174 6.40132C38.5964 6.64345 38.823 6.80739 39.0786 6.80739H45.4087C45.9804 6.80739 46.2181 7.53588 45.7556 7.87051L40.6344 11.5758C40.4276 11.7254 40.3411 11.9907 40.4201 12.2328L42.3762 18.2281C42.5528 18.7695 41.9305 19.2197 41.468 18.8851L36.3469 15.1798C36.14 15.0302 35.86 15.0302 35.6531 15.1798L30.532 18.8851C30.0695 19.2197 29.4472 18.7695 29.6238 18.2281L31.5799 12.2328C31.659 11.9907 31.5724 11.7254 31.3656 11.5758L26.2444 7.87051C25.7819 7.53588 26.0196 6.80739 26.5913 6.80739H32.9214C33.177 6.80739 33.4036 6.64345 33.4826 6.40132L35.4388 0.406074Z" fill="#F3A83F"/>
<path d="M61.4388 0.406074C61.6154 -0.135358 62.3846 -0.135358 62.5612 0.406074L64.5174 6.40132C64.5964 6.64345 64.823 6.80739 65.0786 6.80739H71.4087C71.9804 6.80739 72.2181 7.53588 71.7556 7.87051L66.6344 11.5758C66.4276 11.7254 66.3411 11.9907 66.4201 12.2328L68.3762 18.2281C68.5528 18.7695 67.9305 19.2197 67.468 18.8851L62.3469 15.1798C62.14 15.0302 61.86 15.0302 61.6531 15.1798L56.532 18.8851C56.0695 19.2197 55.4472 18.7695 55.6238 18.2281L57.5799 12.2328C57.659 11.9907 57.5724 11.7254 57.3656 11.5758L52.2444 7.87051C51.7819 7.53588 52.0196 6.80739 52.5913 6.80739H58.9214C59.177 6.80739 59.4036 6.64345 59.4826 6.40132L61.4388 0.406074Z" fill="#F3A83F"/>
<path d="M87.4388 0.406074C87.6154 -0.135358 88.3846 -0.135358 88.5612 0.406074L90.5174 6.40132C90.5964 6.64345 90.823 6.80739 91.0786 6.80739H97.4087C97.9804 6.80739 98.2181 7.53588 97.7556 7.87051L92.6344 11.5758C92.4276 11.7254 92.3411 11.9907 92.4201 12.2328L94.3762 18.2281C94.5528 18.7695 93.9305 19.2197 93.468 18.8851L88.3469 15.1798C88.14 15.0302 87.86 15.0302 87.6531 15.1798L82.532 18.8851C82.0695 19.2197 81.4472 18.7695 81.6238 18.2281L83.5799 12.2328C83.659 11.9907 83.5724 11.7254 83.3656 11.5758L78.2444 7.87051C77.7819 7.53588 78.0196 6.80739 78.5913 6.80739H84.9214C85.177 6.80739 85.4036 6.64345 85.4826 6.40132L87.4388 0.406074Z" fill="#F3A83F"/>
<path d="M113.439 0.406074C113.615 -0.135358 114.385 -0.135358 114.561 0.406074L116.517 6.40132C116.596 6.64345 116.823 6.80739 117.079 6.80739H123.409C123.98 6.80739 124.218 7.53588 123.756 7.87051L118.634 11.5758C118.428 11.7254 118.341 11.9907 118.42 12.2328L120.376 18.2281C120.553 18.7695 119.931 19.2197 119.468 18.8851L114.347 15.1798C114.14 15.0302 113.86 15.0302 113.653 15.1798L108.532 18.8851C108.069 19.2197 107.447 18.7695 107.624 18.2281L109.58 12.2328C109.659 11.9907 109.572 11.7254 109.366 11.5758L104.244 7.87051C103.782 7.53588 104.02 6.80739 104.591 6.80739H110.921C111.177 6.80739 111.404 6.64345 111.483 6.40132L113.439 0.406074Z" fill="#708396"/>
</svg>
