<svg width="50" height="50" viewBox="0 0 50 50" fill="none" xmlns="http://www.w3.org/2000/svg">
<rect width="50" height="50" fill="#404D5B"/>
<path fill-rule="evenodd" clip-rule="evenodd" d="M50 0H0V38.5821C4.28747 35.9602 12.4003 30.7765 17.2693 26.2617C13.7292 13.625 22.9482 10.2819 30.1352 7.6756C32.8012 6.7088 35.1877 5.84339 36.5395 4.64258C36.9677 23.6841 30.5443 29.9837 19.5532 27.693C20.2044 27.0891 20.8251 26.5206 21.4185 25.9772C25.7486 22.0114 28.6217 19.3801 31.258 14.0915C24.5251 23.0255 16.3448 29.9895 9.76488 34.7626C10.6713 35.115 11.5527 35.4293 12.3853 35.6886C19.5236 28.3531 25.3774 33.3013 29.9409 37.1589C31.6338 38.5899 33.1491 39.8708 34.4866 40.3189C21.8148 48.0444 15.0591 46.1469 12.3121 37.7967C12.9732 38.0026 13.5987 38.2016 14.1966 38.3918L14.1973 38.3921C18.562 39.7809 21.4581 40.7024 26.0533 40.4257C19.4979 39.6084 13.3804 37.786 8.28328 35.8201C4.78935 38.2738 1.85637 40.0521 0 41.1176V50H50V0Z" fill="#F9F9F9"/>
</svg>
