<svg width="50" height="50" viewBox="0 0 50 50" fill="none" xmlns="http://www.w3.org/2000/svg">
<g clip-path="url(#clip0_105_4910)">
<rect width="50" height="50" fill="#F9F9F9"/>
<path fill-rule="evenodd" clip-rule="evenodd" d="M30.1352 7.67365C22.9482 10.2799 13.7292 13.623 17.2693 26.2598C10.4176 32.6129 -2.85742 40.2907 -2.85742 40.2907L-2.14371 42.2951C-2.14371 42.2951 2.22712 40.0713 8.28328 35.8181C13.3804 37.7841 19.4979 39.6064 26.0533 40.4238C21.4581 40.7004 18.562 39.7789 14.1973 38.3901C13.5992 38.1998 12.9735 38.0007 12.3121 37.7947C15.0591 46.1449 21.8148 48.0424 34.4866 40.317C33.1491 39.8688 31.6338 38.5879 29.9409 37.1569C25.3774 33.2993 19.5236 28.3511 12.3853 35.6866C11.5527 35.4273 10.6713 35.113 9.76488 34.7606C16.3448 29.9876 24.5251 23.0236 31.258 14.0896C28.6217 19.3781 25.7486 22.0095 21.4185 25.9752C20.8251 26.5187 20.2044 27.0872 19.5532 27.691C30.5443 29.9818 36.9677 23.6822 36.5395 4.64062C35.1877 5.84143 32.8012 6.70684 30.1352 7.67365Z" fill="#404D5B"/>
</g>
<defs>
<clipPath id="clip0_105_4910">
<rect width="50" height="50" fill="white"/>
</clipPath>
</defs>
</svg>
