<svg width="50" height="50" viewBox="0 0 50 50" fill="none" xmlns="http://www.w3.org/2000/svg">
<g clip-path="url(#clip0_105_4914)">
<rect width="50" height="50" fill="#F9F9F9"/>
<path fill-rule="evenodd" clip-rule="evenodd" d="M33.7411 8.20943L33.9098 14.1282L41.4588 13.5698L37.6881 20.1334L42.9508 22.8472L29.7964 28.4919L38.444 34.3093L33.7916 35.6629L35.9267 41.6731L29.88 39.9629L28.9094 44.7906L20.7756 33.8953L15.1718 40.8491L13.5362 31.7132L13.9853 31.431L17.6226 29.0154L16.2267 35.1028L16.6526 34.6869L18.7618 28.2987L19.7171 27.6722L21.6277 26.4193L30.34 35.9769L30.2386 35.5971L22.3759 25.9485L23.5383 25.1663L25.4489 23.9134L25.8142 23.6743L32.9201 24.0393L32.3898 23.6336L26.4851 23.2106L27.3595 22.6605L29.2701 21.4075L36.9126 16.3958L36.8459 16.2899L28.7981 21.0945L24.7743 23.4968L23.7683 24.0974L23.5529 19.2059L23.5515 18.985L22.7623 24.698L20.7504 25.8992L17.0297 14.603L16.7645 14.4002L19.6666 26.581L18.7799 27.1389L10.2123 26.6366L10.5427 26.7245L17.2399 28.0247L13.3187 30.3716L-1.24961 39.0829L-0.816357 39.7715L-0.405178 40.425L-3.49394 42.4833L-6.6832 39.3339L11.9523 30.1209L11.4552 29.7624L9.46675 28.3285L5.48979 25.4607L14.167 23.4226L7.76467 11.182L12.5369 12.3965L13.6123 6.20529L18.1063 10.7314L21.3401 7.12312L22.8792 17.6946L33.7411 8.20943Z" fill="#404D5B"/>
</g>
<defs>
<clipPath id="clip0_105_4914">
<rect width="50" height="50" fill="white"/>
</clipPath>
</defs>
</svg>
