<svg width="50" height="50" viewBox="0 0 50 50" fill="none" xmlns="http://www.w3.org/2000/svg">
<rect width="50" height="50" fill="#404D5B"/>
<path fill-rule="evenodd" clip-rule="evenodd" d="M50 0H0V36.0308L11.9519 30.122L11.4548 29.7635L9.46629 28.3296L5.48934 25.4618L14.1665 23.4236L7.76421 11.1831L12.5364 12.3976L13.6118 6.20637L18.1058 10.7324L21.3397 7.1242L22.8788 17.6957L33.7406 8.21052L33.9094 14.1292L41.4584 13.5708L37.6877 20.1345L42.9503 22.8483L29.7959 28.493L38.4435 34.3104L33.7911 35.6639L35.9263 41.6741L29.8795 39.964L28.9089 44.7917L20.7752 33.8964L15.1713 40.8502L13.5358 31.7143L13.9848 31.4321L17.6222 29.0165L16.2262 35.1038L16.6522 34.688L18.7614 28.2998L19.7167 27.6733L21.6273 26.4204L30.3396 35.978L30.2381 35.5982L22.3755 25.9496L23.5379 25.1674L25.4485 23.9145L25.8137 23.6754L32.9196 24.0404L32.3893 23.6346L26.4847 23.2117L27.3591 22.6616L29.2697 21.4086L36.9121 16.3969L36.8455 16.2909L28.7977 21.0956L24.7738 23.4979L23.7678 24.0985L23.5525 19.207L23.551 18.9861L22.7619 24.6991L20.7499 25.9003L17.0292 14.6041L16.7641 14.4012L19.6662 26.5821L18.7795 27.14L10.2119 26.6376L10.5422 26.7255L17.2395 28.0258L13.3183 30.3727L0 38.3365V50H50V0Z" fill="#F9F9F9"/>
</svg>
