<svg width="70" height="77" viewBox="0 0 70 77" fill="none" xmlns="http://www.w3.org/2000/svg">
<path d="M70 35C70 54.33 54.33 70 35 70C15.67 70 0 54.33 0 35C0 15.67 15.67 0 35 0C54.33 0 70 15.67 70 35Z" fill="#404D5B"/>
<rect x="9.71341" y="26.2867" width="52.0335" height="8.5932" rx="1.5" transform="rotate(9.33415 9.71341 26.2867)" stroke="white" stroke-width="3"/>
<path d="M18.8766 24.4889C18.8766 24.4889 17.5267 15.728 25.5005 16.4999C35 17.4196 36.1147 26.5272 36.1147 26.5272C36.1147 26.5272 42.4871 17.5 50.4826 21.4875C56.501 24.4889 53.097 30.1136 53.097 30.1136" stroke="white" stroke-width="3"/>
<path fill-rule="evenodd" clip-rule="evenodd" d="M54.0955 44.2393L13.3036 37.5344L8.42689 67.2041L49.2187 73.9089L54.0955 44.2393ZM13.7902 34.5742L10.8299 34.0876L10.3434 37.0479L5.46661 66.7175C5.19788 68.3524 6.30539 69.8956 7.94031 70.1643L48.7321 76.8692C50.367 77.1379 51.9103 76.0304 52.179 74.3955L57.0557 44.7259L57.5423 41.7656L54.582 41.279L13.7902 34.5742Z" fill="white"/>
<rect x="7.23971" y="22.8398" width="58.1791" height="14.5932" rx="4.5" transform="rotate(9.33415 7.23971 22.8398)" stroke="#404D5B" stroke-width="3"/>
<path fill-rule="evenodd" clip-rule="evenodd" d="M39.4948 44.6973C40.1284 45.231 40.2094 46.1773 39.6756 46.8109L25.4999 63.6392C24.9662 64.2728 24.0199 64.3537 23.3863 63.82C22.7527 63.2863 22.6717 62.34 23.2055 61.7064L37.3812 44.8781C37.9149 44.2445 38.8612 44.1636 39.4948 44.6973ZM26.4572 48.8805C27.0972 48.9782 27.6952 48.5386 27.7929 47.8986C27.8906 47.2587 27.451 46.6607 26.811 46.5629C26.1711 46.4652 25.573 46.9048 25.4753 47.5448C25.3776 48.1848 25.8172 48.7828 26.4572 48.8805ZM26.0044 51.8462C28.2823 52.1939 30.4108 50.6293 30.7585 48.3514C31.1063 46.0736 29.5417 43.9451 27.2638 43.5973C24.9859 43.2495 22.8575 44.8142 22.5097 47.092C22.1619 49.3699 23.7266 51.4984 26.0044 51.8462ZM37.4042 60.9724C37.3065 61.6124 36.7085 62.052 36.0685 61.9543C35.4286 61.8565 34.989 61.2585 35.0867 60.6185C35.1844 59.9786 35.7824 59.539 36.4224 59.6367C37.0623 59.7344 37.5019 60.3324 37.4042 60.9724ZM40.3699 61.4251C40.0221 63.703 37.8936 65.2677 35.6158 64.9199C33.3379 64.5721 31.7733 62.4436 32.121 60.1658C32.4688 57.8879 34.5973 56.3233 36.8751 56.671C39.153 57.0188 40.7176 59.1473 40.3699 61.4251Z" fill="white"/>
</svg>
