<svg width="70" height="70" viewBox="0 0 70 70" fill="none" xmlns="http://www.w3.org/2000/svg">
<path fill-rule="evenodd" clip-rule="evenodd" d="M70 35C70 54.33 54.33 70 35 70C15.67 70 0 54.33 0 35C0 15.67 15.67 0 35 0C54.33 0 70 15.67 70 35ZM35 37C36.1046 37 37 36.1046 37 35C37 33.8954 36.1046 33 35 33C33.8954 33 33 33.8954 33 35C33 36.1046 33.8954 37 35 37ZM35 40C37.7614 40 40 37.7614 40 35C40 32.2386 37.7614 30 35 30C32.2386 30 30 32.2386 30 35C30 37.7614 32.2386 40 35 40ZM15.8471 13.2242C9.80954 18.5386 6 26.3244 6 35C6 43.6756 9.80957 51.4614 15.8471 56.7759C16.4693 57.3235 17.4162 57.2112 17.9306 56.5614C18.4446 55.9121 18.332 54.9723 17.7137 54.4216C12.3672 49.6595 9 42.723 9 35C9 27.277 12.3672 20.3405 17.7136 15.5785C18.332 15.0277 18.4446 14.0879 17.9306 13.4387C17.4161 12.7888 16.4692 12.6765 15.8471 13.2242ZM54.1529 56.7759C53.5307 57.3235 52.5838 57.2112 52.0694 56.5614C51.5554 55.9121 51.668 54.9723 52.2863 54.4216C57.6328 49.6595 61 42.723 61 35C61 27.277 57.6328 20.3405 52.2864 15.5785C51.668 15.0277 51.5554 14.0879 52.0694 13.4387C52.5839 12.7888 53.5308 12.6765 54.1529 13.2242C60.1905 18.5386 64 26.3244 64 35C64 43.6756 60.1904 51.4614 54.1529 56.7759ZM49.1775 50.4921C48.5662 51.0519 47.618 50.9386 47.1036 50.2888C46.5896 49.6395 46.7038 48.7009 47.308 48.1346C50.8112 44.8505 53 40.1809 53 35.0001C53 29.8192 50.8112 25.1497 47.308 21.8655C46.7038 21.2992 46.5896 20.3606 47.1036 19.7113C47.618 19.0615 48.5662 18.9482 49.1775 19.508C53.3706 23.3474 56 28.8666 56 35.0001C56 41.1335 53.3706 46.6528 49.1775 50.4921ZM44.1897 44.1951C43.6034 44.781 42.6522 44.666 42.1378 44.0162C41.6238 43.3669 41.7431 42.4307 42.3084 41.8256C43.9781 40.0386 45 37.6387 45 35.0001C45 32.3615 43.9781 29.9615 42.3084 28.1745C41.7431 27.5695 41.6238 26.6332 42.1378 25.9839C42.6522 25.3341 43.6035 25.2191 44.1897 25.805C46.5438 28.1577 48 31.4088 48 35.0001C48 38.5913 46.5438 41.8424 44.1897 44.1951ZM27.8622 44.0162C28.3762 43.3669 28.2569 42.4307 27.6916 41.8256C26.0219 40.0386 25 37.6387 25 35.0001C25 32.3615 26.0219 29.9615 27.6916 28.1745C28.2569 27.5695 28.3762 26.6332 27.8622 25.9839C27.3478 25.3341 26.3965 25.2191 25.8103 25.805C23.4562 28.1577 22 31.4088 22 35.0001C22 38.5913 23.4562 41.8424 25.8103 44.1951C26.3966 44.781 27.3478 44.666 27.8622 44.0162ZM22.8964 50.2888C23.4104 49.6395 23.2962 48.7009 22.692 48.1346C19.1888 44.8505 17 40.1809 17 35.0001C17 29.8192 19.1888 25.1497 22.692 21.8655C23.2962 21.2992 23.4104 20.3606 22.8964 19.7113C22.382 19.0615 21.4338 18.9482 20.8225 19.508C16.6294 23.3474 14 28.8666 14 35.0001C14 41.1335 16.6294 46.6528 20.8225 50.4921C21.4338 51.0519 22.382 50.9386 22.8964 50.2888Z" fill="#404D5B"/>
</svg>
