<svg width="70" height="70" viewBox="0 0 70 70" fill="none" xmlns="http://www.w3.org/2000/svg">
<path fill-rule="evenodd" clip-rule="evenodd" d="M35 70C51.2503 70 64.9139 58.9254 68.8553 43.9119L10.146 59.643C16.4878 66.0389 25.2813 70 35 70ZM7.89196 57.1411L69.5513 40.6195C69.8465 38.79 70 36.9129 70 35C70 26.4977 66.9684 18.7035 61.9271 12.6394L0.495164 29.1001C0.169561 31.0181 0 32.9892 0 35C0 43.4001 2.95919 51.109 7.89196 57.1411ZM1.22182 25.7995C5.26162 10.9329 18.8541 0 35 0C44.6112 0 53.3175 3.87401 59.6427 10.1457L1.22182 25.7995ZM64.3809 32.5379L55.9364 34.8006L54.8264 30.6579L62.0523 28.7217L61.4369 26.4249L54.211 28.3611L53.1642 24.4545L61.3094 22.272L60.6825 19.9323L49.7581 22.8595L53.7841 37.885L65.0079 34.8776L64.3809 32.5379ZM40.5587 41.4287L36.5326 26.4032L39.3118 25.6585L42.7052 38.3229L50.5298 36.2263L51.1624 38.5875L40.5587 41.4287ZM32.8922 39.756L35.3205 42.8323L38.2279 42.0533L27.4463 28.8379L24.7098 29.5711L22.0017 46.4011L24.8664 45.6335L25.4097 41.7609L32.8922 39.756ZM31.3863 37.8128L25.7637 39.3194L26.8044 32.0007L31.3863 37.8128ZM8.55854 48.3007C10.0861 49.0417 12.6119 49.1471 14.9421 48.5227C19.0468 47.4229 20.4401 44.841 19.7959 42.4369C18.9568 39.305 15.9143 39.3885 13.2839 39.4607C11.281 39.5156 9.51708 39.564 9.14663 38.1815C8.8418 37.0438 9.54088 35.8902 11.8498 35.2716C13.1539 34.9221 14.7325 34.9132 16.2921 35.3466L16.5878 32.9437C15.0536 32.4346 13.0458 32.4664 11.25 32.9476C7.1453 34.0475 5.77339 36.6237 6.42331 39.0492C7.27196 42.2164 10.3199 42.1343 12.9563 42.0633C14.9655 42.0092 16.7356 41.9615 17.1112 43.3633C17.4103 44.4795 16.6512 45.5801 14.321 46.2045C12.4824 46.6971 10.3957 46.5201 8.93966 45.8749L8.55854 48.3007Z" fill="#404D5B"/>
</svg>
