<svg width="70" height="70" viewBox="0 0 70 70" fill="none" xmlns="http://www.w3.org/2000/svg">
<path fill-rule="evenodd" clip-rule="evenodd" d="M57.7766 61.5758C51.6549 66.8272 43.698 70 35 70C26.302 70 18.3451 66.8272 12.2234 61.5758L15.1088 24.9215C15.1497 24.4013 15.5838 24 16.1057 24H53.8943C54.4162 24 54.8503 24.4013 54.8912 24.9215L57.7766 61.5758ZM60.5748 58.8943L57.882 24.6861C57.7182 22.6051 55.9817 21 53.8943 21H16.1057C14.0183 21 12.2818 22.6051 12.118 24.6861L9.42523 58.8943C3.57866 52.6392 0 44.2375 0 35C0 15.67 15.67 0 35 0C54.33 0 70 15.67 70 35C70 44.2375 66.4213 52.6392 60.5748 58.8943ZM26.1857 13.9357C24.255 15.8663 23.5 18.0059 23.5 19H20.5C20.5 16.9941 21.745 14.1337 24.0643 11.8143C26.4517 9.42697 30.0762 7.5 35 7.5C39.9238 7.5 43.5483 9.42697 45.9357 11.8143C48.255 14.1337 49.5 16.9941 49.5 19H46.5C46.5 18.0059 45.745 15.8663 43.8143 13.9357C41.9517 12.073 39.0762 10.5 35 10.5C30.9238 10.5 28.0483 12.073 26.1857 13.9357ZM25.5 48.569V45.431H31.431V39.5H34.569V45.431H40.5V48.569H34.569V54.5H31.431V48.569H25.5ZM21 54.5V36H24.0847V54.5H21ZM41.9232 43.0469C41.4343 43.2544 41.0108 43.5472 40.6528 43.9253H37.507C37.8341 43.2711 38.2549 42.691 38.7695 42.185C39.3787 41.5859 40.0835 41.1213 40.8839 40.7913C41.6963 40.4489 42.5683 40.2778 43.5001 40.2778C44.193 40.2778 44.862 40.3756 45.507 40.5712C46.1521 40.7668 46.7494 41.0419 47.299 41.3964C47.8604 41.751 48.3383 42.1789 48.7325 42.6801L46.9764 44.459C46.5225 43.8844 45.9968 43.4504 45.3995 43.1569C44.8142 42.8635 44.181 42.7168 43.5001 42.7168C42.9386 42.7168 42.413 42.8269 41.9232 43.0469ZM37.5 49.8525C37.8265 50.5033 38.2437 51.0834 38.7515 51.5928C39.3608 52.1918 40.0716 52.6625 40.8839 53.0048C41.6963 53.3349 42.5683 53.5 43.5001 53.5C44.1691 53.5 44.8202 53.4083 45.4533 53.2249C46.0984 53.0293 46.6957 52.7542 47.2452 52.3997C47.7947 52.0451 48.2666 51.6233 48.6608 51.1343L46.9585 49.4105C46.5165 49.9362 46.0088 50.3396 45.4354 50.6208C44.862 50.902 44.2467 51.0426 43.5897 51.0426C43.0043 51.0426 42.4608 50.9387 41.9591 50.7308C41.4693 50.523 41.0392 50.2357 40.6689 49.8689L40.6529 49.8525H37.5Z" fill="#404D5B"/>
</svg>
