<svg width="70" height="70" viewBox="0 0 70 70" fill="none" xmlns="http://www.w3.org/2000/svg">
<path fill-rule="evenodd" clip-rule="evenodd" d="M39.2366 69.7462C37.8478 69.9138 36.434 70 35 70C25.996 70 17.7861 66.6 11.5842 61.0138L39.2366 69.7462ZM69.2291 42.3402C67.6128 49.9137 63.5467 56.5799 57.9 61.4694L42.0914 66.5965V51.1416L69.2291 42.3402ZM69.9683 36.5024L47.2143 29.3169C47.6818 30.3579 47.9572 31.5038 47.9954 32.7096L68.8718 39.3022L40.5792 48.4782L21.104 42.3281C20.9481 42.2892 20.7936 42.2405 20.6412 42.182L11.2806 39.226L18.3716 36.9262C18.4511 36.7332 18.5468 36.5439 18.6591 36.3602L20.7026 33.0164L7.38299 37.3362C5.53149 37.9367 5.54165 40.5597 7.39774 41.1459L39.0914 51.1544V54.2453L7.73155 44.3422C7.03189 44.1213 6.1821 44.2961 6.03956 45.0159C5.85627 45.9414 6.31005 46.9843 7.39774 47.3278L39.0914 57.3363V60.4273L7.73156 50.5242C7.03189 50.3033 6.1821 50.4781 6.03956 51.1978C5.85627 52.1234 6.31005 53.1663 7.39774 53.5098L39.0914 63.5183V66.6093L7.73155 56.7062C7.65444 56.6819 7.57552 56.6623 7.49591 56.6478C2.80122 50.6913 0 43.1728 0 35C0 15.67 15.67 0 35 0C54.33 0 70 15.67 70 35C70 35.5034 69.9894 36.0042 69.9683 36.5024ZM39.7093 11.2203C40.4162 11.6523 40.6391 12.5755 40.2071 13.2824L24.3514 39.2281C23.9194 39.935 22.9962 40.1578 22.2893 39.7259C21.5824 39.2939 21.3595 38.3706 21.7915 37.6638L37.6472 11.718C38.0792 11.0112 39.0025 10.7883 39.7093 11.2203ZM23.0724 20.3109C24.5998 20.3109 25.8381 19.0727 25.8381 17.5452C25.8381 16.0177 24.5998 14.7795 23.0724 14.7795C21.5449 14.7795 20.3066 16.0177 20.3066 17.5452C20.3066 19.0727 21.5449 20.3109 23.0724 20.3109ZM23.0724 23.3109C26.2567 23.3109 28.8381 20.7295 28.8381 17.5452C28.8381 14.3609 26.2567 11.7795 23.0724 11.7795C19.888 11.7795 17.3066 14.3609 17.3066 17.5452C17.3066 20.7295 19.888 23.3109 23.0724 23.3109ZM41.6936 33.4009C41.6936 34.9284 40.4554 36.1667 38.9279 36.1667C37.4005 36.1667 36.1622 34.9284 36.1622 33.4009C36.1622 31.8735 37.4005 30.6352 38.9279 30.6352C40.4554 30.6352 41.6936 31.8735 41.6936 33.4009ZM44.6936 33.4009C44.6936 36.5853 42.1122 39.1667 38.9279 39.1667C35.7436 39.1667 33.1622 36.5853 33.1622 33.4009C33.1622 30.2166 35.7436 27.6352 38.9279 27.6352C42.1122 27.6352 44.6936 30.2166 44.6936 33.4009ZM30.0013 33.1544L29.9919 33.1574L30.0011 33.1424L30.0013 33.1544Z" fill="#404D5B"/>
</svg>
