<svg width="212" height="43" viewBox="0 0 212 43" fill="none" xmlns="http://www.w3.org/2000/svg">
<path d="M12.8003 1.43503L5.32718 0.539062L0.927734 37.2412L8.40081 38.1371L12.8003 1.43503Z" fill="black"/>
<path fill-rule="evenodd" clip-rule="evenodd" d="M36.7791 38.9086C34.0727 40.7974 30.7466 41.7034 27.3149 41.216C19.8186 40.1513 14.6572 32.8411 15.7866 24.8881C16.9159 16.9351 23.9083 11.351 31.4045 12.4157C34.7237 12.8871 37.5851 14.583 39.6453 17.017L39.9203 17.0499L40.2332 14.44L47.2637 15.283L44.0057 42.4621L36.9752 41.6192L37.2928 38.9702L36.7791 38.9086ZM23.8772 24.0348C24.1841 21.266 26.6771 19.2702 29.4456 19.577L33.9238 20.0734C36.6924 20.3802 38.688 22.8735 38.3812 25.6423L37.8721 30.2361C37.5653 33.0049 35.0722 35.0007 32.3037 34.6939L27.8255 34.1975C25.057 33.8907 23.0614 31.3974 23.3682 28.6286L23.8772 24.0348Z" fill="black"/>
<path fill-rule="evenodd" clip-rule="evenodd" d="M194.279 37.8973C197.744 37.9741 201.003 36.6501 203.466 34.4535L203.984 34.4537V37.2247L211.064 37.2275L211.074 9.65049L203.993 9.64774L203.992 12.3765L203.715 12.3764C201.381 10.2041 198.338 8.85972 194.987 8.78546C187.417 8.61776 181.137 14.9921 180.959 23.0229C180.781 31.0537 186.71 37.7296 194.279 37.8973ZM193.891 16.1286C191.106 16.1524 188.867 18.43 188.891 21.2156L188.931 25.8373C188.954 28.623 191.232 30.8619 194.017 30.8381L198.522 30.7996C201.308 30.7758 203.547 28.4982 203.523 25.7126L203.483 21.0908C203.459 18.3052 201.182 16.0663 198.397 16.0901L193.891 16.1286Z" fill="black"/>
<path fill-rule="evenodd" clip-rule="evenodd" d="M166.691 35.065C164.712 36.8801 163.604 37.8973 158.177 37.8973C150.607 37.7296 144.678 31.0537 144.856 23.0229C145.034 14.9921 151.315 8.61776 158.884 8.78546C162.236 8.85972 165.105 10.2041 167.439 12.3764L167.716 12.3765L167.717 0.907434L175.114 0.910189L175.104 37.2275L167.881 37.2247V34.4537L167.364 34.4535C167.126 34.6658 166.904 34.8693 166.692 35.0636L166.691 35.065ZM152.789 21.2156C152.765 18.43 155.003 16.1524 157.789 16.1286L162.294 16.0901C165.08 16.0663 167.357 18.3052 167.381 21.0908L167.42 25.7126C167.444 28.4982 165.205 30.7758 162.42 30.7996L157.915 30.8381C155.129 30.8619 152.852 28.623 152.828 25.8373L152.789 21.2156Z" fill="black"/>
<path fill-rule="evenodd" clip-rule="evenodd" d="M125.182 37.8973C135.774 37.8973 140.481 30.6675 140.481 23.4376C140.481 16.2078 135.438 8.97795 125.182 8.97795C114.927 8.97795 109.884 15.8715 109.884 23.4376C109.884 31.0037 114.591 37.8973 125.182 37.8973ZM122.997 16.0396C120.211 16.0396 117.953 18.298 117.953 21.0837V25.7915C117.953 28.5773 120.211 30.8356 122.997 30.8356H127.368C130.153 30.8356 132.412 28.5773 132.412 25.7915V21.0837C132.412 18.298 130.153 16.0396 127.368 16.0396H122.997Z" fill="black"/>
<path d="M72.8976 8.64168C67.854 8.64168 64.4916 11.6681 64.1554 12.6769H63.1467V9.65049H56.0857V37.2247H63.4829V22.2607C63.4829 19.4024 63.9537 16.3759 69.8714 16.3759C75.7892 16.3759 76.2599 19.0661 76.2599 22.0925V37.2247H83.9934V20.1248C84.4058 18.0725 85.783 16.3759 90.2138 16.3759C95.2344 16.3759 96.3344 18.3122 96.5525 20.7474H96.4342V37.2247H104.168V20.7474H104.132C103.61 11.284 97.5363 8.97795 92.2312 8.97795C87.3167 8.97795 84.3178 11.2129 82.9232 13.3495H82.1393C81.1927 11.707 78.0668 8.64168 72.8976 8.64168Z" fill="black"/>
</svg>
