<svg width="212" height="28" viewBox="0 0 212 28" fill="none" xmlns="http://www.w3.org/2000/svg">
<path fill-rule="evenodd" clip-rule="evenodd" d="M130.432 21.8357H125.268V18.2155C125.268 18.2155 123.679 22.2379 118.912 22.2379C118.912 22.2379 112.556 22.2379 112.556 16.2042C112.556 11.1498 117.039 10.1445 120.595 9.34711C122.933 8.82289 124.87 8.38847 124.87 6.95255C124.87 4.94132 122.09 4.94132 122.09 4.94132C118.514 4.94132 118.514 8.15929 118.514 8.15929H112.953C112.953 8.15929 112.158 0.516602 122.09 0.516602C130.829 0.516602 130.432 7.75704 130.432 7.75704V21.8357ZM125.268 11.7795C125.268 11.7795 125.079 17.411 120.103 17.411C117.323 17.411 117.72 15.3997 117.72 15.3997C117.72 13.9188 119.515 13.498 121.544 13.0223C122.822 12.7226 124.193 12.4012 125.268 11.7795Z" fill="#6833B0"/>
<path fill-rule="evenodd" clip-rule="evenodd" d="M33.8997 12.1818H48.2007C48.2007 12.1818 49.3925 0.516608 38.6667 0.516608C32.3106 0.516608 28.3381 4.94132 28.3381 10.975C28.3381 17.8132 32.7079 22.2379 38.6667 22.2379C47.4062 22.2379 48.2007 14.193 48.2007 14.193H42.6392C42.6392 14.193 42.2419 17.0087 38.6667 17.0087C33.8997 17.0087 33.8997 12.1818 33.8997 12.1818ZM42.6392 8.56154H33.8997C33.8997 8.56154 34.512 4.94132 38.6667 4.94132C42.6392 4.94132 42.6392 8.56154 42.6392 8.56154Z" fill="#6833B0"/>
<path d="M4.503 0.918854L0.927734 21.8357H6.09201L8.07827 8.56154L12.0508 21.8357H16.4206L20.7903 8.56154L22.3793 21.8357H27.1464L23.9684 0.918854H18.4068L14.4343 13.3885L10.4618 0.918854H4.503Z" fill="#6833B0"/>
<path d="M87.9259 0.918854L84.3507 21.8357H89.5149L91.5012 8.56154L95.4737 21.8357H99.8435L104.213 8.56154L105.802 21.8357H110.569L107.391 0.918854H101.83L97.8572 13.3885L93.8847 0.918854H87.9259Z" fill="#6833B0"/>
<path d="M50.5842 0.918854V21.8357H56.1458V6.14806H63.6936V0.918854H50.5842Z" fill="#6833B0"/>
<path d="M199.554 21.8357V6.14806H193.992V0.918854H211.074V6.14806H205.115V21.8357H199.554Z" fill="#6833B0"/>
<path d="M154.664 21.8357V0.918854H160.226V8.56154H162.609L166.582 0.918854H172.938L167.376 10.975L173.732 21.8357H167.376L162.609 13.7907H160.226V21.8357H154.664Z" fill="#6833B0"/>
<path fill-rule="evenodd" clip-rule="evenodd" d="M192.403 12.1818H178.102C178.102 12.1818 178.102 17.0087 182.869 17.0087C186.842 17.0087 186.842 14.193 186.842 14.193H192.403C192.403 14.193 192.006 22.2379 183.266 22.2379C177.308 22.2379 172.938 17.8132 172.938 10.975C172.938 4.94132 176.513 0.516608 183.266 0.516608C193.595 0.516608 192.403 12.1818 192.403 12.1818ZM186.842 8.56154H178.499C178.499 8.56154 179.112 4.94132 183.266 4.94132C186.842 4.94132 186.842 8.56154 186.842 8.56154Z" fill="#6833B0"/>
<path fill-rule="evenodd" clip-rule="evenodd" d="M133.213 0.918854V27.4671H138.774V18.2155C138.774 18.2155 139.966 22.2379 144.733 22.2379C149.5 22.2379 151.884 17.8132 151.884 11.3773C151.884 2.12559 148.308 0.516608 144.336 0.516608C140.363 0.516608 138.774 4.13683 138.774 4.13683V0.918854H133.213ZM143.144 5.34356C138.377 5.34356 138.774 11.3773 138.774 11.3773C138.774 11.3773 138.377 17.0087 143.144 17.0087C147.116 17.0087 146.719 11.3773 146.719 11.3773C146.719 11.3773 146.719 5.34356 143.144 5.34356Z" fill="#6833B0"/>
<path fill-rule="evenodd" clip-rule="evenodd" d="M77.2001 21.8357H82.3644V7.75705C82.3644 7.75705 82.7617 0.516608 74.0221 0.516608C64.0908 0.516608 64.8853 8.1593 64.8853 8.1593H70.4468C70.4468 8.1593 70.4468 4.94132 74.0221 4.94132C74.0221 4.94132 76.8029 4.94132 76.8029 6.95256C76.8029 8.38848 74.8655 8.8229 72.5276 9.34712C68.9712 10.1446 64.4881 11.1498 64.4881 16.2042C64.4881 22.2379 70.8441 22.2379 70.8441 22.2379C75.6111 22.2379 77.2001 18.2155 77.2001 18.2155V21.8357ZM72.0359 17.411C77.0113 17.411 77.2001 11.7795 77.2001 11.7795C76.1256 12.4012 74.7546 12.7226 73.4766 13.0223C71.4472 13.498 69.6523 13.9188 69.6523 15.3997C69.6523 15.3997 69.2551 17.411 72.0359 17.411Z" fill="#6833B0"/>
</svg>
