<svg width="212" height="51" viewBox="0 0 212 51" fill="none" xmlns="http://www.w3.org/2000/svg">
<path fill-rule="evenodd" clip-rule="evenodd" d="M46.9487 25.5003C46.9487 39.0616 36.6251 50.0552 23.8904 50.0552C11.1557 50.0552 0.832031 39.0616 0.832031 25.5003C0.832031 11.9389 11.1557 0.945312 23.8904 0.945312C36.6251 0.945312 46.9487 11.9389 46.9487 25.5003ZM35.7007 25.5003C35.7007 32.4463 30.413 38.0772 23.8904 38.0772C17.3677 38.0772 12.08 32.4463 12.08 25.5003C12.08 18.5542 17.3677 12.9233 23.8904 12.9233C30.413 12.9233 35.7007 18.5542 35.7007 25.5003Z" fill="#005CFF"/>
<path fill-rule="evenodd" clip-rule="evenodd" d="M161.678 25.5003C161.678 39.0616 147.2 50.0552 129.34 50.0552C111.48 50.0552 97.0022 39.0616 97.0022 25.5003C97.0022 11.9389 111.48 0.945312 129.34 0.945312C147.2 0.945312 161.678 11.9389 161.678 25.5003ZM150.43 25.5003C150.43 27.3992 149.435 30.2564 145.676 33.1106C141.94 35.9475 136.2 38.0772 129.34 38.0772C122.48 38.0772 116.74 35.9475 113.004 33.1106C109.245 30.2564 108.25 27.3992 108.25 25.5003C108.25 23.6013 109.245 20.7441 113.004 17.8899C116.74 15.053 122.48 12.9233 129.34 12.9233C136.2 12.9233 141.94 15.053 145.676 17.8899C149.435 20.7441 150.43 23.6013 150.43 25.5003Z" fill="#005CFF"/>
<path d="M50.9739 45.9739L74.1222 13.5222H59.0403C56.0896 13.5222 53.6975 10.9749 53.6975 7.83267C53.6975 4.69042 56.0895 2.14311 59.0403 2.14311H82.2391L92.7518 2.06511C94.1567 2.05465 94.9574 3.77043 94.1012 4.95668L70.8439 37.1788H88.7068C91.7352 37.1788 94.1902 39.7932 94.1902 43.0181C94.1902 46.2431 91.7352 48.8574 88.7068 48.8574H52.3174C50.9224 48.8574 50.1301 47.1569 50.9739 45.9739Z" fill="#005CFF"/>
<path d="M200.202 26.848L171.661 2.59229C170.587 1.69284 168.708 2.15357 168.708 3.64044V43.0129C168.708 46.2409 171.45 48.8576 174.376 48.8576C177.302 48.8576 179.675 46.2409 179.675 43.0129V24.3025L208.498 48.4082C209.574 49.3208 211.178 48.8219 211.169 47.3244V7.83267C211.169 4.68742 208.396 2.14311 205.545 2.14311C202.694 2.14311 200.202 4.69283 200.202 7.83794V26.848Z" fill="#005CFF"/>
</svg>
