<svg width="212" height="25" viewBox="0 0 212 25" fill="none" xmlns="http://www.w3.org/2000/svg">
<path d="M207.145 7.27078L210.391 5.24681C208.511 2.21085 206.461 0.524202 202.19 0.524202C197.919 0.524202 194.16 2.37952 194.16 6.93346C194.16 11.4874 198.26 13.174 202.702 14.3547C206.256 15.2992 206.974 16.21 206.974 17.728C206.974 19.0773 206.034 20.7639 202.702 20.7639C200.14 20.7639 198.306 19.5209 197.156 17.8885L197.152 17.8825C196.963 17.6152 196.768 17.3376 196.552 17.0533L193.306 19.0773C194.502 21.7759 197.406 24.4745 202.702 24.4745C206.461 24.4745 211.074 22.7879 211.074 18.234C211.074 12.6092 205.679 11.2712 203.319 10.686L203.309 10.6834C203.178 10.6509 203.056 10.6206 202.945 10.5921C202.782 10.5501 202.642 10.5119 202.532 10.4754C202.452 10.4494 202.37 10.4229 202.286 10.3959L202.242 10.3817L202.223 10.3755C200.675 9.8773 198.431 9.15525 198.431 6.93346C198.431 4.55906 200.994 4.23482 202.532 4.23482C204.94 4.23482 206.288 6.03043 206.925 6.95895C207.011 7.08421 207.084 7.19061 207.145 7.27078Z" fill="url(#paint0_linear_438_4732)"/>
<path fill-rule="evenodd" clip-rule="evenodd" d="M70.2931 0.524333H62.0923V24.4747H70.2931C70.2931 24.4747 82.9361 24.9808 82.9361 12.4995C82.9361 0.0182154 70.2931 0.524333 70.2931 0.524333ZM71.0941 4.2368H65.851V20.762H71.0941C71.0941 20.762 79.1773 21.1112 79.1773 12.4994C79.1773 3.88757 71.0941 4.2368 71.0941 4.2368Z" fill="url(#paint1_linear_438_4732)"/>
<path fill-rule="evenodd" clip-rule="evenodd" d="M96.0212 0.52458H86.6948V24.4729H96.6041C96.6041 24.4729 104.122 24.6433 104.122 17.5594C104.122 14.7274 102.647 13.0548 100.877 12.0672C102.147 11.0675 103.096 9.55595 103.096 7.27083C103.096 0.358386 96.0212 0.52458 96.0212 0.52458ZM90.4535 14.0174H96.0916C96.0916 14.0174 100.021 13.8487 100.021 17.5593C100.021 20.9326 96.0916 20.764 96.0916 20.764H90.4535V14.0174ZM95.5388 10.6441H90.4535V4.23487H95.5388C95.5388 4.23487 98.996 4.23487 98.996 7.27083C98.996 10.6441 95.5388 10.6441 95.5388 10.6441Z" fill="url(#paint2_linear_438_4732)"/>
<path d="M7.42006 24.4746L0.927734 0.524209H5.5407L10.3245 18.5713L15.6209 0.524209H19.5505L24.8468 18.5713L29.6306 0.524209H34.0728L27.5804 24.4746H22.6258L17.6711 7.27078L12.5456 24.4746H7.42006Z" fill="url(#paint3_linear_438_4732)"/>
<path d="M40.9068 0.524209H36.8064V24.4746H40.9068V0.524209Z" fill="url(#paint4_linear_438_4732)"/>
<path fill-rule="evenodd" clip-rule="evenodd" d="M125.649 0.524209H129.749V0.52598H135.216C135.216 0.52598 143.076 0.52598 143.076 8.11407C143.076 12.3429 140.633 14.2189 138.36 15.0491L143.93 24.4746H139.317L134.133 15.7022H129.749V24.4746H125.649V0.524209ZM134.191 12.3307L134.193 12.3307C134.201 12.331 134.254 12.3324 134.342 12.3307C135.155 12.315 138.975 12.0329 138.975 8.11407C138.975 4.23487 134.533 4.23478 134.533 4.23478H129.749V12.3307H134.191Z" fill="url(#paint5_linear_438_4732)"/>
<path fill-rule="evenodd" clip-rule="evenodd" d="M150.593 0.524209H146.493V24.4746H150.593V15.7022H154.977L160.161 24.4746H164.774L159.204 15.0491C161.477 14.2189 163.919 12.3429 163.919 8.11407C163.919 0.52598 156.06 0.52598 156.06 0.52598H150.593V0.524209ZM155.036 12.3307L155.035 12.3307H150.593V4.23478H155.377C155.377 4.23478 159.819 4.23487 159.819 8.11407C159.819 12.0329 155.999 12.315 155.186 12.3307C155.147 12.3315 155.115 12.3316 155.091 12.3315C155.06 12.3314 155.041 12.3309 155.036 12.3307Z" fill="url(#paint6_linear_438_4732)"/>
<path d="M167.336 0.524209H171.437V24.4746H167.336V0.524209Z" fill="url(#paint7_linear_438_4732)"/>
<path d="M122.232 24.4746H107.539V0.524209H122.232V4.57215H111.639V10.3067H121.207V14.3547H111.639V20.4266H122.232V24.4746Z" fill="url(#paint8_linear_438_4732)"/>
<path d="M175.879 24.4746H190.572V20.4266H179.979V14.3547H189.547V10.3067H179.979V4.57215H190.572V0.524209H175.879V24.4746Z" fill="url(#paint9_linear_438_4732)"/>
<path d="M45.3489 0.524209H49.4493V20.4266H59.017V24.4746H45.3489V0.524209Z" fill="url(#paint10_linear_438_4732)"/>
<defs>
<linearGradient id="paint0_linear_438_4732" x1="211.074" y1="12.4996" x2="0.927734" y2="12.4996" gradientUnits="userSpaceOnUse">
<stop stop-color="#4D317E"/>
<stop offset="1" stop-color="#BE2080"/>
</linearGradient>
<linearGradient id="paint1_linear_438_4732" x1="211.074" y1="12.4996" x2="0.927734" y2="12.4996" gradientUnits="userSpaceOnUse">
<stop stop-color="#4D317E"/>
<stop offset="1" stop-color="#BE2080"/>
</linearGradient>
<linearGradient id="paint2_linear_438_4732" x1="211.074" y1="12.4996" x2="0.927734" y2="12.4996" gradientUnits="userSpaceOnUse">
<stop stop-color="#4D317E"/>
<stop offset="1" stop-color="#BE2080"/>
</linearGradient>
<linearGradient id="paint3_linear_438_4732" x1="211.074" y1="12.4996" x2="0.927734" y2="12.4996" gradientUnits="userSpaceOnUse">
<stop stop-color="#4D317E"/>
<stop offset="1" stop-color="#BE2080"/>
</linearGradient>
<linearGradient id="paint4_linear_438_4732" x1="211.074" y1="12.4996" x2="0.927734" y2="12.4996" gradientUnits="userSpaceOnUse">
<stop stop-color="#4D317E"/>
<stop offset="1" stop-color="#BE2080"/>
</linearGradient>
<linearGradient id="paint5_linear_438_4732" x1="211.074" y1="12.4996" x2="0.927734" y2="12.4996" gradientUnits="userSpaceOnUse">
<stop stop-color="#4D317E"/>
<stop offset="1" stop-color="#BE2080"/>
</linearGradient>
<linearGradient id="paint6_linear_438_4732" x1="211.074" y1="12.4996" x2="0.927734" y2="12.4996" gradientUnits="userSpaceOnUse">
<stop stop-color="#4D317E"/>
<stop offset="1" stop-color="#BE2080"/>
</linearGradient>
<linearGradient id="paint7_linear_438_4732" x1="211.074" y1="12.4996" x2="0.927734" y2="12.4996" gradientUnits="userSpaceOnUse">
<stop stop-color="#4D317E"/>
<stop offset="1" stop-color="#BE2080"/>
</linearGradient>
<linearGradient id="paint8_linear_438_4732" x1="211.074" y1="12.4996" x2="0.927734" y2="12.4996" gradientUnits="userSpaceOnUse">
<stop stop-color="#4D317E"/>
<stop offset="1" stop-color="#BE2080"/>
</linearGradient>
<linearGradient id="paint9_linear_438_4732" x1="211.074" y1="12.4996" x2="0.927734" y2="12.4996" gradientUnits="userSpaceOnUse">
<stop stop-color="#4D317E"/>
<stop offset="1" stop-color="#BE2080"/>
</linearGradient>
<linearGradient id="paint10_linear_438_4732" x1="211.074" y1="12.4996" x2="0.927734" y2="12.4996" gradientUnits="userSpaceOnUse">
<stop stop-color="#4D317E"/>
<stop offset="1" stop-color="#BE2080"/>
</linearGradient>
</defs>
</svg>
