<svg width="212" height="43" viewBox="0 0 212 43" fill="none" xmlns="http://www.w3.org/2000/svg">
<ellipse cx="19.9174" cy="20.8538" rx="18.9897" ry="20.3148" fill="#FC3F1D"/>
<path d="M22.6873 11.8503V33.0811H26.5155V8.61719H20.5717C16.4917 8.61719 11.908 10.7187 11.908 16.4844C11.908 21.6035 15.0813 23.5973 16.5925 24.8906L11.4043 33.0811H15.7362L21.2266 23.9206C18.5065 21.8191 15.7362 20.5258 15.7362 16.4844C15.7362 11.4192 20.3703 11.9042 22.6873 11.8503Z" fill="white"/>
<ellipse cx="60.517" cy="20.8538" rx="18.9897" ry="20.3148" fill="#FED42B"/>
<path d="M78.0241 28.7399C78.9785 26.3165 79.5061 23.6534 79.5061 20.8586C79.5061 19.4743 79.3767 18.1223 79.13 16.8158C77.4477 19.7107 74.0809 24.5149 72.2528 23.8223C70.3186 23.0894 72.0513 15.5239 73.1091 11.3747L73.6631 9.48874L65.8557 6.63281L56.7459 22.7085L57.9475 14.1229L51.0467 11.5364L41.8281 24.4833C42.2981 27.2748 43.3012 29.8681 44.7206 32.1383L51.3345 22.8507L50.0393 32.4978L57.0912 35.0843L65.3895 20.4448C64.9222 23.1265 64.702 28.3825 68.2231 30.504C72.41 33.0267 75.9991 30.7782 78.0241 28.7399Z" fill="black"/>
<path d="M89.7812 36.104H93.8109V13.1488L99.6539 36.104H103.734L109.627 13.1488V36.104H114.362V5.49707H107.814L102.072 27.9134H101.971L96.3294 5.49707H89.7812V36.104Z" fill="black"/>
<path fill-rule="evenodd" clip-rule="evenodd" d="M118.895 15.6275V20.0461C119.769 19.2917 122.341 17.7829 125.645 17.7829C129.073 17.7829 129.017 20.134 128.978 21.8175L128.978 21.8177C128.973 21.9896 128.97 22.1545 128.97 22.3093C128.853 22.3093 128.71 22.307 128.544 22.3044C125.906 22.2626 117.435 22.1283 117.435 29.5299C117.435 37.9361 126.653 37.505 128.919 34.2719C129.02 34.7748 129.252 35.8453 129.373 36.104H134.208C134.107 35.2957 133.906 33.0648 133.906 30.6077V20.3694C133.906 16.8669 132.445 13.5799 126.199 13.5799C123.026 13.5799 120.81 14.3882 118.895 15.6275ZM122.421 29.3144C122.421 25.6907 126.466 25.6991 128.738 25.7038L128.74 25.7038C128.784 25.7039 128.828 25.704 128.871 25.704L128.914 25.7041C128.933 25.7041 128.951 25.7041 128.97 25.7041V30.7693C128.214 32.7631 122.421 34.0025 122.421 29.3144Z" fill="black"/>
<path fill-rule="evenodd" clip-rule="evenodd" d="M137.835 42.4624V14.011H142.419L142.67 16.813C143.14 15.6994 144.897 13.4721 148.161 13.4721C152.241 13.4721 155.968 16.7591 155.968 25.2191C155.968 33.6791 151.536 36.535 147.909 36.535C145.008 36.535 143.275 34.4874 142.771 33.4636V42.4624H137.835ZM142.771 25.0036C142.771 18.3649 145.441 17.6752 146.901 17.6752C148.564 17.6752 150.931 18.4942 150.931 25.0036C150.931 31.5129 148.463 32.3859 146.901 32.3859C145.038 32.3859 142.771 31.6423 142.771 25.0036Z" fill="black"/>
<path d="M159.242 14.011H164.229V24.0336L170.979 14.011H176.016L169.165 24.1414L177.023 36.104H171.382L164.229 25.3269V36.104H159.242V14.011Z" fill="black"/>
<path fill-rule="evenodd" clip-rule="evenodd" d="M193.444 34.5952V30.2843C192.356 31.4483 189.112 32.332 186.896 32.332C182.715 32.332 181.859 29.5299 181.859 26.9435H193.645C193.645 26.6521 193.649 26.3365 193.653 26.0012C193.705 21.5001 193.797 13.4721 185.687 13.4721C182.614 13.4721 176.822 14.8731 176.822 25.1113C176.822 35.1879 182.463 36.535 186.694 36.535C190.079 36.535 192.604 35.2418 193.444 34.5952ZM181.859 23.0098H188.709C188.709 21.2316 188.628 17.6752 185.485 17.6752C182.342 17.6752 181.859 21.1238 181.859 23.0098Z" fill="black"/>
<path d="M194.653 13.9032V18.1062H200.395V36.104H205.331V18.1062H211.074V13.9032H194.653Z" fill="black"/>
</svg>
