<svg width="70" height="70" viewBox="0 0 70 70" fill="none" xmlns="http://www.w3.org/2000/svg">
<rect width="70" height="70" rx="35" fill="#404D5B"/>
<path fill-rule="evenodd" clip-rule="evenodd" d="M23.3653 24.0645C23.8249 24.3928 24.3911 23.8266 24.0628 23.367L8.46966 1.53751C8.29007 1.2861 7.92771 1.25612 7.70924 1.47459L1.47287 7.71096C1.2544 7.92943 1.28439 8.29179 1.5358 8.47137L23.3653 24.0645ZM45.9372 23.3674C45.609 23.827 46.1752 24.3932 46.6347 24.0649L68.4625 8.47354C68.7139 8.29396 68.7439 7.9316 68.5254 7.71312L62.289 1.47676C62.0706 1.25829 61.7082 1.28828 61.5286 1.5397L45.9372 23.3674ZM46.6346 45.9368C46.175 45.6086 45.6088 46.1748 45.9371 46.6343L61.527 68.4606C61.7066 68.7121 62.069 68.742 62.2875 68.5236L68.5238 62.2872C68.7423 62.0687 68.7123 61.7064 68.4609 61.5268L46.6346 45.9368ZM23.3635 45.9373C23.8231 45.609 24.3893 46.1752 24.061 46.6347L8.46941 68.4627C8.28983 68.7141 7.92747 68.7441 7.70899 68.5256L1.47263 62.2893C1.25416 62.0708 1.28415 61.7084 1.53557 61.5288L23.3635 45.9373Z" fill="white"/>
<path d="M49.5669 13.1227C40.7707 7.43341 29.3276 7.51492 20.6072 13.3673L22.3522 15.8101C30.0309 10.7002 40.0673 10.6193 47.8207 15.5674L49.5669 13.1227Z" fill="white"/>
<path d="M44.9632 19.5678C38.9173 15.8295 31.1806 15.9089 25.2065 19.806L26.5037 21.622C26.661 21.8422 26.7889 22.0658 26.8897 22.2907C31.8371 19.0887 38.2142 19.0021 43.2389 22.0308C43.3138 21.8937 43.3992 21.7575 43.4956 21.6225L44.9632 19.5678Z" fill="white"/>
<path d="M48.1142 26.6785C51.505 31.7346 51.5873 38.3509 48.3611 43.4827C48.3665 43.4866 48.372 43.4904 48.3774 43.4943L50.8064 45.2293C54.7713 39.0577 54.6903 31.04 50.5635 24.9438L48.378 26.5049L46.6342 24.0637L48.6821 22.601C48.5626 22.4746 48.4409 22.3495 48.3172 22.2258C48.0119 21.9205 47.6986 21.6281 47.3779 21.3487L45.9368 23.3662C45.6085 23.8258 46.1747 24.392 46.6342 24.0637L48.378 26.5049C48.2905 26.5673 48.2026 26.6252 48.1142 26.6785Z" fill="white"/>
<path d="M52.7048 19.7275C52.4099 19.3973 52.1039 19.0734 51.7868 18.7564C51.2877 18.2573 50.7717 17.7855 50.2405 17.3411L51.9889 14.8933C52.6498 15.4369 53.2905 16.0175 53.9082 16.6351C54.3435 17.0705 54.7605 17.5173 55.159 17.9746L52.7048 19.7275Z" fill="white"/>
<path d="M54.5579 22.0906C59.9005 29.8891 59.9824 40.2086 54.8037 48.0845L57.247 49.8296C63.1686 40.9125 63.0862 29.1853 56.9999 20.3463L54.5579 22.0906Z" fill="white"/>
<path d="M55.447 52.2307L52.9969 50.4806C52.6132 50.9268 52.2098 51.3619 51.7868 51.7849C51.3635 52.2083 50.9279 52.612 50.4812 52.9961L52.2313 55.4462C52.8067 54.9614 53.3663 54.4481 53.9082 53.9062C54.4496 53.3648 54.9626 52.8056 55.447 52.2307Z" fill="white"/>
<path d="M49.8301 57.246L48.0849 54.8027C40.2085 59.981 29.8886 59.8982 22.0903 54.5544L20.3459 56.9964C29.1847 63.0839 40.9124 63.1671 49.8301 57.246Z" fill="white"/>
<path d="M17.9744 55.1552C17.5178 54.7572 17.0717 54.3409 16.6371 53.9062C16.3906 53.6597 16.1501 53.4096 15.9154 53.156C15.5616 52.7737 15.2213 52.3834 14.8943 51.9857L17.342 50.2374C17.3998 50.3065 17.4581 50.3753 17.5169 50.4439C17.91 50.9029 18.3238 51.3503 18.7584 51.7849C19.0747 52.1012 19.3979 52.4066 19.7274 52.701L17.9744 55.1552Z" fill="white"/>
<path d="M24.9432 50.5603C31.0393 54.6884 39.0576 54.7701 45.2298 50.8055L43.495 48.3767C43.4911 48.3712 43.4871 48.3657 43.4832 48.3601C38.3507 51.5862 31.7338 51.5031 26.6777 48.1109C26.624 48.2001 26.5656 48.2889 26.5026 48.3772L24.9432 50.5603Z" fill="white"/>
<path d="M22.0318 43.2363C19.0043 38.2126 19.0905 31.8375 22.2906 26.8908C22.0655 26.7899 21.8416 26.6618 21.6213 26.5044L19.8058 25.2076C15.9108 31.1809 15.8318 38.9154 19.5686 44.9602L21.6202 43.4947C21.7563 43.3976 21.8937 43.3116 22.0318 43.2363Z" fill="white"/>
<path d="M21.3493 47.375L23.3639 45.9359C23.8235 45.6077 24.3897 46.1739 24.0614 46.6334L22.6006 48.6785C22.4749 48.5597 22.3505 48.4386 22.2274 48.3155C21.9217 48.0099 21.629 47.6961 21.3493 47.375Z" fill="white"/>
<path d="M15.5685 47.8174L13.1239 49.5636C7.43605 40.7687 7.51714 29.3279 13.3671 20.6084L15.81 22.3533C10.7024 30.0313 10.6219 40.0652 15.5685 47.8174Z" fill="white"/>
<path d="M21.6452 22.8347L23.3651 24.0633C23.8246 24.3916 24.3908 23.8254 24.0626 23.3658L22.8339 21.6458C22.6285 21.8336 22.4262 22.027 22.2274 22.2258C22.0278 22.4254 21.8337 22.6284 21.6452 22.8347Z" fill="white"/>
<path d="M19.9656 17.6303C19.5533 17.9888 19.1506 18.3642 18.7584 18.7564C18.3653 19.1496 17.9891 19.5532 17.6298 19.9665L15.1787 18.2156C15.6394 17.674 16.1255 17.1467 16.6371 16.6351C17.1477 16.1245 17.6741 15.6391 18.2147 15.1791L19.9656 17.6303Z" fill="white"/>
<path d="M45.87 46.5108C45.8857 46.5519 45.9076 46.5929 45.9362 46.633L47.6146 48.9828C47.8532 48.7677 48.0874 48.5453 48.3172 48.3155C48.5466 48.0861 48.7687 47.8522 48.9835 47.6139L46.6337 45.9355C46.5936 45.9069 46.5526 45.885 46.5115 45.8693C46.4082 45.9788 46.303 46.0871 46.1959 46.1942C46.0884 46.3017 45.9798 46.4072 45.87 46.5108Z" fill="white"/>
<path fill-rule="evenodd" clip-rule="evenodd" d="M27.8197 27.8164C23.7029 31.9333 23.7029 38.608 27.8197 42.7249C31.9366 46.8417 38.6113 46.8417 42.7282 42.7249C46.845 38.608 46.845 31.9333 42.7282 27.8164C38.6113 23.6996 31.9366 23.6996 27.8197 27.8164ZM29.941 29.9378C26.9958 32.883 26.9958 37.6583 29.941 40.6036C32.8863 43.5488 37.6616 43.5488 40.6068 40.6036C43.5521 37.6583 43.5521 32.883 40.6068 29.9378C37.6616 26.9925 32.8863 26.9925 29.941 29.9378Z" fill="white"/>
</svg>
