<svg width="70" height="70" viewBox="0 0 70 70" fill="none" xmlns="http://www.w3.org/2000/svg">
<g clip-path="url(#clip0_110_485)">
<rect width="70" height="70" rx="35" fill="#404D5B"/>
<path fill-rule="evenodd" clip-rule="evenodd" d="M59.4754 36.8429C59.0845 36.7126 58.7126 37.0845 58.8429 37.4754L61.4529 45.3051C61.5704 45.6578 62.0179 45.7634 62.2807 45.5006L63.6488 44.1326L115.218 95.7015C115.803 96.2873 116.753 96.2873 117.339 95.7015C117.925 95.1157 117.925 94.1659 117.339 93.5802L65.7701 42.0113L67.5006 40.2807C67.7634 40.0179 67.6578 39.5704 67.3051 39.4528L59.4754 36.8429ZM48.4754 47.8429C48.0845 47.7126 47.7126 48.0845 47.8429 48.4754L50.4529 56.3051C50.5704 56.6578 51.0179 56.7634 51.2807 56.5006L52.6488 55.1326L104.218 106.701C104.803 107.287 105.753 107.287 106.339 106.701C106.925 106.116 106.925 105.166 106.339 104.58L54.7701 53.0113L56.5006 51.2807C56.7634 51.0179 56.6578 50.5704 56.3051 50.4529L48.4754 47.8429ZM36.8429 59.4754C36.7126 59.0845 37.0845 58.7126 37.4754 58.8429L45.3051 61.4528C45.6578 61.5704 45.7634 62.0179 45.5006 62.2807L43.7701 64.0113L95.339 115.58C95.9248 116.166 95.9248 117.116 95.339 117.701C94.7532 118.287 93.8034 118.287 93.2177 117.701L41.6488 66.1326L40.2807 67.5006C40.0179 67.7634 39.5704 67.6578 39.4528 67.3051L36.8429 59.4754Z" fill="white"/>
<path fill-rule="evenodd" clip-rule="evenodd" d="M46.1098 7.01001C46.4181 6.73665 46.282 6.22867 45.8783 6.14606L37.7926 4.49144C37.4285 4.41692 37.1132 4.75167 37.2094 5.1107L37.9329 7.81079L32.2454 11.0608C31.6581 11.3964 30.9188 11.2974 30.4405 10.8191L19.0607 -0.560666C18.4749 -1.14645 17.5251 -1.14644 16.9393 -0.560656C16.3535 0.0251343 16.3536 0.974882 16.9393 1.56066L28.3192 12.9404C29.7541 14.3753 31.9719 14.6723 33.7338 13.6655L38.7358 10.8072L39.12 12.2411C39.2162 12.6002 39.6566 12.7324 39.9347 12.4858L46.1098 7.01001ZM28.5979 29.2294C28.9887 29.3597 29.3606 28.9878 29.2303 28.5969L26.6204 20.7672C26.5028 20.4146 26.0553 20.3089 25.7925 20.5717L24.2427 22.1215L9.55948 7.43916C8.97367 6.85339 8.02393 6.85342 7.43816 7.43922C6.85239 8.02503 6.85242 8.97477 7.43822 9.56054L22.1214 24.2428L20.5727 25.7916C20.3098 26.0544 20.4155 26.5019 20.7681 26.6195L28.5979 29.2294ZM6.93925 46.3433C6.63468 46.6208 6.14403 46.4315 6.10477 46.0214L5.31831 37.8056C5.28289 37.4356 5.64923 37.1577 5.99601 37.2915L8.01139 38.0691L10.4066 31.7815C10.6171 31.2292 10.4835 30.6048 10.0656 30.1869L-1.06067 19.0605C-1.64645 18.4747 -1.64644 17.525 -1.06066 16.9392C-0.474866 16.3534 0.474881 16.3534 1.06067 16.9392L12.1869 28.0656C13.4407 29.3194 13.8413 31.1925 13.2101 32.8495L10.8103 39.1489L12.8832 39.9486C13.23 40.0824 13.3147 40.5344 13.04 40.7847L6.93925 46.3433Z" fill="white"/>
<path d="M58.6191 7L7.00034 58.6188" stroke="white" stroke-width="3" stroke-linecap="round" stroke-linejoin="round"/>
<path fill-rule="evenodd" clip-rule="evenodd" d="M23.0046 48.9794C23.0028 49.1044 23.002 49.2295 23.002 49.3546C23.002 52.8156 23.6836 56.2426 25.0081 59.4401C25.7444 61.2178 26.6714 62.9051 27.7699 64.4736L29.9283 62.3153C29.0846 61.0506 28.3643 59.7035 27.7797 58.2921C26.606 55.4586 26.002 52.4216 26.002 49.3546C26.002 48.1256 26.099 46.9015 26.2907 45.6932L23.0046 48.9794ZM45.6952 26.2888C46.9034 26.097 48.1276 26 49.3566 26C52.4236 26 55.4605 26.6041 58.294 27.7778C59.7054 28.3624 61.0525 29.0826 62.3173 29.9263L64.4756 27.768C62.9071 26.6694 61.2197 25.7425 59.4421 25.0061C56.2446 23.6817 52.8175 23 49.3566 23C49.2315 23 49.1064 23.0009 48.9813 23.0027L45.6952 26.2888ZM35.6886 56.5549L33.4849 58.7587C33.0399 58.0078 32.6478 57.2245 32.3123 56.4145C31.3852 54.1762 30.908 51.7773 30.908 49.3546C30.908 46.932 31.3852 44.533 32.3123 42.2948C33.2394 40.0566 34.5983 38.0228 36.3114 36.3098C38.0245 34.5967 40.0582 33.2378 42.2964 32.3107C44.5347 31.3836 46.9336 30.9064 49.3563 30.9064C51.7789 30.9064 54.1779 31.3836 56.4161 32.3107C57.2262 32.6462 58.0094 33.0383 58.7603 33.4832L56.5566 35.687C56.1373 35.4661 55.7074 35.2643 55.2681 35.0823C53.3938 34.306 51.385 33.9064 49.3563 33.9064C47.3276 33.9064 45.3188 34.306 43.4445 35.0823C41.5702 35.8587 39.8672 36.9966 38.4327 38.4311C36.9982 39.8656 35.8603 41.5686 35.084 43.4429C34.3076 45.3171 33.908 47.326 33.908 49.3546C33.908 51.3833 34.3076 53.3922 35.084 55.2664C35.2659 55.7058 35.4678 56.1357 35.6886 56.5549ZM49.3579 38.8128C50.5448 38.8128 51.7217 39.0132 52.8393 39.4042L50.3635 41.8801C50.0309 41.8354 49.695 41.8128 49.3579 41.8128C48.3675 41.8128 47.3868 42.0079 46.4718 42.3869C45.5568 42.7659 44.7254 43.3214 44.025 44.0217C43.3247 44.7221 42.7692 45.5535 42.3902 46.4685C42.0111 47.3835 41.8161 48.3642 41.8161 49.3546C41.8161 49.6917 41.8387 50.0276 41.8834 50.3602L39.4075 52.8361C39.0165 51.7184 38.8161 50.5415 38.8161 49.3546C38.8161 47.9703 39.0887 46.5994 39.6185 45.3205C40.1483 44.0415 40.9248 42.8793 41.9037 41.9004C42.8826 40.9215 44.0447 40.145 45.3237 39.6152C46.6027 39.0855 47.9736 38.8128 49.3579 38.8128Z" fill="white"/>
</g>
<defs>
<clipPath id="clip0_110_485">
<rect width="70" height="70" rx="35" fill="white"/>
</clipPath>
</defs>
</svg>
