<svg width="70" height="70" viewBox="0 0 70 70" fill="none" xmlns="http://www.w3.org/2000/svg">
<g clip-path="url(#clip0_110_542)">
<rect width="70" height="70" rx="35" fill="#404D5B"/>
<path d="M10.9722 48.3179C10.3057 48.8865 9.60597 49.4389 8.86944 49.9729C-0.885087 57.0453 3.68384 64.7071 7.18762 67.6539C13.9144 73.1265 20.6426 65.469 26.1085 59.2345C31.5744 53 44.4546 44.8937 49.5 39C54.5454 33.1063 58.4835 20.9255 54.2789 13.7689C50.0744 6.61235 39.9835 10.4011 31.5744 18.8207C29.9343 20.4628 28.5342 22.3131 27.2522 24.2935M10.9722 48.3179C10.9722 48.3179 21.904 51.236 27.7903 41.5535C33.6767 31.871 27.2522 24.2935 27.2522 24.2935M10.9722 48.3179C19.1876 41.3098 22.3583 31.8537 27.2522 24.2935" stroke="white" stroke-width="2"/>
<circle cx="36.5" cy="24.5" r="1.5" fill="white"/>
<circle cx="39.5" cy="20.5" r="1.5" fill="white"/>
<circle cx="43.5" cy="16.5" r="1.5" fill="white"/>
<circle cx="49.5" cy="17.5" r="1.5" fill="white"/>
<circle cx="45.5" cy="21.5" r="1.5" fill="white"/>
<circle cx="50.5" cy="23.5" r="1.5" fill="white"/>
<circle cx="41.5" cy="26.5" r="1.5" fill="white"/>
<circle cx="47.5" cy="28.5" r="1.5" fill="white"/>
<circle cx="41.5" cy="32.5" r="1.5" fill="white"/>
<circle cx="47.5" cy="33.5" r="1.5" fill="white"/>
<circle cx="36.5" cy="30.5" r="1.5" fill="white"/>
<circle cx="35.5" cy="36.5" r="1.5" fill="white"/>
<circle cx="39.5" cy="41.5" r="1.5" fill="white"/>
<circle cx="43.5" cy="37.5" r="1.5" fill="white"/>
<circle cx="33.5" cy="41.5" r="1.5" fill="white"/>
<circle cx="31.5" cy="46.5" r="1.5" fill="white"/>
<circle cx="27.5" cy="50.5" r="1.5" fill="white"/>
<circle cx="22.5" cy="53.5" r="1.5" fill="white"/>
<circle cx="17.5" cy="54.5" r="1.5" fill="white"/>
<circle cx="11.5" cy="54.5" r="1.5" fill="white"/>
<circle cx="7.5" cy="57.5" r="1.5" fill="white"/>
<circle cx="14.5" cy="59.5" r="1.5" fill="white"/>
<circle cx="9.5" cy="61.5" r="1.5" fill="white"/>
<circle cx="14.5" cy="64.5" r="1.5" fill="white"/>
<circle cx="20.5" cy="58.5" r="1.5" fill="white"/>
</g>
<defs>
<clipPath id="clip0_110_542">
<rect width="70" height="70" rx="35" fill="white"/>
</clipPath>
</defs>
</svg>
