<svg width="142" height="132" viewBox="0 0 142 132" fill="none" xmlns="http://www.w3.org/2000/svg">
<path fill-rule="evenodd" clip-rule="evenodd" d="M102.919 0.0631693L107.571 18.1097L130.349 11.1226L123.362 33.9002L141.408 38.5526L104.98 65.0657L135.583 76.8787L122.251 84.2827L133.002 101.236L113.25 100.212L113.644 115.706L81.0699 87.9498L68.7288 113.207L57.3269 86.3101L58.5079 85.1303L67.9834 75.1761L67.9516 94.833L68.9684 93.2592L70.9788 72.1806L73.473 69.5907L78.4614 64.4108L111.876 87.6569L111.299 86.5622L80.4288 62.4434L83.4498 59.231L88.4381 54.0511L89.3921 53.0621L111.455 49.2184L109.544 48.3437L91.1273 51.1704L93.4265 48.8712L98.4148 43.6913L118.368 22.9719L118.09 22.6933L96.7476 43.0604L86.0766 53.2439L83.4088 55.7898L79.3309 40.9284L79.1721 40.2515L80.7411 58.3357L75.4055 63.4275L56.0959 31.359L55.1404 30.9216L72.5558 66.2772L70.2243 68.6087L43.5797 73.0518L44.655 73.0908L66.1169 72.4028L55.7223 82.3447L17.0977 119.256L18.9083 121.067L20.6277 122.786L12.5858 131.261L0.598047 123.824L51.3543 82.5311L49.5782 81.7782L42.474 78.7667L28.2655 72.7435L53.4709 60.4276L25.2703 27.3323L40.7645 27.7261L39.74 7.97412L56.6936 18.7252L64.0976 5.39265L76.2071 36.7645L102.919 0.0631693Z" fill="#D9D9D9"/>
</svg>
