<svg width="105" height="108" viewBox="0 0 105 108" fill="none" xmlns="http://www.w3.org/2000/svg">
<path fill-rule="evenodd" clip-rule="evenodd" d="M87.4616 8.02561C68.4812 14.922 44.1346 23.7681 53.3035 57.2059C35.1587 74.0169 0.0631034 94.3329 0.0631034 94.3329L1.91868 99.6367C1.91868 99.6367 13.4709 93.7517 29.4924 82.4968C42.9045 87.6989 59.0085 92.5213 76.2803 94.6841C64.1625 95.4162 56.5397 92.9778 45.0513 89.3029C43.477 88.7994 41.8301 88.2725 40.089 87.7275C47.2228 109.823 65.008 114.844 98.5139 94.4015C94.9937 93.2157 91.0155 89.8263 86.5712 86.0398C74.5905 75.8323 59.2226 62.739 40.3095 82.1493C38.1173 81.4631 35.7975 80.6312 33.4119 79.6984C50.8196 67.0686 72.474 48.6419 90.3387 25.0026C83.3203 38.9965 75.712 45.9593 64.2455 56.453C62.6742 57.891 61.0304 59.3953 59.3058 60.9931C88.2515 67.0546 105.267 50.3853 104.384 0C100.805 3.17743 94.5025 5.46737 87.4616 8.02561Z" fill="#D9D9D9"/>
</svg>
