<svg width="103" height="109" viewBox="0 0 103 109" fill="none" xmlns="http://www.w3.org/2000/svg">
<path fill-rule="evenodd" clip-rule="evenodd" d="M45.4088 9.2982C44.6449 9.88857 44.5042 10.9865 45.0946 11.7504L51.3824 19.8866L50.4346 27.2819L45.7632 21.8191C45.1358 21.0854 44.0322 20.9992 43.2985 21.6266L42.1893 22.5752C41.4555 23.2026 41.3693 24.3061 41.9968 25.0399L49.5848 33.9135L48.5116 42.2886L44.7664 43.855L38.28 38.9132L37.3125 27.5345C37.2307 26.5725 36.3845 25.8589 35.4225 25.9407L33.9514 26.0658C32.9894 26.1476 32.2758 26.9938 32.3576 27.9558L32.9436 34.8476L26.7235 30.1087L24.9743 20.4711C24.8019 19.5211 23.892 18.8908 22.9421 19.0632L8.63495 21.6598C7.685 21.8323 7.05467 22.7421 7.22708 23.6921L9.82371 37.9992C9.99612 38.9492 10.906 39.5795 11.8559 39.4071L22.3886 37.4955L27.6759 41.5237L21.0071 42.7638C20.0579 42.9403 19.4315 43.8529 19.608 44.8021L19.8701 46.2116C20.0467 47.1608 20.9592 47.7872 21.9084 47.6107L32.9663 45.5543L39.5029 50.5343L38.9697 54.6955L31.2077 57.942L20.6219 52.9742C19.7479 52.5641 18.7069 52.9401 18.2967 53.8141L17.6831 55.1215C17.273 55.9956 17.649 57.0366 18.523 57.4468L25.0587 60.5138L18.6744 63.1841L9.36708 58.8654C8.4913 58.459 7.4519 58.8395 7.04552 59.7153L0.92515 72.9054C0.518773 73.7811 0.899305 74.8205 1.77509 75.2269L14.9651 81.3473C15.8409 81.7537 16.8803 81.3731 17.2867 80.4973L21.6142 71.1711L28.8335 68.1516L26.2832 75.3673C25.9615 76.2776 26.4386 77.2764 27.3489 77.5981L28.7329 78.0873C29.6432 78.409 30.642 77.9319 30.9637 77.0216L35.012 65.5674L41.7756 62.7385L45.5249 65.5949L44.4765 73.7755L35.4103 80.0908C34.6181 80.6426 34.4232 81.7322 34.9751 82.5244L35.8133 83.7277C36.3651 84.5199 37.4547 84.7148 38.2469 84.163L43.6255 80.4164L42.6532 88.0034L34.526 94.2843C33.7621 94.8747 33.6214 95.9725 34.2118 96.7365L43.1034 108.242C43.6937 109.006 44.7916 109.147 45.5556 108.556L57.061 99.6646C57.825 99.0742 57.9657 97.9763 57.3753 97.2124L51.088 89.0769L52.0559 81.5244L56.4635 86.6787C57.0909 87.4124 58.1944 87.4986 58.9282 86.8711L60.0408 85.9197C60.7746 85.2922 60.8608 84.1887 60.2333 83.455L52.9064 74.8869L53.9113 67.0453L58.6004 65.0841L64.826 69.8271L65.8239 81.5632C65.9057 82.5252 66.7518 83.2387 67.7138 83.157L69.1818 83.0321C70.1438 82.9503 70.8574 82.1042 70.7756 81.1422L70.159 73.8902L76.1179 78.4301L77.9028 88.2646C78.0752 89.2145 78.9851 89.8449 79.935 89.6725L94.2422 87.0758C95.1921 86.9034 95.8224 85.9936 95.65 85.0436L93.0534 70.7365C92.881 69.7865 91.9711 69.1562 91.0212 69.3286L80.6683 71.2076L75.4566 67.2369L82.526 65.9223C83.4752 65.7458 84.1015 64.8332 83.925 63.884L83.6539 62.4261C83.4774 61.4769 82.5648 60.8505 81.6156 61.027L70.1133 63.1661L63.6428 58.2364L64.2717 53.3294L70.9548 50.5341L81.6013 55.5304C82.4754 55.9406 83.5164 55.5645 83.9266 54.6905L84.5481 53.366C84.9583 52.492 84.5823 51.451 83.7083 51.0408L77.1273 47.9524L83.8147 45.1554L94.1556 49.9537C95.0314 50.3601 96.0708 49.9796 96.4771 49.1038L102.598 35.9137C103.004 35.0379 102.623 33.9985 101.748 33.5922L88.5575 27.4718C87.6817 27.0654 86.6423 27.4459 86.236 28.3217L82.4335 36.5165L74.7356 39.7362L76.8578 33.7319C77.1795 32.8216 76.7024 31.8229 75.7921 31.5011L74.3995 31.0089C73.4892 30.6872 72.4905 31.1643 72.1687 32.0746L68.5459 42.3251L60.5157 45.6838L56.9928 42.9997L57.9336 35.6579L68.1137 28.5667C68.9059 28.0149 69.1008 26.9253 68.549 26.1331L67.7171 24.9388C67.1652 24.1466 66.0756 23.9517 65.2834 24.5036L58.7827 29.0317L59.8173 20.9589L67.9438 14.6785C68.7078 14.0881 68.8485 12.9902 68.2581 12.2263L59.3665 0.72084C58.7761 -0.0430932 57.6782 -0.183788 56.9143 0.406592L45.4088 9.2982Z" fill="#D9D9D9"/>
</svg>
