<svg width="115" height="115" viewBox="0 0 115 115" fill="none" xmlns="http://www.w3.org/2000/svg">
<path fill-rule="evenodd" clip-rule="evenodd" d="M74.4789 2.26833L77.2924 15.4907C74.7698 14.289 72.1023 13.2995 69.3063 12.5503C66.5095 11.8009 63.7039 11.324 60.9177 11.1035L69.9658 1.05905C71.3994 -0.532456 74.0331 0.173229 74.4789 2.26833ZM30.5292 6.251L41.8732 13.6143C36.504 15.5168 31.5198 18.3946 27.1877 22.0935L26.4829 8.58715C26.3713 6.44806 28.7325 5.08478 30.5292 6.251ZM2.26841 40.1441L15.4925 37.3302C14.2906 39.8532 13.3008 42.5211 12.5515 45.3177C11.8021 48.1144 11.3253 50.9201 11.1047 53.7063L1.05913 44.6572C-0.532369 43.2236 0.173317 40.5899 2.26841 40.1441ZM6.25115 84.0936L13.6149 72.7489C15.5172 78.1184 18.3949 83.1028 22.0938 87.4351L8.58731 88.1399C6.44822 88.2516 5.08493 85.8903 6.25115 84.0936ZM40.1442 112.355L37.3304 99.1309C39.8537 100.333 42.522 101.323 45.3189 102.072C48.1151 102.822 50.9201 103.298 53.7057 103.519L44.6573 113.564C43.2237 115.155 40.59 114.45 40.1442 112.355ZM84.0937 108.372L72.7502 101.009C78.1192 99.1068 83.1033 96.2295 87.4352 92.5311L88.14 106.036C88.2517 108.175 85.8904 109.538 84.0937 108.372ZM112.355 74.4788L99.1328 77.2922C100.335 74.7693 101.324 72.1015 102.074 69.305C102.823 66.5089 103.3 63.7039 103.52 60.9183L113.564 69.9657C115.155 71.3993 114.45 74.033 112.355 74.4788ZM108.372 30.5292L101.01 41.872C99.1073 36.5032 96.2298 31.5194 92.5314 27.1876L106.036 26.4828C108.175 26.3712 109.538 28.7325 108.372 30.5292ZM46.2628 98.5387C69.0321 104.64 92.436 91.1275 98.537 68.3582C104.638 45.589 91.1257 22.1851 68.3565 16.0841C45.5873 9.98312 22.1834 23.4954 16.0824 46.2646C9.98137 69.0338 23.4936 92.4377 46.2628 98.5387Z" fill="#D9D9D9"/>
</svg>
