<svg width="70" height="70" viewBox="0 0 70 70" fill="none" xmlns="http://www.w3.org/2000/svg">
<g clip-path="url(#clip0_110_704)">
<rect width="70" height="70" rx="35" fill="#404D5B"/>
<path d="M84.9106 53.9994C84.744 52.166 98 43.3 92 46.5C86 49.7 66 60.3783 53.5884 54.9999C40.0884 49.1499 29.9993 60.4993 23.9993 52.4993C17.9993 44.4993 30.068 35.9993 22.91 10.9987C14.3204 -19.0017 27.9994 -32.5007 27.9994 -32.5007" stroke="white" stroke-width="3"/>
<path d="M8.92409 30.5035C8.53356 30.3721 8.46059 29.8513 8.79998 29.6177L15.5984 24.9381C15.9046 24.7274 16.3255 24.9125 16.3771 25.2806L17.4013 32.5912C17.4529 32.9593 17.0991 33.2529 16.7468 33.1345L8.92409 30.5035Z" fill="white"/>
<path d="M59.9802 23.7485C60.3707 23.8798 60.4437 24.4007 60.1043 24.6343L53.3059 29.3138C52.9997 29.5246 52.5788 29.3394 52.5272 28.9713L51.503 21.6608C51.4514 21.2927 51.8052 20.999 52.1575 21.1175L59.9802 23.7485Z" fill="white"/>
<path d="M44.615 -2.99928C41.7656 21.0866 43.2032 27.3386 48.1016 33.4197C53 39.5007 58.9229 45.1312 92.9641 46.2107" stroke="white" stroke-width="3"/>
</g>
<defs>
<clipPath id="clip0_110_704">
<rect width="70" height="70" rx="35" fill="white"/>
</clipPath>
</defs>
</svg>
