<svg width="70" height="70" viewBox="0 0 70 70" fill="none" xmlns="http://www.w3.org/2000/svg">
<g clip-path="url(#clip0_110_603)">
<rect width="70" height="70" rx="35" fill="#404D5B"/>
<path fill-rule="evenodd" clip-rule="evenodd" d="M28.9792 18.9792C22.3403 25.6181 22.3403 36.3819 28.9792 43.0208C35.6181 49.6597 46.3819 49.6597 53.0208 43.0208C59.6597 36.3819 59.6597 25.6181 53.0208 18.9792C46.3819 12.3403 35.6181 12.3403 28.9792 18.9792ZM26.8579 16.8579C19.0474 24.6683 19.0474 37.3316 26.8579 45.1421C34.6683 52.9526 47.3316 52.9526 55.1421 45.1421C62.9526 37.3317 62.9526 24.6684 55.1421 16.8579C47.3317 9.04738 34.6684 9.04738 26.8579 16.8579ZM33.2208 23.2218C28.925 27.5176 28.925 34.4824 33.2208 38.7782C37.5165 43.0739 44.4814 43.0739 48.7771 38.7782C53.0729 34.4824 53.0729 27.5176 48.7771 23.2218C44.4814 18.9261 37.5165 18.9261 33.2208 23.2218ZM31.0995 21.1005C25.6321 26.5678 25.6321 35.4322 31.0995 40.8995C36.5668 46.3668 45.4311 46.3668 50.8984 40.8995C56.3658 35.4322 56.3658 26.5678 50.8984 21.1005C45.4311 15.6332 36.5668 15.6332 31.0995 21.1005ZM37.4663 34.5355C35.5137 32.5829 35.5137 29.4171 37.4663 27.4645C39.4189 25.5118 42.5847 25.5118 44.5373 27.4645C46.49 29.4171 46.49 32.5829 44.5373 34.5355C42.5847 36.4882 39.4189 36.4882 37.4663 34.5355ZM35.345 36.6569C32.2208 33.5327 32.2208 28.4673 35.345 25.3431C38.4692 22.219 43.5345 22.219 46.6587 25.3431C49.7829 28.4673 49.7829 33.5327 46.6587 36.6569C43.5345 39.781 38.4691 39.781 35.345 36.6569Z" fill="white"/>
<path d="M25.5807 -8.40757C21.0009 17.9999 9.06901 29.1554 20.0009 45.9999C30.9327 62.8444 50 55.9998 82.0001 49.4999" stroke="white" stroke-width="3"/>
<path d="M2.20331 60.9345L4.10321 63.2528L42.665 34.2843C43.5747 33.601 43.7318 32.2975 43.0106 31.4175L41.0608 29.0384C40.3396 28.1584 39.0307 28.0565 38.182 28.8142L2.20331 60.9345Z" fill="white" stroke="#404D5B" stroke-width="3"/>
</g>
<defs>
<clipPath id="clip0_110_603">
<rect width="70" height="70" rx="35" fill="white"/>
</clipPath>
</defs>
</svg>
