<svg width="70" height="70" viewBox="0 0 70 70" fill="none" xmlns="http://www.w3.org/2000/svg">
<g clip-path="url(#clip0_110_628)">
<rect width="70" height="70" rx="35" fill="#404D5B"/>
<path d="M5.93257 -0.170356C5.35227 2.38283 3.0297 11.3179 9.41426 17.7992C11.4454 19.8612 -3.58211 27.1072 -6 27.5L-3 31.9399C-1.25909 31.8417 7.85758 28.2134 12.5 23.5C12.5 23.5 12.5 28.0601 15 30C17.5 31.9399 19.5697 31.3509 20.4401 31.9399C21.3106 32.529 20.7303 34.5912 19.8598 36.6535C14.9639 48.2532 24.1155 58.2324 25.3728 60M41.6212 71.5C40.1704 69.8306 19.0145 51 24.1741 38.1264C24.9732 36.1325 26.2813 34.3707 26.5715 34.076C26.8616 33.7812 27.4038 32.2344 29.4348 36.0642C39.0098 54.1188 66.8265 33.1183 73.5 30.4669M64.1295 30.4669C62.2919 31.6453 36.5603 45.4177 33.4969 31.9399C32.6935 28.4051 39.9315 28.9949 41.6212 19.2731C42.4916 14.265 39.8803 13.3813 39.8803 9.55139C39.8803 5.72148 46.4508 2.77563 45 -2.52714C44.6776 -3.70554 41.0409 -3.70554 39.0098 -4C39.0098 -4 39.6627 -0.847988 38.1393 1.00804C36.6886 2.77563 35.2378 4.24862 34.6575 6.90001C34.0772 9.55139 34.3674 11.9082 34.3674 11.9082C32.7232 10.828 28.9125 5.25025 31.4659 -2.52714L25.953 -4C23.0515 3.95402 25.953 15.4434 34.0772 18.0947C37.7627 19.2975 31.4659 26.4471 27.9841 23.5C24.5022 20.5529 26.2431 19.0821 22.4712 16.4307C18.6992 13.7793 11.1553 17.2109 10.2848 8.37205C9.70453 4.54227 10.8651 1.79269 11.1553 1.00709" stroke="white" stroke-width="2" stroke-linecap="round" stroke-linejoin="round"/>
</g>
<defs>
<clipPath id="clip0_110_628">
<rect width="70" height="70" rx="35" fill="white"/>
</clipPath>
</defs>
</svg>
