<svg width="70" height="70" viewBox="0 0 70 70" fill="none" xmlns="http://www.w3.org/2000/svg">
<g clip-path="url(#clip0_110_636)">
<rect width="70" height="70" rx="35" fill="#404D5B"/>
<circle cx="35" cy="47" r="26.5" stroke="white" stroke-width="3"/>
<path d="M51 26C51 19.0044 49.3684 10 35.5 10C21.6316 10 20 19.0044 20 26" stroke="white" stroke-width="3"/>
<path d="M30.4979 54.7348L25.5887 48.6575L23.5285 50.8232V54.7348H20V39.2652H23.5285V46.4917L30.3226 39.2652H34.2675L27.9118 46.1602L34.6401 54.7348H30.4979Z" fill="white"/>
<path d="M46.4715 51.2873V46.7569H49.7151V53.0331C48.0275 54.3149 45.7044 55 43.5128 55C38.6912 55 35.1407 51.663 35.1407 47C35.1407 42.337 38.6912 39 43.5785 39C46.2742 39 48.5097 39.9282 50 41.674L47.7207 43.7956C46.603 42.6022 45.3099 42.0497 43.7539 42.0497C40.7732 42.0497 38.735 44.0608 38.735 47C38.735 49.895 40.7732 51.9503 43.71 51.9503C44.6743 51.9503 45.5729 51.7735 46.4715 51.2873Z" fill="white"/>
</g>
<defs>
<clipPath id="clip0_110_636">
<rect width="70" height="70" rx="35" fill="white"/>
</clipPath>
</defs>
</svg>
