<svg width="788" height="268" viewBox="0 0 788 268" fill="none" xmlns="http://www.w3.org/2000/svg">
<path d="M0 196.483V176.91L139.863 2.25842H170.022L31.2902 176.91L16.5876 172.393H228.833V196.483H0ZM148.911 265.742V196.483L149.665 172.393V111.416H176.054V265.742H148.911Z" fill="#8996A5"/>
<path d="M389.104 268C368.746 268 350.651 262.73 334.817 252.191C318.983 241.401 306.543 226.094 297.495 206.27C288.447 186.195 283.923 162.105 283.923 134C283.923 105.895 288.447 81.9307 297.495 62.1067C306.543 42.0318 318.983 26.7247 334.817 16.1854C350.651 5.39513 368.746 0 389.104 0C409.461 0 427.556 5.39513 443.39 16.1854C459.224 26.7247 471.664 42.0318 480.712 62.1067C490.011 81.9307 494.661 105.895 494.661 134C494.661 162.105 490.011 186.195 480.712 206.27C471.664 226.094 459.224 241.401 443.39 252.191C427.556 262.73 409.461 268 389.104 268ZM389.104 243.157C404.686 243.157 418.257 239.017 429.818 230.736C441.379 222.204 450.427 209.908 456.962 193.848C463.496 177.537 466.763 157.588 466.763 134C466.763 110.412 463.496 90.588 456.962 74.5281C450.427 58.2172 441.379 45.9214 429.818 37.6405C418.257 29.1086 404.686 24.8427 389.104 24.8427C374.024 24.8427 360.578 29.1086 348.766 37.6405C336.953 45.9214 327.78 58.2172 321.245 74.5281C314.711 90.588 311.444 110.412 311.444 134C311.444 157.588 314.711 177.537 321.245 193.848C327.78 209.908 336.953 222.204 348.766 230.736C360.578 239.017 374.024 243.157 389.104 243.157Z" fill="#8996A5"/>
<path d="M559.167 196.483V176.91L699.03 2.25842H729.19L590.457 176.91L575.755 172.393H788V196.483H559.167ZM708.078 265.742V196.483L708.832 172.393V111.416H735.221V265.742H708.078Z" fill="#8996A5"/>
</svg>
