<svg width="550" height="302" viewBox="0 0 550 302" fill="none" xmlns="http://www.w3.org/2000/svg">
<path d="M407.034 89.2798C407.034 89.2798 278.457 214.44 256.762 235.483C235.068 256.525 229.777 271.899 262.054 294.928C294.33 317.956 385.87 379.923 402.272 390.79C411.344 396.8 441.428 420.959 467.355 408.463C492.224 396.477 492.738 349.017 522.384 179.786C541.094 72.9816 548.31 7.87103 549.369 -6.04928C550.427 -19.9696 556.247 -61.2834 494.869 -41.9303C462.592 -31.7535 317.612 29.2992 317.612 29.2992C317.612 29.2992 125.539 114.45 53.0489 144.976C-25.262 177.953 -1.45101 192.104 27.1218 203.35C96.4372 230.633 142.471 242.98 179.51 217.81C216.549 192.639 390.102 75.8913 390.102 75.8913C390.102 75.8913 405.976 64.645 412.855 69.4648C421.85 75.7679 407.034 89.2798 407.034 89.2798Z" fill="#9BA9BA"/>
</svg>
