<svg width="599" height="302" viewBox="0 0 599 302" fill="none" xmlns="http://www.w3.org/2000/svg">
<path d="M241.297 221.462V-25L337.91 -25V115.963C407.659 105.191 459.972 37.8521 480.237 -25L495.632 -24.9998C524.823 -24.9995 542.775 -24.9993 576.378 -25C566.01 47.2796 505.215 119.108 445.362 152.327C494.375 175.224 571.666 231.789 599 331H492.49C468.455 257.827 406.246 210.24 337.91 203.953V331C57.4966 331 0 120.006 0 -25C39.5877 -24.9997 59.8528 -24.9993 102.268 -25C102.268 85.8874 150.339 199.466 241.297 221.462Z" fill="#9BA9BA"/>
</svg>
