<svg width="200" height="200" viewBox="0 0 200 200" fill="none" xmlns="http://www.w3.org/2000/svg">
<rect width="200" height="200" rx="100" fill="white"/>
<path d="M115.306 88.7525C115.306 88.7525 93.097 110.567 89.3499 114.234C85.6027 117.902 84.6887 120.582 90.2638 124.595C95.8389 128.609 111.65 139.409 114.483 141.303C116.05 142.351 121.247 146.561 125.725 144.383C130.02 142.294 130.109 134.023 135.23 104.527C138.462 85.9118 139.708 74.5636 139.891 72.1374C140.074 69.7112 141.079 62.5105 130.477 65.8836C124.902 67.6573 99.8603 78.2983 99.8603 78.2983C99.8603 78.2983 66.684 93.1395 54.163 98.4599C40.6366 104.208 44.7494 106.674 49.6847 108.634C61.6573 113.389 69.6087 115.541 76.0063 111.154C82.4039 106.767 112.381 86.419 112.381 86.419C112.381 86.419 115.123 84.4588 116.311 85.2989C117.865 86.3975 115.306 88.7525 115.306 88.7525Z" fill="#F3A83F"/>
</svg>
