<svg width="200" height="200" viewBox="0 0 200 200" fill="none" xmlns="http://www.w3.org/2000/svg">
<rect width="200" height="200" rx="100" fill="white"/>
<path d="M85.7286 117.769V70H104.438V97.3216C117.946 95.2337 128.076 82.182 132.001 70L134.982 70C140.635 70.0001 144.112 70.0001 150.619 70C148.611 84.0092 136.838 97.9311 125.247 104.369C134.739 108.807 149.707 119.771 155 139H134.374C129.719 124.818 117.672 115.594 104.438 114.376V139C50.1346 139 39 98.1051 39 70C46.6664 70.0001 50.5909 70.0001 58.8049 70C58.8049 91.4922 68.1141 113.506 85.7286 117.769Z" fill="#F3A83F"/>
</svg>
