<svg width="19" height="16" viewBox="0 0 19 16" fill="none" xmlns="http://www.w3.org/2000/svg">
<path d="M13.8145 4.63173C13.8145 4.63173 9.45065 8.88556 8.71436 9.60072C7.97808 10.3159 7.79849 10.8384 8.89394 11.6211C9.9894 12.4037 13.0962 14.5098 13.6529 14.8791C13.9608 15.0834 14.9818 15.9045 15.8617 15.4798C16.7058 15.0724 16.7232 13.4594 17.7294 7.70777C18.3644 4.07781 18.6093 1.8649 18.6452 1.39179C18.6812 0.918681 18.8787 -0.48545 16.7955 0.172303C15.7001 0.518182 10.7796 2.59318 10.7796 2.59318C10.7796 2.59318 4.26072 5.4872 1.80045 6.52468C-0.857379 7.64546 -0.0492464 8.1264 0.920496 8.50863C3.27302 9.4359 4.83539 9.85554 6.09246 9.00007C7.34954 8.14461 13.2398 4.1767 13.2398 4.1767C13.2398 4.1767 13.7786 3.79447 14.012 3.95828C14.3173 4.1725 13.8145 4.63173 13.8145 4.63173Z" fill="#404D5B"/>
</svg>
