<svg width="212" height="43" viewBox="0 0 212 43" fill="none" xmlns="http://www.w3.org/2000/svg">
<path d="M12.8003 1.43455L5.32718 0.538574L0.927734 37.2407L8.40081 38.1366L12.8003 1.43455Z" fill="black"/>
<path fill-rule="evenodd" clip-rule="evenodd" d="M36.7791 38.9081C34.0727 40.7969 30.7466 41.7029 27.3149 41.2155C19.8186 40.1508 14.6572 32.8406 15.7866 24.8876C16.9159 16.9346 23.9083 11.3506 31.4045 12.4152C34.7237 12.8867 37.5851 14.5825 39.6453 17.0165L39.9203 17.0494L40.2332 14.4396L47.2637 15.2825L44.0057 42.4616L36.9752 41.6187L37.2928 38.9697L36.7791 38.9081ZM23.8772 24.0343C24.1841 21.2655 26.6771 19.2697 29.4456 19.5765L33.9238 20.0729C36.6924 20.3797 38.688 22.873 38.3812 25.6419L37.8721 30.2356C37.5653 33.0044 35.0722 35.0002 32.3037 34.6934L27.8255 34.1971C25.057 33.8902 23.0614 31.3969 23.3682 28.6281L23.8772 24.0343Z" fill="black"/>
<path fill-rule="evenodd" clip-rule="evenodd" d="M194.279 37.8968C197.744 37.9736 201.003 36.6496 203.466 34.453L203.984 34.4532V37.2243L211.064 37.227L211.074 9.65L203.993 9.64725L203.992 12.376L203.715 12.3759C201.381 10.2036 198.338 8.85923 194.987 8.78497C187.417 8.61727 181.137 14.9916 180.959 23.0224C180.781 31.0532 186.71 37.7291 194.279 37.8968ZM193.891 16.1281C191.106 16.1519 188.867 18.4295 188.891 21.2151L188.931 25.8368C188.954 28.6225 191.232 30.8614 194.017 30.8376L198.522 30.7991C201.308 30.7753 203.547 28.4977 203.523 25.7121L203.483 21.0904C203.459 18.3047 201.182 16.0658 198.397 16.0896L193.891 16.1281Z" fill="black"/>
<path fill-rule="evenodd" clip-rule="evenodd" d="M166.691 35.0645C164.712 36.8796 163.604 37.8968 158.177 37.8968C150.607 37.7291 144.678 31.0532 144.856 23.0224C145.034 14.9916 151.315 8.61727 158.884 8.78497C162.236 8.85923 165.105 10.2036 167.439 12.3759L167.716 12.376L167.717 0.906946L175.114 0.909701L175.104 37.227L167.881 37.2243V34.4532L167.364 34.453C167.126 34.6654 166.904 34.8688 166.692 35.0631L166.691 35.0645ZM152.789 21.2151C152.765 18.4295 155.003 16.1519 157.789 16.1281L162.294 16.0896C165.08 16.0658 167.357 18.3047 167.381 21.0904L167.42 25.7121C167.444 28.4977 165.205 30.7753 162.42 30.7991L157.915 30.8376C155.129 30.8614 152.852 28.6225 152.828 25.8368L152.789 21.2151Z" fill="black"/>
<path fill-rule="evenodd" clip-rule="evenodd" d="M125.182 37.8968C135.774 37.8968 140.481 30.667 140.481 23.4371C140.481 16.2073 135.438 8.97746 125.182 8.97746C114.927 8.97746 109.884 15.871 109.884 23.4371C109.884 31.0032 114.591 37.8968 125.182 37.8968ZM122.997 16.0392C120.211 16.0392 117.953 18.2975 117.953 21.0832V25.791C117.953 28.5768 120.211 30.8351 122.997 30.8351H127.368C130.153 30.8351 132.412 28.5768 132.412 25.791V21.0832C132.412 18.2975 130.153 16.0392 127.368 16.0392H122.997Z" fill="black"/>
<path d="M72.8976 8.64119C67.854 8.64119 64.4916 11.6676 64.1554 12.6764H63.1467V9.65H56.0857V37.2243H63.4829V22.2602C63.4829 19.4019 63.9537 16.3754 69.8714 16.3754C75.7892 16.3754 76.2599 19.0656 76.2599 22.092V37.2243H83.9934V20.1243C84.4058 18.072 85.783 16.3754 90.2138 16.3754C95.2344 16.3754 96.3344 18.3117 96.5525 20.747H96.4342V37.2243H104.168V20.747H104.132C103.61 11.2835 97.5363 8.97746 92.2312 8.97746C87.3167 8.97746 84.3178 11.2124 82.9232 13.349H82.1393C81.1927 11.7065 78.0668 8.64119 72.8976 8.64119Z" fill="black"/>
</svg>
