<svg width="211" height="28" viewBox="0 0 211 28" fill="none" xmlns="http://www.w3.org/2000/svg">
<path fill-rule="evenodd" clip-rule="evenodd" d="M130.098 21.8357H124.934V18.2155C124.934 18.2155 123.345 22.2379 118.578 22.2379C118.578 22.2379 112.222 22.2379 112.222 16.2042C112.222 11.1498 116.705 10.1445 120.261 9.34711C122.599 8.82289 124.536 8.38847 124.536 6.95255C124.536 4.94132 121.756 4.94132 121.756 4.94132C118.18 4.94132 118.18 8.15929 118.18 8.15929H112.619C112.619 8.15929 111.824 0.516602 121.756 0.516602C130.495 0.516602 130.098 7.75704 130.098 7.75704V21.8357ZM124.934 11.7795C124.934 11.7795 124.745 17.411 119.769 17.411C116.989 17.411 117.386 15.3997 117.386 15.3997C117.386 13.9188 119.181 13.498 121.21 13.0223C122.488 12.7226 123.859 12.4012 124.934 11.7795Z" fill="#6833B0"/>
<path fill-rule="evenodd" clip-rule="evenodd" d="M33.5657 12.1818H47.8667C47.8667 12.1818 49.0585 0.516608 38.3327 0.516608C31.9767 0.516608 28.0041 4.94132 28.0041 10.975C28.0041 17.8132 32.3739 22.2379 38.3327 22.2379C47.0722 22.2379 47.8667 14.193 47.8667 14.193H42.3052C42.3052 14.193 41.908 17.0087 38.3327 17.0087C33.5657 17.0087 33.5657 12.1818 33.5657 12.1818ZM42.3052 8.56154H33.5657C33.5657 8.56154 34.1781 4.94132 38.3327 4.94132C42.3052 4.94132 42.3052 8.56154 42.3052 8.56154Z" fill="#6833B0"/>
<path d="M4.16902 0.918854L0.59375 21.8357H5.75803L7.74429 8.56154L11.7168 21.8357H16.0866L20.4564 8.56154L22.0454 21.8357H26.8124L23.6344 0.918854H18.0728L14.1003 13.3885L10.1278 0.918854H4.16902Z" fill="#6833B0"/>
<path d="M87.5919 0.918854L84.0167 21.8357H89.181L91.1672 8.56154L95.1397 21.8357H99.5095L103.879 8.56154L105.468 21.8357H110.235L107.057 0.918854H101.496L97.5233 13.3885L93.5507 0.918854H87.5919Z" fill="#6833B0"/>
<path d="M50.2503 0.918854V21.8357H55.8118V6.14806H63.3596V0.918854H50.2503Z" fill="#6833B0"/>
<path d="M199.22 21.8357V6.14806H193.658V0.918854H210.74V6.14806H204.781V21.8357H199.22Z" fill="#6833B0"/>
<path d="M154.33 21.8357V0.918854H159.892V8.56154H162.275L166.248 0.918854H172.604L167.042 10.975L173.398 21.8357H167.042L162.275 13.7907H159.892V21.8357H154.33Z" fill="#6833B0"/>
<path fill-rule="evenodd" clip-rule="evenodd" d="M192.069 12.1818H177.768C177.768 12.1818 177.768 17.0087 182.535 17.0087C186.508 17.0087 186.508 14.193 186.508 14.193H192.069C192.069 14.193 191.672 22.2379 182.932 22.2379C176.974 22.2379 172.604 17.8132 172.604 10.975C172.604 4.94132 176.179 0.516608 182.932 0.516608C193.261 0.516608 192.069 12.1818 192.069 12.1818ZM186.508 8.56154H178.165C178.165 8.56154 178.778 4.94132 182.932 4.94132C186.508 4.94132 186.508 8.56154 186.508 8.56154Z" fill="#6833B0"/>
<path fill-rule="evenodd" clip-rule="evenodd" d="M132.879 0.918854V27.4671H138.44V18.2155C138.44 18.2155 139.632 22.2379 144.399 22.2379C149.166 22.2379 151.55 17.8132 151.55 11.3773C151.55 2.12559 147.974 0.516608 144.002 0.516608C140.029 0.516608 138.44 4.13683 138.44 4.13683V0.918854H132.879ZM142.81 5.34356C138.043 5.34356 138.44 11.3773 138.44 11.3773C138.44 11.3773 138.043 17.0087 142.81 17.0087C146.783 17.0087 146.385 11.3773 146.385 11.3773C146.385 11.3773 146.385 5.34356 142.81 5.34356Z" fill="#6833B0"/>
<path fill-rule="evenodd" clip-rule="evenodd" d="M76.8661 21.8357H82.0304V7.75705C82.0304 7.75705 82.4277 0.516608 73.6881 0.516608C63.7568 0.516608 64.5513 8.1593 64.5513 8.1593H70.1129C70.1129 8.1593 70.1129 4.94132 73.6881 4.94132C73.6881 4.94132 76.4689 4.94132 76.4689 6.95256C76.4689 8.38848 74.5315 8.8229 72.1936 9.34712C68.6372 10.1446 64.1541 11.1498 64.1541 16.2042C64.1541 22.2379 70.5101 22.2379 70.5101 22.2379C75.2771 22.2379 76.8661 18.2155 76.8661 18.2155V21.8357ZM71.7019 17.411C76.6773 17.411 76.8661 11.7795 76.8661 11.7795C75.7917 12.4012 74.4206 12.7226 73.1426 13.0223C71.1132 13.498 69.3184 13.9188 69.3184 15.3997C69.3184 15.3997 68.9211 17.411 71.7019 17.411Z" fill="#6833B0"/>
</svg>
