<svg width="212" height="51" viewBox="0 0 212 51" fill="none" xmlns="http://www.w3.org/2000/svg">
<path fill-rule="evenodd" clip-rule="evenodd" d="M46.9487 25.4998C46.9487 39.0611 36.6251 50.0547 23.8904 50.0547C11.1557 50.0547 0.832031 39.0611 0.832031 25.4998C0.832031 11.9384 11.1557 0.944824 23.8904 0.944824C36.6251 0.944824 46.9487 11.9384 46.9487 25.4998ZM35.7007 25.4998C35.7007 32.4458 30.413 38.0767 23.8904 38.0767C17.3677 38.0767 12.08 32.4458 12.08 25.4998C12.08 18.5537 17.3677 12.9228 23.8904 12.9228C30.413 12.9228 35.7007 18.5537 35.7007 25.4998Z" fill="#005CFF"/>
<path fill-rule="evenodd" clip-rule="evenodd" d="M161.678 25.4998C161.678 39.0611 147.2 50.0547 129.34 50.0547C111.48 50.0547 97.0022 39.0611 97.0022 25.4998C97.0022 11.9384 111.48 0.944824 129.34 0.944824C147.2 0.944824 161.678 11.9384 161.678 25.4998ZM150.43 25.4998C150.43 27.3988 149.435 30.2559 145.676 33.1101C141.94 35.947 136.2 38.0767 129.34 38.0767C122.48 38.0767 116.74 35.947 113.004 33.1101C109.245 30.2559 108.25 27.3988 108.25 25.4998C108.25 23.6008 109.245 20.7437 113.004 17.8894C116.74 15.0526 122.48 12.9228 129.34 12.9228C136.2 12.9228 141.94 15.0526 145.676 17.8894C149.435 20.7437 150.43 23.6008 150.43 25.4998Z" fill="#005CFF"/>
<path d="M50.9739 45.9734L74.1222 13.5217H59.0403C56.0896 13.5217 53.6975 10.9744 53.6975 7.83219C53.6975 4.68993 56.0895 2.14263 59.0403 2.14263H82.2391L92.7518 2.06462C94.1567 2.05417 94.9574 3.76994 94.1012 4.95619L70.8439 37.1783H88.7068C91.7352 37.1783 94.1902 39.7927 94.1902 43.0176C94.1902 46.2426 91.7352 48.8569 88.7068 48.8569H52.3174C50.9224 48.8569 50.1301 47.1564 50.9739 45.9734Z" fill="#005CFF"/>
<path d="M200.202 26.8475L171.661 2.5918C170.587 1.69235 168.708 2.15308 168.708 3.63995V43.0124C168.708 46.2404 171.45 48.8571 174.376 48.8571C177.302 48.8571 179.675 46.2404 179.675 43.0124V24.302L208.498 48.4077C209.574 49.3203 211.178 48.8214 211.169 47.3239V7.83219C211.169 4.68693 208.396 2.14263 205.545 2.14263C202.694 2.14263 200.202 4.69234 200.202 7.83745V26.8475Z" fill="#005CFF"/>
</svg>
