<svg width="240" height="38" viewBox="0 0 240 38" fill="none" xmlns="http://www.w3.org/2000/svg">
<path d="M106.233 4.4699L102.103 10.6749C99.5794 6.53822 92.4665 6.99785 92.4665 11.1345C92.4665 13.0558 94.8303 13.848 97.6758 14.8016C101.978 16.2433 107.38 18.054 107.38 24.6935C107.38 32.2774 102.103 37.1034 94.0727 37.1034C86.0421 37.1034 82.3709 32.737 82.3709 32.737L86.501 25.3829C90.8604 30.4388 98.891 30.4388 98.891 25.8426C98.891 23.6669 96.2865 22.7761 93.2216 21.7279C88.8403 20.2294 83.5182 18.4091 83.5182 12.0537C83.5182 7.22766 86.0421 0.333252 95.4493 0.333252C103.021 0.333252 106.233 4.4699 106.233 4.4699Z" fill="#467575"/>
<path fill-rule="evenodd" clip-rule="evenodd" d="M0 36.1842V1.25251H12.3901C17.8967 1.25251 29.5985 5.38915 29.5985 18.9482C29.5985 32.5072 17.8967 36.1842 12.3901 36.1842H0ZM8.94858 28.3705C8.94864 24.821 8.94855 22.3127 8.94848 19.993V19.9777C8.94837 16.7467 8.94828 13.8783 8.94858 9.06618C15.6023 9.06618 21.1092 12.2836 21.1092 18.7184C21.1092 25.1532 15.6023 28.3705 8.94858 28.3705Z" fill="#467575"/>
<path d="M34.6463 12.2836V36.1842H41.7591V25.3829C41.7591 15.9606 51.3958 19.8674 51.3958 19.8674V12.5134C49.5602 11.8239 44.5124 12.7432 41.7591 16.4202L42.218 12.2836H34.6463Z" fill="#467575"/>
<path d="M111.511 1.48232V24.6935C111.511 28.1407 114.264 37.1034 126.424 37.1034C138.585 37.1034 141.109 28.3705 141.109 24.6935V1.48232H132.161V22.3954C132.161 25.3829 130.554 29.06 126.424 29.06C122.294 29.06 120.688 25.3829 120.688 22.3954V1.48232H111.511Z" fill="#467575"/>
<path fill-rule="evenodd" clip-rule="evenodd" d="M147.075 1.48232V36.1842H155.794V23.0848L164.512 36.1842H175.985L164.971 21.7059C164.971 21.7059 172.314 20.327 172.314 12.2836C172.314 1.02269 160.841 1.48232 160.841 1.48232H147.075ZM155.793 13.1296C155.793 14.2316 155.794 15.4241 155.793 17.1096C160.612 17.1096 163.365 15.7308 163.365 12.5134C163.365 9.29599 160.382 7.9171 155.793 7.9171C155.793 10.2168 155.793 11.5843 155.793 13.1296Z" fill="#467575"/>
<path d="M205.583 1.48232V36.1842H215.22V1.48232H205.583Z" fill="#467575"/>
<path d="M220.268 1.48232V36.1842H240V28.3705H229.216V1.48232H220.268Z" fill="#467575"/>
<path d="M196.635 10.6749L200.765 4.4699C200.765 4.4699 197.553 0.333252 189.981 0.333252C180.574 0.333252 178.05 7.22766 178.05 12.0537C178.05 18.4091 183.372 20.2294 187.753 21.7279C190.818 22.7761 193.423 23.6669 193.423 25.8426C193.423 30.4388 185.392 30.4388 181.033 25.3829L176.902 32.737C176.902 32.737 180.574 37.1034 188.604 37.1034C196.635 37.1034 201.912 32.2774 201.912 24.6935C201.912 18.054 196.509 16.2433 192.207 14.8016C189.362 13.848 186.998 13.0558 186.998 11.1345C186.998 6.99785 194.111 6.53822 196.635 10.6749Z" fill="#467575"/>
<path d="M58.5086 37.3333C61.6766 37.3333 64.2447 34.761 64.2447 31.5879C64.2447 28.4148 61.6766 25.8426 58.5086 25.8426C55.3406 25.8426 52.7725 28.4148 52.7725 31.5879C52.7725 34.761 55.3406 37.3333 58.5086 37.3333Z" fill="#467575"/>
</svg>
