<svg width="212" height="25" viewBox="0 0 212 25" fill="none" xmlns="http://www.w3.org/2000/svg">
<path d="M207.145 7.27127L210.391 5.2473C208.511 2.21134 206.461 0.52469 202.19 0.52469C197.919 0.52469 194.16 2.38001 194.16 6.93394C194.16 11.4879 198.26 13.1745 202.702 14.3552C206.256 15.2997 206.974 16.2105 206.974 17.7285C206.974 19.0778 206.034 20.7644 202.702 20.7644C200.14 20.7644 198.306 19.5214 197.156 17.889L197.152 17.883C196.963 17.6157 196.768 17.3381 196.552 17.0538L193.306 19.0778C194.502 21.7764 197.406 24.475 202.702 24.475C206.461 24.475 211.074 22.7884 211.074 18.2345C211.074 12.6096 205.679 11.2717 203.319 10.6864L203.309 10.6839C203.178 10.6514 203.056 10.6211 202.945 10.5926C202.782 10.5506 202.642 10.5124 202.532 10.4759C202.452 10.4499 202.37 10.4234 202.286 10.3963L202.242 10.3822L202.223 10.376C200.675 9.87779 198.431 9.15574 198.431 6.93394C198.431 4.55955 200.994 4.23531 202.532 4.23531C204.94 4.23531 206.288 6.03091 206.925 6.95943C207.011 7.0847 207.084 7.1911 207.145 7.27127Z" fill="url(#paint0_linear_613_1253)"/>
<path fill-rule="evenodd" clip-rule="evenodd" d="M70.2931 0.524821H62.0923V24.4752H70.2931C70.2931 24.4752 82.9361 24.9813 82.9361 12.5C82.9361 0.0187036 70.2931 0.524821 70.2931 0.524821ZM71.0941 4.23729H65.851V20.7624H71.0941C71.0941 20.7624 79.1773 21.1117 79.1773 12.4999C79.1773 3.88806 71.0941 4.23729 71.0941 4.23729Z" fill="url(#paint1_linear_613_1253)"/>
<path fill-rule="evenodd" clip-rule="evenodd" d="M96.0212 0.525068H86.6948V24.4734H96.6041C96.6041 24.4734 104.122 24.6437 104.122 17.5598C104.122 14.7279 102.647 13.0553 100.877 12.0677C102.147 11.068 103.096 9.55644 103.096 7.27131C103.096 0.358874 96.0212 0.525068 96.0212 0.525068ZM90.4535 14.0179H96.0916C96.0916 14.0179 100.021 13.8492 100.021 17.5598C100.021 20.9331 96.0916 20.7645 96.0916 20.7645H90.4535V14.0179ZM95.5388 10.6446H90.4535V4.23536H95.5388C95.5388 4.23536 98.996 4.23536 98.996 7.27131C98.996 10.6446 95.5388 10.6446 95.5388 10.6446Z" fill="url(#paint2_linear_613_1253)"/>
<path d="M7.42006 24.475L0.927734 0.524697H5.5407L10.3245 18.5718L15.6209 0.524697H19.5505L24.8468 18.5718L29.6306 0.524697H34.0728L27.5804 24.475H22.6258L17.6711 7.27127L12.5456 24.475H7.42006Z" fill="url(#paint3_linear_613_1253)"/>
<path d="M40.9068 0.524697H36.8064V24.475H40.9068V0.524697Z" fill="url(#paint4_linear_613_1253)"/>
<path fill-rule="evenodd" clip-rule="evenodd" d="M125.649 0.524697H129.749V0.526468H135.216C135.216 0.526468 143.076 0.526468 143.076 8.11455C143.076 12.3434 140.633 14.2194 138.36 15.0496L143.93 24.475H139.317L134.133 15.7026H129.749V24.475H125.649V0.524697ZM134.191 12.3312L134.193 12.3312C134.201 12.3315 134.254 12.3329 134.342 12.3312C135.155 12.3155 138.975 12.0334 138.975 8.11455C138.975 4.23536 134.533 4.23527 134.533 4.23527H129.749V12.3312H134.191Z" fill="url(#paint5_linear_613_1253)"/>
<path fill-rule="evenodd" clip-rule="evenodd" d="M150.593 0.524697H146.493V24.475H150.593V15.7026H154.977L160.161 24.475H164.774L159.204 15.0496C161.477 14.2194 163.919 12.3434 163.919 8.11455C163.919 0.526468 156.06 0.526468 156.06 0.526468H150.593V0.524697ZM155.036 12.3312L155.035 12.3312H150.593V4.23527H155.377C155.377 4.23527 159.819 4.23536 159.819 8.11455C159.819 12.0334 155.999 12.3155 155.186 12.3312C155.147 12.3319 155.115 12.3321 155.091 12.332C155.06 12.3319 155.041 12.3314 155.036 12.3312Z" fill="url(#paint6_linear_613_1253)"/>
<path d="M167.336 0.524697H171.437V24.475H167.336V0.524697Z" fill="url(#paint7_linear_613_1253)"/>
<path d="M122.232 24.475H107.539V0.524697H122.232V4.57264H111.639V10.3072H121.207V14.3552H111.639V20.4271H122.232V24.475Z" fill="url(#paint8_linear_613_1253)"/>
<path d="M175.879 24.475H190.572V20.4271H179.979V14.3552H189.547V10.3072H179.979V4.57264H190.572V0.524697H175.879V24.475Z" fill="url(#paint9_linear_613_1253)"/>
<path d="M45.3489 0.524697H49.4493V20.4271H59.017V24.475H45.3489V0.524697Z" fill="url(#paint10_linear_613_1253)"/>
<defs>
<linearGradient id="paint0_linear_613_1253" x1="211.074" y1="12.5" x2="0.927734" y2="12.5" gradientUnits="userSpaceOnUse">
<stop stop-color="#4D317E"/>
<stop offset="1" stop-color="#BE2080"/>
</linearGradient>
<linearGradient id="paint1_linear_613_1253" x1="211.074" y1="12.5" x2="0.927734" y2="12.5" gradientUnits="userSpaceOnUse">
<stop stop-color="#4D317E"/>
<stop offset="1" stop-color="#BE2080"/>
</linearGradient>
<linearGradient id="paint2_linear_613_1253" x1="211.074" y1="12.5" x2="0.927734" y2="12.5" gradientUnits="userSpaceOnUse">
<stop stop-color="#4D317E"/>
<stop offset="1" stop-color="#BE2080"/>
</linearGradient>
<linearGradient id="paint3_linear_613_1253" x1="211.074" y1="12.5" x2="0.927734" y2="12.5" gradientUnits="userSpaceOnUse">
<stop stop-color="#4D317E"/>
<stop offset="1" stop-color="#BE2080"/>
</linearGradient>
<linearGradient id="paint4_linear_613_1253" x1="211.074" y1="12.5" x2="0.927734" y2="12.5" gradientUnits="userSpaceOnUse">
<stop stop-color="#4D317E"/>
<stop offset="1" stop-color="#BE2080"/>
</linearGradient>
<linearGradient id="paint5_linear_613_1253" x1="211.074" y1="12.5" x2="0.927734" y2="12.5" gradientUnits="userSpaceOnUse">
<stop stop-color="#4D317E"/>
<stop offset="1" stop-color="#BE2080"/>
</linearGradient>
<linearGradient id="paint6_linear_613_1253" x1="211.074" y1="12.5" x2="0.927734" y2="12.5" gradientUnits="userSpaceOnUse">
<stop stop-color="#4D317E"/>
<stop offset="1" stop-color="#BE2080"/>
</linearGradient>
<linearGradient id="paint7_linear_613_1253" x1="211.074" y1="12.5" x2="0.927734" y2="12.5" gradientUnits="userSpaceOnUse">
<stop stop-color="#4D317E"/>
<stop offset="1" stop-color="#BE2080"/>
</linearGradient>
<linearGradient id="paint8_linear_613_1253" x1="211.074" y1="12.5" x2="0.927734" y2="12.5" gradientUnits="userSpaceOnUse">
<stop stop-color="#4D317E"/>
<stop offset="1" stop-color="#BE2080"/>
</linearGradient>
<linearGradient id="paint9_linear_613_1253" x1="211.074" y1="12.5" x2="0.927734" y2="12.5" gradientUnits="userSpaceOnUse">
<stop stop-color="#4D317E"/>
<stop offset="1" stop-color="#BE2080"/>
</linearGradient>
<linearGradient id="paint10_linear_613_1253" x1="211.074" y1="12.5" x2="0.927734" y2="12.5" gradientUnits="userSpaceOnUse">
<stop stop-color="#4D317E"/>
<stop offset="1" stop-color="#BE2080"/>
</linearGradient>
</defs>
</svg>
