<svg width="211" height="43" viewBox="0 0 211 43" fill="none" xmlns="http://www.w3.org/2000/svg">
<ellipse cx="19.2514" cy="20.8534" rx="18.9897" ry="20.3148" fill="#FC3F1D"/>
<path d="M22.0213 11.8503V33.0811H25.8495V8.61719H19.9057C15.8257 8.61719 11.242 10.7187 11.242 16.4844C11.242 21.6035 14.4153 23.5973 15.9265 24.8906L10.7383 33.0811H15.0702L20.5605 23.9206C17.8405 21.8191 15.0702 20.5258 15.0702 16.4844C15.0702 11.4192 19.7042 11.9042 22.0213 11.8503Z" fill="white"/>
<ellipse cx="59.851" cy="20.8534" rx="18.9897" ry="20.3148" fill="#FED42B"/>
<path d="M77.3581 28.739C78.3125 26.3155 78.8401 23.6525 78.8401 20.8576C78.8401 19.4733 78.7106 18.1213 78.464 16.8148C76.7817 19.7098 73.4149 24.5139 71.5868 23.8213C69.6526 23.0884 71.3852 15.5229 72.4431 11.3738L72.9971 9.48776L65.1897 6.63184L56.0799 22.7075L57.2815 14.1219L50.3807 11.5354L41.1621 24.4824C41.6321 27.2738 42.6352 29.8672 44.0546 32.1374L50.6684 22.8497L49.3733 32.4968L56.4252 35.0833L64.7235 20.4438C64.2562 23.1255 64.036 28.3815 67.5571 30.5031C71.744 33.0257 75.3331 30.7772 77.3581 28.739Z" fill="black"/>
<path d="M89.1152 36.1035H93.1449V13.1483L98.9879 36.1035H103.068L108.961 13.1483V36.1035H113.696V5.49658H107.148L101.406 27.9129H101.305L95.6634 5.49658H89.1152V36.1035Z" fill="black"/>
<path fill-rule="evenodd" clip-rule="evenodd" d="M118.229 15.627V20.0456C119.103 19.2912 121.675 17.7824 124.979 17.7824C128.407 17.7824 128.351 20.1335 128.311 21.817L128.311 21.8172C128.307 21.9891 128.304 22.1541 128.304 22.3088C128.187 22.3088 128.044 22.3066 127.878 22.3039C125.24 22.2621 116.769 22.1278 116.769 29.5295C116.769 37.9356 125.986 37.5045 128.253 34.2714C128.354 34.7743 128.586 35.8448 128.707 36.1035H133.542C133.441 35.2952 133.24 33.0643 133.24 30.6072V20.3689C133.24 16.8664 131.779 13.5794 125.533 13.5794C122.36 13.5794 120.144 14.3877 118.229 15.627ZM121.755 29.3139C121.755 25.6902 125.8 25.6986 128.072 25.7033L128.074 25.7033C128.118 25.7034 128.162 25.7035 128.205 25.7035L128.248 25.7036C128.267 25.7036 128.285 25.7036 128.304 25.7036V30.7689C127.548 32.7626 121.755 34.002 121.755 29.3139Z" fill="black"/>
<path fill-rule="evenodd" clip-rule="evenodd" d="M137.169 42.462V14.0105H141.752L142.004 16.8125C142.474 15.6989 144.231 13.4716 147.495 13.4716C151.575 13.4716 155.302 16.7586 155.302 25.2186C155.302 33.6786 150.87 36.5346 147.243 36.5346C144.342 36.5346 142.609 34.4869 142.105 33.4631V42.462H137.169ZM142.105 25.0031C142.105 18.3644 144.775 17.6747 146.235 17.6747C147.898 17.6747 150.265 18.4937 150.265 25.0031C150.265 31.5125 147.797 32.3854 146.235 32.3854C144.372 32.3854 142.105 31.6418 142.105 25.0031Z" fill="black"/>
<path d="M158.576 14.0105H163.563V24.0332L170.313 14.0105H175.35L168.499 24.1409L176.357 36.1035H170.716L163.563 25.3264V36.1035H158.576V14.0105Z" fill="black"/>
<path fill-rule="evenodd" clip-rule="evenodd" d="M192.778 34.5947V30.2839C191.69 31.4478 188.446 32.3315 186.23 32.3315C182.049 32.3315 181.193 29.5295 181.193 26.943H192.979C192.979 26.6516 192.983 26.336 192.987 26.0008C193.039 21.4996 193.131 13.4716 185.021 13.4716C181.948 13.4716 176.156 14.8726 176.156 25.1109C176.156 35.1874 181.797 36.5346 186.028 36.5346C189.413 36.5346 191.938 35.2413 192.778 34.5947ZM181.193 23.0093H188.043C188.043 21.2311 187.962 17.6747 184.819 17.6747C181.676 17.6747 181.193 21.1233 181.193 23.0093Z" fill="black"/>
<path d="M193.987 13.9027V18.1058H199.729V36.1035H204.665V18.1058H210.408V13.9027H193.987Z" fill="black"/>
</svg>
