<svg width="123" height="60" viewBox="0 0 123 60" fill="none" xmlns="http://www.w3.org/2000/svg">
<path d="M23.174 0V44.1176H29.4387V34.3018H29.4763V28.0554H29.4387V0H23.174Z" fill="white"/>
<path d="M56.3863 37.5242C55.9222 36.781 55.5436 36.0042 55.2506 35.1937H62.6777C62.8163 35.3976 62.9651 35.596 63.1241 35.7891C63.8387 36.6153 64.7064 37.2598 65.7273 37.7225C66.7822 38.1852 67.9051 38.4165 69.0962 38.4165C70.2872 38.4165 71.3761 38.2348 72.3629 37.8712C73.3838 37.5077 74.2516 36.9954 74.9662 36.3344L79.5601 40.3995C77.9267 41.6885 76.2423 42.6304 74.5068 43.2253C72.8053 43.8202 70.8827 44.1176 68.7389 44.1176C66.0846 44.1176 63.6685 43.5227 61.4907 42.3329C59.3468 41.1431 57.6454 39.5402 56.3863 37.5242Z" fill="white"/>
<path d="M87.7101 37.5242C87.2459 36.781 86.8674 36.0042 86.5743 35.1937H94.0015C94.14 35.3976 94.2888 35.596 94.4478 35.7891C95.1624 36.6153 96.0302 37.2598 97.051 37.7225C98.1059 38.1852 99.2289 38.4165 100.42 38.4165C101.611 38.4165 102.7 38.2348 103.687 37.8712C104.708 37.5077 105.575 36.9954 106.29 36.3344L110.884 40.3995C109.25 41.6885 107.566 42.6304 105.831 43.2253C104.129 43.8202 102.206 44.1176 100.063 44.1176C97.4083 44.1176 94.9923 43.5227 92.8144 42.3329C90.6706 41.1431 88.9691 39.5402 87.7101 37.5242Z" fill="white"/>
<path fill-rule="evenodd" clip-rule="evenodd" d="M50.0229 32.5167V44.1172H43.7581V32.5167H32.1612V28.109H43.7581V17.3472L50.0229 17.3468V28.109H54.7305C55.0053 26.6183 55.5232 25.2289 56.2842 23.9407C57.5093 21.9246 59.1597 20.3217 61.2354 19.1319C63.3112 17.9421 65.6252 17.3472 68.1774 17.3472C70.7296 17.3472 72.9925 17.9586 74.9662 19.1815C76.9399 20.4043 78.4882 22.0568 79.6111 24.139C80.2924 25.3649 80.773 26.6882 81.0532 28.109H86.0543C86.329 26.6183 86.8469 25.2289 87.608 23.9407C88.833 21.9246 90.4834 20.3217 92.5592 19.1319C94.635 17.9421 96.9489 17.3472 99.5011 17.3472C102.053 17.3472 104.316 17.9586 106.29 19.1815C108.264 20.4043 109.812 22.0568 110.935 24.139C111.605 25.3441 112.08 26.6433 112.362 28.0366C112.584 29.0776 112.67 30.073 112.67 30.786V32.5167H50.0229ZM105.769 28.109C105.528 27.1035 105.089 26.2263 104.452 25.4775C103.84 24.6843 103.091 24.0729 102.206 23.6432C101.356 23.1805 100.403 22.9492 99.348 22.9492C98.2591 22.9492 97.2722 23.164 96.3875 23.5936C95.5027 24.0233 94.7541 24.6347 94.1415 25.4279C93.5714 26.1771 93.15 27.0708 92.8773 28.109H105.769ZM74.445 28.109C74.2043 27.1035 73.7655 26.2263 73.1286 25.4775C72.5161 24.6843 71.7674 24.0729 70.8827 23.6432C70.032 23.1805 69.0791 22.9492 68.0242 22.9492C66.9353 22.9492 65.9485 23.164 65.0637 23.5936C64.179 24.0233 63.4303 24.6347 62.8178 25.4279C62.2476 26.1771 61.8262 27.0708 61.5536 28.109H74.445Z" fill="white"/>
<path d="M116.735 11.1544V44.1176H123V11.1544H116.735Z" fill="white"/>
<path d="M77.5992 55.5882C77.0862 55.5882 76.6093 55.5112 76.1686 55.3572C75.7345 55.1976 75.3497 54.978 75.0142 54.6985C74.6854 54.4134 74.4288 54.0854 74.2447 53.7147C74.0671 53.3383 73.9783 52.9334 73.9783 52.5C73.9783 52.0665 74.0671 51.6645 74.2447 51.2938C74.4288 50.9174 74.6854 50.5894 75.0142 50.31C75.3497 50.0248 75.7378 49.8053 76.1785 49.6513C76.6191 49.4916 77.0927 49.4117 77.5992 49.4117C77.961 49.4117 78.3129 49.4545 78.6549 49.5401C79.0035 49.6199 79.3225 49.7368 79.6119 49.8908C79.9079 50.0448 80.1644 50.2301 80.3815 50.4469L79.6909 51.0628C79.4343 50.7947 79.1219 50.5923 78.7536 50.4554C78.3852 50.3128 78.0004 50.2415 77.5992 50.2415C77.2309 50.2415 76.8888 50.2986 76.5731 50.4126C76.264 50.5267 75.9943 50.6864 75.7641 50.8917C75.5339 51.0913 75.353 51.328 75.2214 51.6017C75.0965 51.8755 75.034 52.1749 75.034 52.5C75.034 52.8194 75.0965 53.1159 75.2214 53.3897C75.353 53.6634 75.5371 53.9029 75.7739 54.1083C76.0107 54.3136 76.287 54.4733 76.6027 54.5873C76.9184 54.7014 77.2605 54.7584 77.6288 54.7584C78.03 54.7584 78.4082 54.69 78.7634 54.5531C79.1252 54.4105 79.431 54.2109 79.681 53.9543L80.3618 54.5531C80.1316 54.7641 79.8684 54.9495 79.5725 55.1092C79.283 55.2631 78.9673 55.3829 78.6253 55.4684C78.2898 55.5483 77.9478 55.5882 77.5992 55.5882Z" fill="#94A3B5"/>
<path d="M84.5261 55.5882C84.0262 55.5882 83.5592 55.5112 83.1251 55.3572C82.691 55.1976 82.3062 54.978 81.9707 54.6985C81.6419 54.4134 81.3853 54.0854 81.2012 53.7147C81.0236 53.3383 80.9348 52.9334 80.9348 52.5C80.9348 52.0665 81.0236 51.6645 81.2012 51.2938C81.3853 50.9174 81.6419 50.5894 81.9707 50.31C82.3062 50.0248 82.691 49.8053 83.1251 49.6513C83.5592 49.4916 84.0262 49.4117 84.5261 49.4117C85.026 49.4117 85.493 49.4916 85.9271 49.6513C86.3678 49.8053 86.7526 50.0248 87.0815 50.31C87.4104 50.5894 87.6669 50.9174 87.8511 51.2938C88.0352 51.6645 88.1273 52.0665 88.1273 52.5C88.1273 52.9334 88.0352 53.3383 87.8511 53.7147C87.6669 54.0854 87.4104 54.4134 87.0815 54.6985C86.7526 54.978 86.3678 55.1976 85.9271 55.3572C85.493 55.5112 85.026 55.5882 84.5261 55.5882ZM84.536 54.7584C84.8912 54.7584 85.22 54.7014 85.5226 54.5873C85.8317 54.4733 86.1014 54.3164 86.3316 54.1168C86.5619 53.9115 86.7427 53.672 86.8743 53.3982C87.0058 53.1188 87.0716 52.8194 87.0716 52.5C87.0716 52.1749 87.0058 51.8755 86.8743 51.6017C86.7427 51.328 86.5619 51.0913 86.3316 50.8917C86.1014 50.6864 85.8317 50.5267 85.5226 50.4126C85.22 50.2986 84.8912 50.2415 84.536 50.2415C84.1742 50.2415 83.8388 50.2986 83.5296 50.4126C83.2205 50.5267 82.9508 50.6864 82.7206 50.8917C82.4904 51.0913 82.3095 51.328 82.1779 51.6017C82.053 51.8755 81.9905 52.1749 81.9905 52.5C81.9905 52.8194 82.053 53.1188 82.1779 53.3982C82.3095 53.672 82.4904 53.9115 82.7206 54.1168C82.9508 54.3164 83.2205 54.4733 83.5296 54.5873C83.8388 54.7014 84.1742 54.7584 84.536 54.7584Z" fill="#94A3B5"/>
<path d="M89.2182 55.4941V49.5058H90.6094L92.7701 53.3383L94.9308 49.5058H96.3121V55.4941H95.3353V50.6008L92.7602 55.0664L90.1851 50.6008V55.4941H89.2182Z" fill="#94A3B5"/>
<path d="M97.7163 55.4941V49.5058H102.827V50.2929H98.7523V52.1321H101.436V52.8935H98.7523V55.4941H97.7163Z" fill="#94A3B5"/>
<path d="M106.687 55.5882C106.187 55.5882 105.72 55.5112 105.286 55.3572C104.852 55.1976 104.467 54.978 104.131 54.6985C103.802 54.4134 103.546 54.0854 103.362 53.7147C103.184 53.3383 103.095 52.9334 103.095 52.5C103.095 52.0665 103.184 51.6645 103.362 51.2938C103.546 50.9174 103.802 50.5894 104.131 50.31C104.467 50.0248 104.852 49.8053 105.286 49.6513C105.72 49.4916 106.187 49.4117 106.687 49.4117C107.187 49.4117 107.654 49.4916 108.088 49.6513C108.528 49.8053 108.913 50.0248 109.242 50.31C109.571 50.5894 109.827 50.9174 110.012 51.2938C110.196 51.6645 110.288 52.0665 110.288 52.5C110.288 52.9334 110.196 53.3383 110.012 53.7147C109.827 54.0854 109.571 54.4134 109.242 54.6985C108.913 54.978 108.528 55.1976 108.088 55.3572C107.654 55.5112 107.187 55.5882 106.687 55.5882ZM106.697 54.7584C107.052 54.7584 107.381 54.7014 107.683 54.5873C107.992 54.4733 108.262 54.3164 108.492 54.1168C108.722 53.9115 108.903 53.672 109.035 53.3982C109.166 53.1188 109.232 52.8194 109.232 52.5C109.232 52.1749 109.166 51.8755 109.035 51.6017C108.903 51.328 108.722 51.0913 108.492 50.8917C108.262 50.6864 107.992 50.5267 107.683 50.4126C107.381 50.2986 107.052 50.2415 106.697 50.2415C106.335 50.2415 105.999 50.2986 105.69 50.4126C105.381 50.5267 105.111 50.6864 104.881 50.8917C104.651 51.0913 104.47 51.328 104.339 51.6017C104.214 51.8755 104.151 52.1749 104.151 52.5C104.151 52.8194 104.214 53.1188 104.339 53.3982C104.47 53.672 104.651 53.9115 104.881 54.1168C105.111 54.3164 105.381 54.4733 105.69 54.5873C105.999 54.7014 106.335 54.7584 106.697 54.7584Z" fill="#94A3B5"/>
<path d="M111.379 55.4941V49.5058H114.506C114.967 49.5058 115.368 49.58 115.71 49.7283C116.059 49.8765 116.328 50.0847 116.519 50.3528C116.717 50.6151 116.815 50.9231 116.815 51.2767C116.815 51.6702 116.687 52.0095 116.43 52.2947C116.174 52.5798 115.829 52.7851 115.394 52.9106L116.934 55.4941H115.789L114.358 53.0389H112.415V55.4941H111.379ZM112.415 52.2861H114.428C114.835 52.2861 115.161 52.1977 115.404 52.0209C115.654 51.8384 115.779 51.5932 115.779 51.2852C115.779 50.9887 115.654 50.7491 115.404 50.5666C115.161 50.3841 114.835 50.2929 114.428 50.2929H112.415V52.2861Z" fill="#94A3B5"/>
<path d="M119.603 55.4941V50.3014H117.176V49.5058H123V50.3014H120.639V55.4941H119.603Z" fill="#94A3B5"/>
<path d="M1.51992 32.1428C-0.136548 35.4632 1.81275 38.5262 5.19274 37.8177C2.01839 36.6103 2.52011 34.6784 2.99518 32.849C3.08839 32.4901 3.18058 32.1351 3.24377 31.7903C1.25152 29.9358 2.08249 26.7245 3.35372 25.5061C2.27789 23.4596 3.31896 19.6965 4.68851 19.1426C4.19739 16.5809 4.55376 13.207 7.55846 12.0601C7.47184 8.24431 10.2286 4.04516 13.5955 5.61148C15.7882 6.63154 16.6493 7.33619 17.47 8.00772C17.9095 8.36734 18.3374 8.71746 18.9519 9.10143C18.8341 8.94941 18.7133 8.79147 18.589 8.62897C17.3776 7.04504 15.8343 5.0273 13.4331 3.83073C10.7856 2.51138 5.68065 5.62915 5.80579 11.141C4.08191 11.4933 2.42544 14.8136 2.87359 18.3106C1.21195 18.5758 0.69578 22.8552 1.28579 24.9966C-0.84585 27.7154 -0.0140718 30.1927 1.51992 32.1428Z" fill="#94A3B5"/>
<path d="M21.3546 9.68725C17.7869 10.5813 13.1836 15.472 9.82574 21.9813C6.46785 28.4906 4.48006 37.7394 9.82575 40.8236C12.1088 42.1409 16.0694 42.5821 18.7452 42.1409C18.225 42.0559 17.7496 41.9827 17.3054 41.9142C15.4646 41.6306 14.1606 41.4297 12.4352 40.8236C6.19165 38.6305 7.54763 30.9095 12.9476 19.3113C15.9598 12.8417 21.3546 9.68725 21.3546 9.68725Z" fill="#94A3B5"/>
<path d="M67.936 48.927C65.8573 52.1998 64.7257 53.9815 56.6529 53.5582C47.7334 53.0905 37.4273 46.168 37.4273 46.168C37.4273 46.168 49.9633 57.7998 62.3436 55.4056C67.3562 54.4363 68.2481 50.9237 68.6304 47.8488C68.3825 48.224 68.154 48.5837 67.936 48.927Z" fill="#94A3B5"/>
<path d="M62.4505 57.9497C66.4642 57.3496 68.2481 54.6028 68.2481 54.6028C68.2481 54.6028 67.8021 58.5085 63.3424 59.706C57.489 61.2777 48.0451 56.0851 46.2495 55.0517C47.6949 55.8657 54.2094 59.1818 62.4505 57.9497Z" fill="#94A3B5"/>
<path d="M45.9495 54.8762C45.9495 54.8762 46.0524 54.9407 46.2495 55.0517C46.0543 54.9394 45.9495 54.8762 45.9495 54.8762Z" fill="#94A3B5"/>
</svg>
