<svg width="62" height="34" viewBox="0 0 62 34" fill="none" xmlns="http://www.w3.org/2000/svg">
<path d="M1.44487 22.3943C0.787103 24.5972 2.35017 26.2564 4.37904 25.4617C2.26162 25.0658 2.35599 23.8336 2.44535 22.6668C2.46288 22.4379 2.48023 22.2115 2.48063 21.9944C1.02757 21.0769 1.18257 19.0291 1.83789 18.1496C0.934928 17.0167 1.15857 14.6098 1.95045 14.125C1.35402 12.6152 1.19448 10.5191 2.93955 9.49729C2.45357 7.17918 3.69846 4.32227 5.97664 4.91653C7.4603 5.30354 8.07742 5.64098 8.66554 5.96255C8.98048 6.13476 9.28711 6.30242 9.71404 6.47071C9.62328 6.39063 9.53003 6.30726 9.43408 6.22147C8.49887 5.38529 7.30751 4.32009 5.67374 3.84778C3.87236 3.32701 1.03986 5.77619 1.74187 9.12469C0.706066 9.52444 0.0482952 11.7273 0.723785 13.8122C-0.283039 14.1522 -0.12071 16.8177 0.489851 18.0606C-0.532507 19.9476 0.266928 21.3693 1.44487 22.3943Z" fill="#94A3B5"/>
<path d="M12.1575 6.41107C10.5181 6.41107 7.00263 10.228 5.68408 14.9039C4.59307 18.7728 4.67541 23.7556 6.50384 25.5884C8.1903 27.2788 10.6457 27.2493 11.8745 27.2345C11.9777 27.2333 12.0728 27.2321 12.1575 27.2321C10.8564 27.0147 10.2168 26.6561 9.75639 26.3979C9.63677 26.3309 9.52906 26.2705 9.42516 26.2212C7.51252 25.3144 5.57026 18.5791 8.87869 11.3424C10.7242 7.30563 12.1575 6.41107 12.1575 6.41107Z" fill="#94A3B5"/>
<path d="M43.2347 27.5728C43.2347 29.0074 42.2408 30.787 35.781 30.4421C31.4977 30.2133 26.3398 29.0074 26.3398 29.0074C26.3398 29.0074 31.8058 31.8767 38.2656 31.8767C41.4003 31.8767 43.7316 29.9639 43.2347 27.5728Z" fill="#94A3B5"/>
<path d="M38.2656 33.3113C41.5216 33.3113 43.2347 30.9203 43.2347 30.9203C43.2347 30.9203 42.9856 33.0424 40.2532 33.7895C36.2771 34.8768 29.3212 31.3985 29.3212 31.3985C29.3212 31.3985 33.1542 33.3113 38.2656 33.3113Z" fill="#94A3B5"/>
<path d="M25.5873 17.9444V15.1111H33.4603V5.66663L40.3492 5.66663V15.1111H48.2222V17.9444H40.3492V27.3888L33.4603 27.3888V17.9444H25.5873Z" fill="#94A3B5"/>
<path d="M14.762 27.3889V0H21.6509V27.3889L14.762 27.3889Z" fill="white"/>
<path d="M47.9629 11.6621C47.7637 11.855 47.5782 12.0602 47.4066 12.2778L42.3175 12.2778V12.0241C42.9087 10.7988 43.7011 9.72413 44.6948 8.79997C45.7531 7.81579 46.9773 7.05255 48.3675 6.51025C49.7785 5.94786 51.2932 5.66667 52.9117 5.66667C54.1152 5.66667 55.2772 5.82735 56.3977 6.14871C57.5181 6.47008 58.5556 6.922 59.5101 7.50447C60.4853 8.08694 61.3153 8.78993 62.0001 9.61342L58.9499 12.5358C58.1614 11.5918 57.2484 10.8788 56.2109 10.3967C55.1942 9.9147 54.0944 9.67368 52.9117 9.67368C51.9365 9.67368 51.0235 9.85445 50.1727 10.216C49.322 10.5574 48.5854 11.0395 47.9629 11.6621Z" fill="white"/>
<path d="M44.6637 24.2556C43.6896 23.3315 42.9075 22.2657 42.3175 21.0583V20.7778H47.4074C47.5873 21.0039 47.7828 21.2191 47.994 21.4236C48.6373 22.0261 49.3843 22.4981 50.235 22.8396C51.1065 23.181 52.0506 23.3517 53.0673 23.3517C54.2086 23.3517 55.2772 23.1208 56.2732 22.6588C57.2691 22.1968 58.151 21.534 58.9187 20.6704L61.8756 23.5024C61.1908 24.3058 60.3712 24.9987 59.4167 25.5812C58.4622 26.1637 57.4248 26.6156 56.3043 26.937C55.2045 27.2383 54.0737 27.3889 52.9117 27.3889C51.2932 27.3889 49.7785 27.1177 48.3675 26.5754C46.9566 26.013 45.7219 25.2398 44.6637 24.2556Z" fill="white"/>
</svg>
